<svg xmlns="http://www.w3.org/2000/svg" xmlns:xlink="http://www.w3.org/1999/xlink" width="121" zoomAndPan="magnify" viewBox="0 0 90.75 38.249999" height="51" preserveAspectRatio="xMidYMid meet" version="1.0"><defs><g/></defs><g fill="#012c66" fill-opacity="1"><g transform="translate(3.030289, 20.2306)"><g><path d="M 6.46875 -8.078125 L 6.46875 -6.734375 L 4.140625 -6.734375 L 4.140625 0 L 2.546875 0 L 2.546875 -6.734375 L 0.21875 -6.734375 L 0.21875 -8.078125 Z M 6.46875 -8.078125 "/></g></g></g><g fill="#012c66" fill-opacity="1"><g transform="translate(9.723213, 20.2306)"><g><path d="M 2.375 0.109375 C 1.988281 0.109375 1.648438 0.0390625 1.359375 -0.09375 C 1.066406 -0.238281 0.84375 -0.453125 0.6875 -0.734375 C 0.539062 -1.015625 0.46875 -1.347656 0.46875 -1.734375 C 0.46875 -2.097656 0.539062 -2.398438 0.6875 -2.640625 C 0.84375 -2.890625 1.082031 -3.09375 1.40625 -3.25 C 1.738281 -3.40625 2.164062 -3.523438 2.6875 -3.609375 C 3.050781 -3.671875 3.328125 -3.734375 3.515625 -3.796875 C 3.703125 -3.867188 3.828125 -3.945312 3.890625 -4.03125 C 3.960938 -4.125 4 -4.238281 4 -4.375 C 4 -4.570312 3.929688 -4.722656 3.796875 -4.828125 C 3.660156 -4.929688 3.429688 -4.984375 3.109375 -4.984375 C 2.773438 -4.984375 2.453125 -4.90625 2.140625 -4.75 C 1.835938 -4.601562 1.578125 -4.40625 1.359375 -4.15625 L 1.25 -4.15625 L 0.609375 -5.125 C 0.910156 -5.46875 1.285156 -5.734375 1.734375 -5.921875 C 2.179688 -6.109375 2.664062 -6.203125 3.1875 -6.203125 C 4 -6.203125 4.582031 -6.03125 4.9375 -5.6875 C 5.300781 -5.351562 5.484375 -4.867188 5.484375 -4.234375 L 5.484375 -1.59375 C 5.484375 -1.320312 5.601562 -1.1875 5.84375 -1.1875 C 5.9375 -1.1875 6.023438 -1.203125 6.109375 -1.234375 L 6.1875 -1.203125 L 6.296875 -0.140625 C 6.210938 -0.0859375 6.09375 -0.0390625 5.9375 0 C 5.789062 0.03125 5.628906 0.046875 5.453125 0.046875 C 5.085938 0.046875 4.800781 -0.0195312 4.59375 -0.15625 C 4.394531 -0.300781 4.25 -0.523438 4.15625 -0.828125 L 4.046875 -0.828125 C 3.742188 -0.203125 3.1875 0.109375 2.375 0.109375 Z M 2.859375 -1.03125 C 3.210938 -1.03125 3.492188 -1.144531 3.703125 -1.375 C 3.921875 -1.613281 4.03125 -1.945312 4.03125 -2.375 L 4.03125 -3 L 3.921875 -3.015625 C 3.828125 -2.941406 3.707031 -2.878906 3.5625 -2.828125 C 3.414062 -2.773438 3.203125 -2.726562 2.921875 -2.6875 C 2.585938 -2.632812 2.347656 -2.539062 2.203125 -2.40625 C 2.054688 -2.269531 1.984375 -2.078125 1.984375 -1.828125 C 1.984375 -1.566406 2.0625 -1.367188 2.21875 -1.234375 C 2.375 -1.097656 2.585938 -1.03125 2.859375 -1.03125 Z M 2.859375 -1.03125 "/></g></g></g><g fill="#012c66" fill-opacity="1"><g transform="translate(16.145548, 20.2306)"><g><path d="M 4.203125 -1.453125 L 4.59375 -0.328125 C 4.4375 -0.179688 4.226562 -0.0703125 3.96875 0 C 3.71875 0.0703125 3.4375 0.109375 3.125 0.109375 C 2.46875 0.109375 1.96875 -0.0664062 1.625 -0.421875 C 1.28125 -0.785156 1.109375 -1.304688 1.109375 -1.984375 L 1.109375 -4.890625 L 0.1875 -4.890625 L 0.1875 -6.09375 L 1.109375 -6.09375 L 1.109375 -7.28125 L 2.640625 -7.53125 L 2.640625 -6.09375 L 4.375 -6.09375 L 4.375 -4.890625 L 2.640625 -4.890625 L 2.640625 -2.09375 C 2.640625 -1.789062 2.703125 -1.570312 2.828125 -1.4375 C 2.953125 -1.300781 3.132812 -1.234375 3.375 -1.234375 C 3.644531 -1.234375 3.882812 -1.304688 4.09375 -1.453125 Z M 4.203125 -1.453125 "/></g></g></g><g fill="#012c66" fill-opacity="1"><g transform="translate(20.878085, 20.2306)"><g><path d="M 1.640625 -6.828125 C 1.359375 -6.828125 1.128906 -6.910156 0.953125 -7.078125 C 0.785156 -7.242188 0.703125 -7.457031 0.703125 -7.71875 C 0.703125 -7.976562 0.785156 -8.191406 0.953125 -8.359375 C 1.128906 -8.523438 1.359375 -8.609375 1.640625 -8.609375 C 1.828125 -8.609375 1.988281 -8.570312 2.125 -8.5 C 2.269531 -8.425781 2.378906 -8.320312 2.453125 -8.1875 C 2.535156 -8.050781 2.578125 -7.894531 2.578125 -7.71875 C 2.578125 -7.550781 2.535156 -7.394531 2.453125 -7.25 C 2.378906 -7.113281 2.269531 -7.007812 2.125 -6.9375 C 1.988281 -6.863281 1.828125 -6.828125 1.640625 -6.828125 Z M 0.875 0 L 0.875 -6.09375 L 2.40625 -6.09375 L 2.40625 0 Z M 0.875 0 "/></g></g></g><g fill="#012c66" fill-opacity="1"><g transform="translate(24.158281, 20.2306)"><g><path d="M 2.375 0.109375 C 1.988281 0.109375 1.648438 0.0390625 1.359375 -0.09375 C 1.066406 -0.238281 0.84375 -0.453125 0.6875 -0.734375 C 0.539062 -1.015625 0.46875 -1.347656 0.46875 -1.734375 C 0.46875 -2.097656 0.539062 -2.398438 0.6875 -2.640625 C 0.84375 -2.890625 1.082031 -3.09375 1.40625 -3.25 C 1.738281 -3.40625 2.164062 -3.523438 2.6875 -3.609375 C 3.050781 -3.671875 3.328125 -3.734375 3.515625 -3.796875 C 3.703125 -3.867188 3.828125 -3.945312 3.890625 -4.03125 C 3.960938 -4.125 4 -4.238281 4 -4.375 C 4 -4.570312 3.929688 -4.722656 3.796875 -4.828125 C 3.660156 -4.929688 3.429688 -4.984375 3.109375 -4.984375 C 2.773438 -4.984375 2.453125 -4.90625 2.140625 -4.75 C 1.835938 -4.601562 1.578125 -4.40625 1.359375 -4.15625 L 1.25 -4.15625 L 0.609375 -5.125 C 0.910156 -5.46875 1.285156 -5.734375 1.734375 -5.921875 C 2.179688 -6.109375 2.664062 -6.203125 3.1875 -6.203125 C 4 -6.203125 4.582031 -6.03125 4.9375 -5.6875 C 5.300781 -5.351562 5.484375 -4.867188 5.484375 -4.234375 L 5.484375 -1.59375 C 5.484375 -1.320312 5.601562 -1.1875 5.84375 -1.1875 C 5.9375 -1.1875 6.023438 -1.203125 6.109375 -1.234375 L 6.1875 -1.203125 L 6.296875 -0.140625 C 6.210938 -0.0859375 6.09375 -0.0390625 5.9375 0 C 5.789062 0.03125 5.628906 0.046875 5.453125 0.046875 C 5.085938 0.046875 4.800781 -0.0195312 4.59375 -0.15625 C 4.394531 -0.300781 4.25 -0.523438 4.15625 -0.828125 L 4.046875 -0.828125 C 3.742188 -0.203125 3.1875 0.109375 2.375 0.109375 Z M 2.859375 -1.03125 C 3.210938 -1.03125 3.492188 -1.144531 3.703125 -1.375 C 3.921875 -1.613281 4.03125 -1.945312 4.03125 -2.375 L 4.03125 -3 L 3.921875 -3.015625 C 3.828125 -2.941406 3.707031 -2.878906 3.5625 -2.828125 C 3.414062 -2.773438 3.203125 -2.726562 2.921875 -2.6875 C 2.585938 -2.632812 2.347656 -2.539062 2.203125 -2.40625 C 2.054688 -2.269531 1.984375 -2.078125 1.984375 -1.828125 C 1.984375 -1.566406 2.0625 -1.367188 2.21875 -1.234375 C 2.375 -1.097656 2.585938 -1.03125 2.859375 -1.03125 Z M 2.859375 -1.03125 "/></g></g></g><g fill="#012c66" fill-opacity="1"><g transform="translate(30.580616, 20.2306)"><g><path d="M 0.875 0 L 0.875 -6.09375 L 2.34375 -6.09375 L 2.34375 -5.203125 L 2.46875 -5.171875 C 2.84375 -5.859375 3.457031 -6.203125 4.3125 -6.203125 C 5.007812 -6.203125 5.523438 -6.007812 5.859375 -5.625 C 6.191406 -5.25 6.359375 -4.691406 6.359375 -3.953125 L 6.359375 0 L 4.828125 0 L 4.828125 -3.765625 C 4.828125 -4.171875 4.742188 -4.460938 4.578125 -4.640625 C 4.421875 -4.828125 4.160156 -4.921875 3.796875 -4.921875 C 3.359375 -4.921875 3.015625 -4.773438 2.765625 -4.484375 C 2.523438 -4.203125 2.40625 -3.757812 2.40625 -3.15625 L 2.40625 0 Z M 0.875 0 "/></g></g></g><g fill="#012c66" fill-opacity="1"><g transform="translate(37.715316, 20.2306)"><g><path d="M 6.015625 -2.703125 L 2.109375 -2.703125 C 2.148438 -2.171875 2.296875 -1.785156 2.546875 -1.546875 C 2.804688 -1.304688 3.160156 -1.1875 3.609375 -1.1875 C 3.960938 -1.1875 4.242188 -1.25 4.453125 -1.375 C 4.671875 -1.507812 4.847656 -1.707031 4.984375 -1.96875 L 5.109375 -1.96875 L 6.125 -1.3125 C 5.925781 -0.882812 5.625 -0.539062 5.21875 -0.28125 C 4.820312 -0.0195312 4.285156 0.109375 3.609375 0.109375 C 2.984375 0.109375 2.441406 -0.0078125 1.984375 -0.25 C 1.523438 -0.488281 1.171875 -0.84375 0.921875 -1.3125 C 0.671875 -1.78125 0.546875 -2.359375 0.546875 -3.046875 C 0.546875 -3.734375 0.675781 -4.3125 0.9375 -4.78125 C 1.195312 -5.257812 1.550781 -5.613281 2 -5.84375 C 2.445312 -6.082031 2.945312 -6.203125 3.5 -6.203125 C 4.363281 -6.203125 5.023438 -5.972656 5.484375 -5.515625 C 5.941406 -5.066406 6.171875 -4.398438 6.171875 -3.515625 C 6.171875 -3.191406 6.160156 -2.941406 6.140625 -2.765625 Z M 4.703125 -3.6875 C 4.691406 -4.15625 4.582031 -4.492188 4.375 -4.703125 C 4.175781 -4.910156 3.882812 -5.015625 3.5 -5.015625 C 2.726562 -5.015625 2.273438 -4.570312 2.140625 -3.6875 Z M 4.703125 -3.6875 "/></g></g></g><g fill="#012c66" fill-opacity="1"><g transform="translate(44.336451, 20.2306)"><g/></g></g><g fill="#012c66" fill-opacity="1"><g transform="translate(47.00368, 20.2306)"><g><path d="M 3.015625 0.109375 C 2.523438 0.109375 2.09375 -0.00390625 1.71875 -0.234375 C 1.351562 -0.460938 1.066406 -0.8125 0.859375 -1.28125 C 0.648438 -1.757812 0.546875 -2.347656 0.546875 -3.046875 C 0.546875 -3.742188 0.648438 -4.328125 0.859375 -4.796875 C 1.078125 -5.265625 1.378906 -5.613281 1.765625 -5.84375 C 2.148438 -6.082031 2.59375 -6.203125 3.09375 -6.203125 C 3.46875 -6.203125 3.789062 -6.132812 4.0625 -6 C 4.34375 -5.875 4.582031 -5.675781 4.78125 -5.40625 L 4.890625 -5.4375 L 4.890625 -8.546875 L 6.421875 -8.546875 L 6.421875 0 L 4.890625 0 L 4.890625 -0.796875 L 4.78125 -0.8125 C 4.613281 -0.519531 4.378906 -0.289062 4.078125 -0.125 C 3.785156 0.03125 3.429688 0.109375 3.015625 0.109375 Z M 3.5 -1.1875 C 3.9375 -1.1875 4.28125 -1.335938 4.53125 -1.640625 C 4.78125 -1.953125 4.90625 -2.421875 4.90625 -3.046875 C 4.90625 -3.671875 4.78125 -4.132812 4.53125 -4.4375 C 4.28125 -4.75 3.9375 -4.90625 3.5 -4.90625 C 3.050781 -4.90625 2.707031 -4.753906 2.46875 -4.453125 C 2.238281 -4.160156 2.125 -3.691406 2.125 -3.046875 C 2.125 -2.398438 2.238281 -1.925781 2.46875 -1.625 C 2.707031 -1.332031 3.050781 -1.1875 3.5 -1.1875 Z M 3.5 -1.1875 "/></g></g></g><g fill="#012c66" fill-opacity="1"><g transform="translate(54.304047, 20.2306)"><g><path d="M 3.546875 0.109375 C 2.941406 0.109375 2.414062 -0.0078125 1.96875 -0.25 C 1.519531 -0.5 1.171875 -0.859375 0.921875 -1.328125 C 0.671875 -1.796875 0.546875 -2.367188 0.546875 -3.046875 C 0.546875 -3.710938 0.671875 -4.28125 0.921875 -4.75 C 1.171875 -5.226562 1.519531 -5.585938 1.96875 -5.828125 C 2.414062 -6.078125 2.941406 -6.203125 3.546875 -6.203125 C 4.140625 -6.203125 4.660156 -6.078125 5.109375 -5.828125 C 5.554688 -5.585938 5.90625 -5.226562 6.15625 -4.75 C 6.414062 -4.28125 6.546875 -3.710938 6.546875 -3.046875 C 6.546875 -2.367188 6.414062 -1.796875 6.15625 -1.328125 C 5.90625 -0.859375 5.554688 -0.5 5.109375 -0.25 C 4.660156 -0.0078125 4.140625 0.109375 3.546875 0.109375 Z M 3.546875 -1.1875 C 4.484375 -1.1875 4.953125 -1.804688 4.953125 -3.046875 C 4.953125 -3.691406 4.832031 -4.160156 4.59375 -4.453125 C 4.351562 -4.753906 4.003906 -4.90625 3.546875 -4.90625 C 2.597656 -4.90625 2.125 -4.285156 2.125 -3.046875 C 2.125 -1.804688 2.597656 -1.1875 3.546875 -1.1875 Z M 3.546875 -1.1875 "/></g></g></g><g fill="#012c66" fill-opacity="1"><g transform="translate(61.383526, 20.2306)"><g/></g></g><g fill="#012c66" fill-opacity="1"><g transform="translate(64.050755, 20.2306)"><g><path d="M 4.1875 0 L 2.375 0 L 0.109375 -6.09375 L 1.71875 -6.09375 L 3.234375 -1.75 L 3.359375 -1.75 L 4.875 -6.09375 L 6.4375 -6.09375 Z M 4.1875 0 "/></g></g></g><g fill="#012c66" fill-opacity="1"><g transform="translate(70.600101, 20.2306)"><g><path d="M 2.375 0.109375 C 1.988281 0.109375 1.648438 0.0390625 1.359375 -0.09375 C 1.066406 -0.238281 0.84375 -0.453125 0.6875 -0.734375 C 0.539062 -1.015625 0.46875 -1.347656 0.46875 -1.734375 C 0.46875 -2.097656 0.539062 -2.398438 0.6875 -2.640625 C 0.84375 -2.890625 1.082031 -3.09375 1.40625 -3.25 C 1.738281 -3.40625 2.164062 -3.523438 2.6875 -3.609375 C 3.050781 -3.671875 3.328125 -3.734375 3.515625 -3.796875 C 3.703125 -3.867188 3.828125 -3.945312 3.890625 -4.03125 C 3.960938 -4.125 4 -4.238281 4 -4.375 C 4 -4.570312 3.929688 -4.722656 3.796875 -4.828125 C 3.660156 -4.929688 3.429688 -4.984375 3.109375 -4.984375 C 2.773438 -4.984375 2.453125 -4.90625 2.140625 -4.75 C 1.835938 -4.601562 1.578125 -4.40625 1.359375 -4.15625 L 1.25 -4.15625 L 0.609375 -5.125 C 0.910156 -5.46875 1.285156 -5.734375 1.734375 -5.921875 C 2.179688 -6.109375 2.664062 -6.203125 3.1875 -6.203125 C 4 -6.203125 4.582031 -6.03125 4.9375 -5.6875 C 5.300781 -5.351562 5.484375 -4.867188 5.484375 -4.234375 L 5.484375 -1.59375 C 5.484375 -1.320312 5.601562 -1.1875 5.84375 -1.1875 C 5.9375 -1.1875 6.023438 -1.203125 6.109375 -1.234375 L 6.1875 -1.203125 L 6.296875 -0.140625 C 6.210938 -0.0859375 6.09375 -0.0390625 5.9375 0 C 5.789062 0.03125 5.628906 0.046875 5.453125 0.046875 C 5.085938 0.046875 4.800781 -0.0195312 4.59375 -0.15625 C 4.394531 -0.300781 4.25 -0.523438 4.15625 -0.828125 L 4.046875 -0.828125 C 3.742188 -0.203125 3.1875 0.109375 2.375 0.109375 Z M 2.859375 -1.03125 C 3.210938 -1.03125 3.492188 -1.144531 3.703125 -1.375 C 3.921875 -1.613281 4.03125 -1.945312 4.03125 -2.375 L 4.03125 -3 L 3.921875 -3.015625 C 3.828125 -2.941406 3.707031 -2.878906 3.5625 -2.828125 C 3.414062 -2.773438 3.203125 -2.726562 2.921875 -2.6875 C 2.585938 -2.632812 2.347656 -2.539062 2.203125 -2.40625 C 2.054688 -2.269531 1.984375 -2.078125 1.984375 -1.828125 C 1.984375 -1.566406 2.0625 -1.367188 2.21875 -1.234375 C 2.375 -1.097656 2.585938 -1.03125 2.859375 -1.03125 Z M 2.859375 -1.03125 "/></g></g></g><g fill="#012c66" fill-opacity="1"><g transform="translate(77.022436, 20.2306)"><g><path d="M 2.53125 0.109375 C 1.976562 0.109375 1.554688 -0.0351562 1.265625 -0.328125 C 0.984375 -0.617188 0.84375 -1.066406 0.84375 -1.671875 L 0.84375 -8.546875 L 2.375 -8.546875 L 2.375 -1.734375 C 2.375 -1.367188 2.523438 -1.1875 2.828125 -1.1875 C 2.921875 -1.1875 3.015625 -1.195312 3.109375 -1.21875 L 3.1875 -1.203125 L 3.328125 -0.03125 C 3.242188 0.0078125 3.128906 0.0390625 2.984375 0.0625 C 2.847656 0.09375 2.695312 0.109375 2.53125 0.109375 Z M 2.53125 0.109375 "/></g></g></g><g fill="#012c66" fill-opacity="1"><g transform="translate(80.52352, 20.2306)"><g><path d="M 6.015625 -2.703125 L 2.109375 -2.703125 C 2.148438 -2.171875 2.296875 -1.785156 2.546875 -1.546875 C 2.804688 -1.304688 3.160156 -1.1875 3.609375 -1.1875 C 3.960938 -1.1875 4.242188 -1.25 4.453125 -1.375 C 4.671875 -1.507812 4.847656 -1.707031 4.984375 -1.96875 L 5.109375 -1.96875 L 6.125 -1.3125 C 5.925781 -0.882812 5.625 -0.539062 5.21875 -0.28125 C 4.820312 -0.0195312 4.285156 0.109375 3.609375 0.109375 C 2.984375 0.109375 2.441406 -0.0078125 1.984375 -0.25 C 1.523438 -0.488281 1.171875 -0.84375 0.921875 -1.3125 C 0.671875 -1.78125 0.546875 -2.359375 0.546875 -3.046875 C 0.546875 -3.734375 0.675781 -4.3125 0.9375 -4.78125 C 1.195312 -5.257812 1.550781 -5.613281 2 -5.84375 C 2.445312 -6.082031 2.945312 -6.203125 3.5 -6.203125 C 4.363281 -6.203125 5.023438 -5.972656 5.484375 -5.515625 C 5.941406 -5.066406 6.171875 -4.398438 6.171875 -3.515625 C 6.171875 -3.191406 6.160156 -2.941406 6.140625 -2.765625 Z M 4.703125 -3.6875 C 4.691406 -4.15625 4.582031 -4.492188 4.375 -4.703125 C 4.175781 -4.910156 3.882812 -5.015625 3.5 -5.015625 C 2.726562 -5.015625 2.273438 -4.570312 2.140625 -3.6875 Z M 4.703125 -3.6875 "/></g></g></g><g fill="#012c66" fill-opacity="1"><g transform="translate(3.030289, 26.2312)"><g><path d="M 3.859375 0 L 3.3125 0 L 1 -3.53125 L 0.984375 -3.53125 C 1.015625 -3.113281 1.03125 -2.734375 1.03125 -2.390625 L 1.03125 0 L 0.578125 0 L 0.578125 -4.203125 L 1.125 -4.203125 L 3.421875 -0.6875 L 3.453125 -0.6875 C 3.441406 -0.738281 3.429688 -0.90625 3.421875 -1.1875 C 3.410156 -1.46875 3.40625 -1.671875 3.40625 -1.796875 L 3.40625 -4.203125 L 3.859375 -4.203125 Z M 3.859375 0 "/></g></g><g transform="translate(7.466736, 26.2312)"><g><path d="M 0.953125 -3.15625 L 0.953125 -1.109375 C 0.953125 -0.847656 1.007812 -0.65625 1.125 -0.53125 C 1.25 -0.40625 1.4375 -0.34375 1.6875 -0.34375 C 2.007812 -0.34375 2.242188 -0.429688 2.390625 -0.609375 C 2.546875 -0.796875 2.625 -1.09375 2.625 -1.5 L 2.625 -3.15625 L 3.109375 -3.15625 L 3.109375 0 L 2.71875 0 L 2.640625 -0.421875 L 2.625 -0.421875 C 2.519531 -0.265625 2.378906 -0.144531 2.203125 -0.0625 C 2.035156 0.0195312 1.84375 0.0625 1.625 0.0625 C 1.238281 0.0625 0.945312 -0.0234375 0.75 -0.203125 C 0.5625 -0.390625 0.46875 -0.6875 0.46875 -1.09375 L 0.46875 -3.15625 Z M 0.953125 -3.15625 "/></g></g><g transform="translate(11.078532, 26.2312)"><g><path d="M 1.53125 -0.34375 C 1.613281 -0.34375 1.691406 -0.347656 1.765625 -0.359375 C 1.847656 -0.367188 1.910156 -0.378906 1.953125 -0.390625 L 1.953125 -0.03125 C 1.898438 0 1.820312 0.0195312 1.71875 0.03125 C 1.625 0.0507812 1.535156 0.0625 1.453125 0.0625 C 0.847656 0.0625 0.546875 -0.257812 0.546875 -0.90625 L 0.546875 -2.78125 L 0.09375 -2.78125 L 0.09375 -3.015625 L 0.546875 -3.203125 L 0.734375 -3.890625 L 1.015625 -3.890625 L 1.015625 -3.15625 L 1.9375 -3.15625 L 1.9375 -2.78125 L 1.015625 -2.78125 L 1.015625 -0.921875 C 1.015625 -0.734375 1.054688 -0.585938 1.140625 -0.484375 C 1.234375 -0.390625 1.363281 -0.34375 1.53125 -0.34375 Z M 1.53125 -0.34375 "/></g></g><g transform="translate(13.155961, 26.2312)"><g><path d="M 1.9375 -3.203125 C 2.082031 -3.203125 2.210938 -3.191406 2.328125 -3.171875 L 2.25 -2.734375 C 2.125 -2.765625 2.007812 -2.78125 1.90625 -2.78125 C 1.65625 -2.78125 1.4375 -2.675781 1.25 -2.46875 C 1.070312 -2.257812 0.984375 -2 0.984375 -1.6875 L 0.984375 0 L 0.5 0 L 0.5 -3.15625 L 0.90625 -3.15625 L 0.953125 -2.5625 L 0.984375 -2.5625 C 1.097656 -2.769531 1.234375 -2.925781 1.390625 -3.03125 C 1.554688 -3.144531 1.738281 -3.203125 1.9375 -3.203125 Z M 1.9375 -3.203125 "/></g></g><g transform="translate(15.558078, 26.2312)"><g><path d="M 0.984375 0 L 0.5 0 L 0.5 -3.15625 L 0.984375 -3.15625 Z M 0.46875 -4 C 0.46875 -4.113281 0.492188 -4.195312 0.546875 -4.25 C 0.597656 -4.300781 0.664062 -4.328125 0.75 -4.328125 C 0.820312 -4.328125 0.882812 -4.300781 0.9375 -4.25 C 1 -4.195312 1.03125 -4.113281 1.03125 -4 C 1.03125 -3.894531 1 -3.816406 0.9375 -3.765625 C 0.882812 -3.710938 0.820312 -3.6875 0.75 -3.6875 C 0.664062 -3.6875 0.597656 -3.710938 0.546875 -3.765625 C 0.492188 -3.816406 0.46875 -3.894531 0.46875 -4 Z M 0.46875 -4 "/></g></g><g transform="translate(17.046471, 26.2312)"><g><path d="M 1.765625 0.0625 C 1.304688 0.0625 0.953125 -0.078125 0.703125 -0.359375 C 0.453125 -0.640625 0.328125 -1.039062 0.328125 -1.5625 C 0.328125 -2.082031 0.453125 -2.484375 0.703125 -2.765625 C 0.960938 -3.054688 1.328125 -3.203125 1.796875 -3.203125 C 1.953125 -3.203125 2.101562 -3.1875 2.25 -3.15625 C 2.40625 -3.125 2.523438 -3.085938 2.609375 -3.046875 L 2.46875 -2.640625 C 2.351562 -2.679688 2.234375 -2.710938 2.109375 -2.734375 C 1.992188 -2.765625 1.882812 -2.78125 1.78125 -2.78125 C 1.144531 -2.78125 0.828125 -2.375 0.828125 -1.5625 C 0.828125 -1.175781 0.90625 -0.878906 1.0625 -0.671875 C 1.21875 -0.460938 1.445312 -0.359375 1.75 -0.359375 C 2.019531 -0.359375 2.289062 -0.414062 2.5625 -0.53125 L 2.5625 -0.109375 C 2.351562 0.00390625 2.085938 0.0625 1.765625 0.0625 Z M 1.765625 0.0625 "/></g></g><g transform="translate(19.847984, 26.2312)"><g><path d="M 0.984375 0 L 0.5 0 L 0.5 -3.15625 L 0.984375 -3.15625 Z M 0.46875 -4 C 0.46875 -4.113281 0.492188 -4.195312 0.546875 -4.25 C 0.597656 -4.300781 0.664062 -4.328125 0.75 -4.328125 C 0.820312 -4.328125 0.882812 -4.300781 0.9375 -4.25 C 1 -4.195312 1.03125 -4.113281 1.03125 -4 C 1.03125 -3.894531 1 -3.816406 0.9375 -3.765625 C 0.882812 -3.710938 0.820312 -3.6875 0.75 -3.6875 C 0.664062 -3.6875 0.597656 -3.710938 0.546875 -3.765625 C 0.492188 -3.816406 0.46875 -3.894531 0.46875 -4 Z M 0.46875 -4 "/></g></g><g transform="translate(21.336377, 26.2312)"><g><path d="M 3.234375 -1.578125 C 3.234375 -1.066406 3.101562 -0.664062 2.84375 -0.375 C 2.582031 -0.0820312 2.222656 0.0625 1.765625 0.0625 C 1.484375 0.0625 1.234375 -0.00390625 1.015625 -0.140625 C 0.796875 -0.273438 0.625 -0.460938 0.5 -0.703125 C 0.382812 -0.953125 0.328125 -1.242188 0.328125 -1.578125 C 0.328125 -2.085938 0.457031 -2.484375 0.71875 -2.765625 C 0.976562 -3.054688 1.332031 -3.203125 1.78125 -3.203125 C 2.226562 -3.203125 2.582031 -3.054688 2.84375 -2.765625 C 3.101562 -2.472656 3.234375 -2.078125 3.234375 -1.578125 Z M 0.828125 -1.578125 C 0.828125 -1.171875 0.90625 -0.863281 1.0625 -0.65625 C 1.226562 -0.445312 1.46875 -0.34375 1.78125 -0.34375 C 2.09375 -0.34375 2.328125 -0.445312 2.484375 -0.65625 C 2.648438 -0.863281 2.734375 -1.171875 2.734375 -1.578125 C 2.734375 -1.984375 2.648438 -2.285156 2.484375 -2.484375 C 2.328125 -2.691406 2.085938 -2.796875 1.765625 -2.796875 C 1.453125 -2.796875 1.21875 -2.691406 1.0625 -2.484375 C 0.90625 -2.285156 0.828125 -1.984375 0.828125 -1.578125 Z M 0.828125 -1.578125 "/></g></g><g transform="translate(24.890706, 26.2312)"><g><path d="M 2.65625 0 L 2.65625 -2.046875 C 2.65625 -2.296875 2.597656 -2.484375 2.484375 -2.609375 C 2.367188 -2.734375 2.1875 -2.796875 1.9375 -2.796875 C 1.601562 -2.796875 1.359375 -2.707031 1.203125 -2.53125 C 1.054688 -2.351562 0.984375 -2.0625 0.984375 -1.65625 L 0.984375 0 L 0.5 0 L 0.5 -3.15625 L 0.890625 -3.15625 L 0.96875 -2.71875 L 1 -2.71875 C 1.09375 -2.875 1.226562 -2.992188 1.40625 -3.078125 C 1.582031 -3.160156 1.78125 -3.203125 2 -3.203125 C 2.375 -3.203125 2.65625 -3.109375 2.84375 -2.921875 C 3.039062 -2.742188 3.140625 -2.457031 3.140625 -2.0625 L 3.140625 0 Z M 2.65625 0 "/></g></g><g transform="translate(28.502502, 26.2312)"><g><path d="M 0.984375 0 L 0.5 0 L 0.5 -3.15625 L 0.984375 -3.15625 Z M 0.46875 -4 C 0.46875 -4.113281 0.492188 -4.195312 0.546875 -4.25 C 0.597656 -4.300781 0.664062 -4.328125 0.75 -4.328125 C 0.820312 -4.328125 0.882812 -4.300781 0.9375 -4.25 C 1 -4.195312 1.03125 -4.113281 1.03125 -4 C 1.03125 -3.894531 1 -3.816406 0.9375 -3.765625 C 0.882812 -3.710938 0.820312 -3.6875 0.75 -3.6875 C 0.664062 -3.6875 0.597656 -3.710938 0.546875 -3.765625 C 0.492188 -3.816406 0.46875 -3.894531 0.46875 -4 Z M 0.46875 -4 "/></g></g><g transform="translate(29.990895, 26.2312)"><g><path d="M 2.546875 -0.859375 C 2.546875 -0.566406 2.4375 -0.335938 2.21875 -0.171875 C 2 -0.015625 1.691406 0.0625 1.296875 0.0625 C 0.878906 0.0625 0.550781 -0.00390625 0.3125 -0.140625 L 0.3125 -0.578125 C 0.46875 -0.503906 0.628906 -0.445312 0.796875 -0.40625 C 0.972656 -0.363281 1.140625 -0.34375 1.296875 -0.34375 C 1.546875 -0.34375 1.738281 -0.378906 1.875 -0.453125 C 2.007812 -0.535156 2.078125 -0.65625 2.078125 -0.8125 C 2.078125 -0.9375 2.023438 -1.039062 1.921875 -1.125 C 1.816406 -1.21875 1.609375 -1.320312 1.296875 -1.4375 C 1.003906 -1.550781 0.796875 -1.648438 0.671875 -1.734375 C 0.546875 -1.816406 0.453125 -1.90625 0.390625 -2 C 0.335938 -2.101562 0.3125 -2.226562 0.3125 -2.375 C 0.3125 -2.632812 0.414062 -2.835938 0.625 -2.984375 C 0.832031 -3.128906 1.117188 -3.203125 1.484375 -3.203125 C 1.816406 -3.203125 2.144531 -3.132812 2.46875 -3 L 2.296875 -2.609375 C 1.984375 -2.742188 1.695312 -2.8125 1.4375 -2.8125 C 1.21875 -2.8125 1.050781 -2.773438 0.9375 -2.703125 C 0.820312 -2.628906 0.765625 -2.53125 0.765625 -2.40625 C 0.765625 -2.320312 0.785156 -2.25 0.828125 -2.1875 C 0.867188 -2.132812 0.9375 -2.078125 1.03125 -2.015625 C 1.125 -1.960938 1.304688 -1.890625 1.578125 -1.796875 C 1.953125 -1.660156 2.207031 -1.519531 2.34375 -1.375 C 2.476562 -1.238281 2.546875 -1.066406 2.546875 -0.859375 Z M 2.546875 -0.859375 "/></g></g><g transform="translate(32.798154, 26.2312)"><g><path d="M 1.53125 -0.34375 C 1.613281 -0.34375 1.691406 -0.347656 1.765625 -0.359375 C 1.847656 -0.367188 1.910156 -0.378906 1.953125 -0.390625 L 1.953125 -0.03125 C 1.898438 0 1.820312 0.0195312 1.71875 0.03125 C 1.625 0.0507812 1.535156 0.0625 1.453125 0.0625 C 0.847656 0.0625 0.546875 -0.257812 0.546875 -0.90625 L 0.546875 -2.78125 L 0.09375 -2.78125 L 0.09375 -3.015625 L 0.546875 -3.203125 L 0.734375 -3.890625 L 1.015625 -3.890625 L 1.015625 -3.15625 L 1.9375 -3.15625 L 1.9375 -2.78125 L 1.015625 -2.78125 L 1.015625 -0.921875 C 1.015625 -0.734375 1.054688 -0.585938 1.140625 -0.484375 C 1.234375 -0.390625 1.363281 -0.34375 1.53125 -0.34375 Z M 1.53125 -0.34375 "/></g></g><g transform="translate(34.875583, 26.2312)"><g><path d="M 2.4375 0 L 2.34375 -0.453125 L 2.328125 -0.453125 C 2.171875 -0.253906 2.015625 -0.117188 1.859375 -0.046875 C 1.703125 0.0234375 1.503906 0.0625 1.265625 0.0625 C 0.953125 0.0625 0.707031 -0.015625 0.53125 -0.171875 C 0.351562 -0.335938 0.265625 -0.570312 0.265625 -0.875 C 0.265625 -1.507812 0.773438 -1.84375 1.796875 -1.875 L 2.328125 -1.890625 L 2.328125 -2.078125 C 2.328125 -2.328125 2.273438 -2.507812 2.171875 -2.625 C 2.066406 -2.75 1.894531 -2.8125 1.65625 -2.8125 C 1.394531 -2.8125 1.097656 -2.726562 0.765625 -2.5625 L 0.625 -2.9375 C 0.78125 -3.019531 0.945312 -3.082031 1.125 -3.125 C 1.3125 -3.175781 1.5 -3.203125 1.6875 -3.203125 C 2.0625 -3.203125 2.335938 -3.117188 2.515625 -2.953125 C 2.703125 -2.785156 2.796875 -2.519531 2.796875 -2.15625 L 2.796875 0 Z M 1.359375 -0.34375 C 1.660156 -0.34375 1.894531 -0.421875 2.0625 -0.578125 C 2.238281 -0.742188 2.328125 -0.972656 2.328125 -1.265625 L 2.328125 -1.546875 L 1.84375 -1.53125 C 1.46875 -1.519531 1.191406 -1.460938 1.015625 -1.359375 C 0.847656 -1.253906 0.765625 -1.085938 0.765625 -0.859375 C 0.765625 -0.691406 0.816406 -0.5625 0.921875 -0.46875 C 1.023438 -0.382812 1.171875 -0.34375 1.359375 -0.34375 Z M 1.359375 -0.34375 "/></g></g></g></svg>