<svg xmlns="http://www.w3.org/2000/svg" xmlns:xlink="http://www.w3.org/1999/xlink" width="180" zoomAndPan="magnify" viewBox="0 0 135 38.249999" height="51" preserveAspectRatio="xMidYMid meet" version="1.0"><defs><g/><clipPath id="67837365fa"><path d="M 22 8 L 133.699219 8 L 133.699219 20 L 22 20 Z M 22 8 " clip-rule="nonzero"/></clipPath><clipPath id="eb1b4405d1"><path d="M 2.035156 9.453125 L 24.101562 9.453125 L 24.101562 26.371094 L 2.035156 26.371094 Z M 2.035156 9.453125 " clip-rule="nonzero"/></clipPath></defs><g clip-path="url(#67837365fa)"><g fill="#217bbf" fill-opacity="1"><g transform="translate(22.131514, 19.42005)"><g><path d="M 5.375 0 L 3.140625 0 L 3.140625 -8.65625 L 0.296875 -8.65625 L 0.296875 -10.5 L 8.234375 -10.5 L 8.234375 -8.65625 L 5.375 -8.65625 Z M 5.375 0 "/></g></g><g transform="translate(30.650988, 19.42005)"><g><path d="M 4.4375 -8.203125 C 5.519531 -8.203125 6.347656 -7.96875 6.921875 -7.5 C 7.492188 -7.03125 7.78125 -6.316406 7.78125 -5.359375 L 7.78125 0 L 6.25 0 L 5.828125 -1.09375 L 5.765625 -1.09375 C 5.535156 -0.800781 5.300781 -0.5625 5.0625 -0.375 C 4.820312 -0.195312 4.546875 -0.0664062 4.234375 0.015625 C 3.921875 0.0976562 3.546875 0.140625 3.109375 0.140625 C 2.628906 0.140625 2.203125 0.0507812 1.828125 -0.125 C 1.453125 -0.3125 1.15625 -0.59375 0.9375 -0.96875 C 0.726562 -1.34375 0.625 -1.820312 0.625 -2.40625 C 0.625 -3.257812 0.921875 -3.882812 1.515625 -4.28125 C 2.117188 -4.6875 3.019531 -4.910156 4.21875 -4.953125 L 5.609375 -5 L 5.609375 -5.359375 C 5.609375 -5.773438 5.492188 -6.082031 5.265625 -6.28125 C 5.046875 -6.476562 4.742188 -6.578125 4.359375 -6.578125 C 3.960938 -6.578125 3.578125 -6.519531 3.203125 -6.40625 C 2.835938 -6.300781 2.46875 -6.164062 2.09375 -6 L 1.359375 -7.46875 C 1.785156 -7.695312 2.265625 -7.875 2.796875 -8 C 3.328125 -8.132812 3.875 -8.203125 4.4375 -8.203125 Z M 5.609375 -3.71875 L 4.75 -3.6875 C 4.039062 -3.675781 3.550781 -3.550781 3.28125 -3.3125 C 3.007812 -3.082031 2.875 -2.773438 2.875 -2.390625 C 2.875 -2.054688 2.96875 -1.816406 3.15625 -1.671875 C 3.351562 -1.523438 3.613281 -1.453125 3.9375 -1.453125 C 4.40625 -1.453125 4.800781 -1.59375 5.125 -1.875 C 5.445312 -2.15625 5.609375 -2.550781 5.609375 -3.0625 Z M 5.609375 -3.71875 "/></g></g><g transform="translate(39.536814, 19.42005)"><g><path d="M 4.53125 -1.609375 C 4.769531 -1.609375 5.003906 -1.628906 5.234375 -1.671875 C 5.460938 -1.722656 5.691406 -1.785156 5.921875 -1.859375 L 5.921875 -0.21875 C 5.679688 -0.113281 5.382812 -0.03125 5.03125 0.03125 C 4.6875 0.101562 4.3125 0.140625 3.90625 0.140625 C 3.425781 0.140625 2.992188 0.0625 2.609375 -0.09375 C 2.234375 -0.25 1.9375 -0.519531 1.71875 -0.90625 C 1.5 -1.289062 1.390625 -1.828125 1.390625 -2.515625 L 1.390625 -6.390625 L 0.34375 -6.390625 L 0.34375 -7.3125 L 1.546875 -8.046875 L 2.171875 -9.75 L 3.578125 -9.75 L 3.578125 -8.03125 L 5.828125 -8.03125 L 5.828125 -6.390625 L 3.578125 -6.390625 L 3.578125 -2.515625 C 3.578125 -2.210938 3.664062 -1.984375 3.84375 -1.828125 C 4.019531 -1.679688 4.25 -1.609375 4.53125 -1.609375 Z M 4.53125 -1.609375 "/></g></g><g transform="translate(45.922828, 19.42005)"><g><path d="M 3.34375 -8.03125 L 3.34375 0 L 1.15625 0 L 1.15625 -8.03125 Z M 2.25 -11.1875 C 2.570312 -11.1875 2.847656 -11.109375 3.078125 -10.953125 C 3.316406 -10.804688 3.4375 -10.523438 3.4375 -10.109375 C 3.4375 -9.703125 3.316406 -9.421875 3.078125 -9.265625 C 2.847656 -9.109375 2.570312 -9.03125 2.25 -9.03125 C 1.914062 -9.03125 1.632812 -9.109375 1.40625 -9.265625 C 1.175781 -9.421875 1.0625 -9.703125 1.0625 -10.109375 C 1.0625 -10.523438 1.175781 -10.804688 1.40625 -10.953125 C 1.632812 -11.109375 1.914062 -11.1875 2.25 -11.1875 Z M 2.25 -11.1875 "/></g></g><g transform="translate(50.412433, 19.42005)"><g><path d="M 4.4375 -8.203125 C 5.519531 -8.203125 6.347656 -7.96875 6.921875 -7.5 C 7.492188 -7.03125 7.78125 -6.316406 7.78125 -5.359375 L 7.78125 0 L 6.25 0 L 5.828125 -1.09375 L 5.765625 -1.09375 C 5.535156 -0.800781 5.300781 -0.5625 5.0625 -0.375 C 4.820312 -0.195312 4.546875 -0.0664062 4.234375 0.015625 C 3.921875 0.0976562 3.546875 0.140625 3.109375 0.140625 C 2.628906 0.140625 2.203125 0.0507812 1.828125 -0.125 C 1.453125 -0.3125 1.15625 -0.59375 0.9375 -0.96875 C 0.726562 -1.34375 0.625 -1.820312 0.625 -2.40625 C 0.625 -3.257812 0.921875 -3.882812 1.515625 -4.28125 C 2.117188 -4.6875 3.019531 -4.910156 4.21875 -4.953125 L 5.609375 -5 L 5.609375 -5.359375 C 5.609375 -5.773438 5.492188 -6.082031 5.265625 -6.28125 C 5.046875 -6.476562 4.742188 -6.578125 4.359375 -6.578125 C 3.960938 -6.578125 3.578125 -6.519531 3.203125 -6.40625 C 2.835938 -6.300781 2.46875 -6.164062 2.09375 -6 L 1.359375 -7.46875 C 1.785156 -7.695312 2.265625 -7.875 2.796875 -8 C 3.328125 -8.132812 3.875 -8.203125 4.4375 -8.203125 Z M 5.609375 -3.71875 L 4.75 -3.6875 C 4.039062 -3.675781 3.550781 -3.550781 3.28125 -3.3125 C 3.007812 -3.082031 2.875 -2.773438 2.875 -2.390625 C 2.875 -2.054688 2.96875 -1.816406 3.15625 -1.671875 C 3.351562 -1.523438 3.613281 -1.453125 3.9375 -1.453125 C 4.40625 -1.453125 4.800781 -1.59375 5.125 -1.875 C 5.445312 -2.15625 5.609375 -2.550781 5.609375 -3.0625 Z M 5.609375 -3.71875 "/></g></g><g transform="translate(59.298259, 19.42005)"><g><path d="M 5.71875 -8.1875 C 6.570312 -8.1875 7.257812 -7.953125 7.78125 -7.484375 C 8.300781 -7.015625 8.5625 -6.265625 8.5625 -5.234375 L 8.5625 0 L 6.375 0 L 6.375 -4.6875 C 6.375 -5.269531 6.269531 -5.707031 6.0625 -6 C 5.851562 -6.289062 5.523438 -6.4375 5.078125 -6.4375 C 4.410156 -6.4375 3.953125 -6.207031 3.703125 -5.75 C 3.460938 -5.289062 3.34375 -4.632812 3.34375 -3.78125 L 3.34375 0 L 1.15625 0 L 1.15625 -8.03125 L 2.828125 -8.03125 L 3.125 -7 L 3.234375 -7 C 3.410156 -7.28125 3.625 -7.503906 3.875 -7.671875 C 4.132812 -7.847656 4.421875 -7.976562 4.734375 -8.0625 C 5.046875 -8.144531 5.375 -8.1875 5.71875 -8.1875 Z M 5.71875 -8.1875 "/></g></g><g transform="translate(68.967073, 19.42005)"><g><path d="M 4.46875 -8.1875 C 5.207031 -8.1875 5.84375 -8.039062 6.375 -7.75 C 6.914062 -7.46875 7.332031 -7.054688 7.625 -6.515625 C 7.914062 -5.972656 8.0625 -5.3125 8.0625 -4.53125 L 8.0625 -3.46875 L 2.875 -3.46875 C 2.90625 -2.851562 3.09375 -2.367188 3.4375 -2.015625 C 3.78125 -1.660156 4.265625 -1.484375 4.890625 -1.484375 C 5.398438 -1.484375 5.867188 -1.535156 6.296875 -1.640625 C 6.722656 -1.742188 7.160156 -1.90625 7.609375 -2.125 L 7.609375 -0.421875 C 7.210938 -0.222656 6.796875 -0.0820312 6.359375 0 C 5.929688 0.09375 5.40625 0.140625 4.78125 0.140625 C 3.976562 0.140625 3.265625 -0.00390625 2.640625 -0.296875 C 2.023438 -0.597656 1.539062 -1.050781 1.1875 -1.65625 C 0.832031 -2.269531 0.65625 -3.035156 0.65625 -3.953125 C 0.65625 -4.898438 0.8125 -5.6875 1.125 -6.3125 C 1.445312 -6.9375 1.894531 -7.40625 2.46875 -7.71875 C 3.039062 -8.03125 3.707031 -8.1875 4.46875 -8.1875 Z M 4.484375 -6.625 C 4.054688 -6.625 3.703125 -6.488281 3.421875 -6.21875 C 3.140625 -5.945312 2.976562 -5.519531 2.9375 -4.9375 L 6.015625 -4.9375 C 6.003906 -5.257812 5.941406 -5.546875 5.828125 -5.796875 C 5.710938 -6.054688 5.546875 -6.257812 5.328125 -6.40625 C 5.109375 -6.550781 4.828125 -6.625 4.484375 -6.625 Z M 4.484375 -6.625 "/></g></g><g transform="translate(77.658948, 19.42005)"><g/></g><g transform="translate(81.480499, 19.42005)"><g><path d="M 3.6875 0.140625 C 2.789062 0.140625 2.0625 -0.207031 1.5 -0.90625 C 0.9375 -1.613281 0.65625 -2.644531 0.65625 -4 C 0.65625 -5.375 0.941406 -6.414062 1.515625 -7.125 C 2.085938 -7.832031 2.832031 -8.1875 3.75 -8.1875 C 4.132812 -8.1875 4.472656 -8.132812 4.765625 -8.03125 C 5.054688 -7.925781 5.304688 -7.785156 5.515625 -7.609375 C 5.734375 -7.429688 5.914062 -7.226562 6.0625 -7 L 6.140625 -7 C 6.109375 -7.15625 6.070312 -7.382812 6.03125 -7.6875 C 5.988281 -7.988281 5.96875 -8.296875 5.96875 -8.609375 L 5.96875 -11.1875 L 8.171875 -11.1875 L 8.171875 0 L 6.484375 0 L 6.0625 -1.046875 L 5.96875 -1.046875 C 5.832031 -0.828125 5.660156 -0.625 5.453125 -0.4375 C 5.242188 -0.257812 4.992188 -0.117188 4.703125 -0.015625 C 4.421875 0.0859375 4.082031 0.140625 3.6875 0.140625 Z M 4.46875 -1.609375 C 5.0625 -1.609375 5.484375 -1.785156 5.734375 -2.140625 C 5.984375 -2.492188 6.113281 -3.03125 6.125 -3.75 L 6.125 -3.984375 C 6.125 -4.765625 6.003906 -5.363281 5.765625 -5.78125 C 5.523438 -6.195312 5.078125 -6.40625 4.421875 -6.40625 C 3.941406 -6.40625 3.5625 -6.195312 3.28125 -5.78125 C 3.007812 -5.363281 2.875 -4.757812 2.875 -3.96875 C 2.875 -3.1875 3.007812 -2.597656 3.28125 -2.203125 C 3.5625 -1.804688 3.957031 -1.609375 4.46875 -1.609375 Z M 4.46875 -1.609375 "/></g></g><g transform="translate(90.790144, 19.42005)"><g><path d="M 8.453125 -4.03125 C 8.453125 -3.363281 8.359375 -2.769531 8.171875 -2.25 C 7.992188 -1.726562 7.734375 -1.289062 7.390625 -0.9375 C 7.054688 -0.582031 6.644531 -0.3125 6.15625 -0.125 C 5.675781 0.0507812 5.132812 0.140625 4.53125 0.140625 C 3.96875 0.140625 3.445312 0.0507812 2.96875 -0.125 C 2.5 -0.3125 2.09375 -0.582031 1.75 -0.9375 C 1.40625 -1.289062 1.132812 -1.726562 0.9375 -2.25 C 0.75 -2.769531 0.65625 -3.363281 0.65625 -4.03125 C 0.65625 -4.925781 0.8125 -5.679688 1.125 -6.296875 C 1.445312 -6.910156 1.898438 -7.378906 2.484375 -7.703125 C 3.066406 -8.023438 3.765625 -8.1875 4.578125 -8.1875 C 5.328125 -8.1875 5.992188 -8.023438 6.578125 -7.703125 C 7.160156 -7.378906 7.617188 -6.910156 7.953125 -6.296875 C 8.285156 -5.679688 8.453125 -4.925781 8.453125 -4.03125 Z M 2.890625 -4.03125 C 2.890625 -3.5 2.945312 -3.050781 3.0625 -2.6875 C 3.175781 -2.332031 3.351562 -2.0625 3.59375 -1.875 C 3.84375 -1.695312 4.164062 -1.609375 4.5625 -1.609375 C 4.945312 -1.609375 5.257812 -1.695312 5.5 -1.875 C 5.75 -2.0625 5.925781 -2.332031 6.03125 -2.6875 C 6.144531 -3.050781 6.203125 -3.5 6.203125 -4.03125 C 6.203125 -4.5625 6.144531 -5.003906 6.03125 -5.359375 C 5.925781 -5.710938 5.75 -5.976562 5.5 -6.15625 C 5.257812 -6.332031 4.941406 -6.421875 4.546875 -6.421875 C 3.972656 -6.421875 3.550781 -6.21875 3.28125 -5.8125 C 3.019531 -5.414062 2.890625 -4.820312 2.890625 -4.03125 Z M 2.890625 -4.03125 "/></g></g><g transform="translate(99.898655, 19.42005)"><g/></g><g transform="translate(103.720207, 19.42005)"><g><path d="M 3.0625 0 L 0 -8.03125 L 2.296875 -8.03125 L 3.84375 -3.453125 C 3.925781 -3.179688 3.992188 -2.894531 4.046875 -2.59375 C 4.097656 -2.300781 4.132812 -2.039062 4.15625 -1.8125 L 4.21875 -1.8125 C 4.226562 -2.0625 4.257812 -2.328125 4.3125 -2.609375 C 4.363281 -2.898438 4.4375 -3.179688 4.53125 -3.453125 L 6.078125 -8.03125 L 8.375 -8.03125 L 5.3125 0 Z M 3.0625 0 "/></g></g><g transform="translate(112.08883, 19.42005)"><g><path d="M 4.4375 -8.203125 C 5.519531 -8.203125 6.347656 -7.96875 6.921875 -7.5 C 7.492188 -7.03125 7.78125 -6.316406 7.78125 -5.359375 L 7.78125 0 L 6.25 0 L 5.828125 -1.09375 L 5.765625 -1.09375 C 5.535156 -0.800781 5.300781 -0.5625 5.0625 -0.375 C 4.820312 -0.195312 4.546875 -0.0664062 4.234375 0.015625 C 3.921875 0.0976562 3.546875 0.140625 3.109375 0.140625 C 2.628906 0.140625 2.203125 0.0507812 1.828125 -0.125 C 1.453125 -0.3125 1.15625 -0.59375 0.9375 -0.96875 C 0.726562 -1.34375 0.625 -1.820312 0.625 -2.40625 C 0.625 -3.257812 0.921875 -3.882812 1.515625 -4.28125 C 2.117188 -4.6875 3.019531 -4.910156 4.21875 -4.953125 L 5.609375 -5 L 5.609375 -5.359375 C 5.609375 -5.773438 5.492188 -6.082031 5.265625 -6.28125 C 5.046875 -6.476562 4.742188 -6.578125 4.359375 -6.578125 C 3.960938 -6.578125 3.578125 -6.519531 3.203125 -6.40625 C 2.835938 -6.300781 2.46875 -6.164062 2.09375 -6 L 1.359375 -7.46875 C 1.785156 -7.695312 2.265625 -7.875 2.796875 -8 C 3.328125 -8.132812 3.875 -8.203125 4.4375 -8.203125 Z M 5.609375 -3.71875 L 4.75 -3.6875 C 4.039062 -3.675781 3.550781 -3.550781 3.28125 -3.3125 C 3.007812 -3.082031 2.875 -2.773438 2.875 -2.390625 C 2.875 -2.054688 2.96875 -1.816406 3.15625 -1.671875 C 3.351562 -1.523438 3.613281 -1.453125 3.9375 -1.453125 C 4.40625 -1.453125 4.800781 -1.59375 5.125 -1.875 C 5.445312 -2.15625 5.609375 -2.550781 5.609375 -3.0625 Z M 5.609375 -3.71875 "/></g></g><g transform="translate(120.974656, 19.42005)"><g><path d="M 3.34375 0 L 1.15625 0 L 1.15625 -11.1875 L 3.34375 -11.1875 Z M 3.34375 0 "/></g></g><g transform="translate(125.464261, 19.42005)"><g><path d="M 4.46875 -8.1875 C 5.207031 -8.1875 5.84375 -8.039062 6.375 -7.75 C 6.914062 -7.46875 7.332031 -7.054688 7.625 -6.515625 C 7.914062 -5.972656 8.0625 -5.3125 8.0625 -4.53125 L 8.0625 -3.46875 L 2.875 -3.46875 C 2.90625 -2.851562 3.09375 -2.367188 3.4375 -2.015625 C 3.78125 -1.660156 4.265625 -1.484375 4.890625 -1.484375 C 5.398438 -1.484375 5.867188 -1.535156 6.296875 -1.640625 C 6.722656 -1.742188 7.160156 -1.90625 7.609375 -2.125 L 7.609375 -0.421875 C 7.210938 -0.222656 6.796875 -0.0820312 6.359375 0 C 5.929688 0.09375 5.40625 0.140625 4.78125 0.140625 C 3.976562 0.140625 3.265625 -0.00390625 2.640625 -0.296875 C 2.023438 -0.597656 1.539062 -1.050781 1.1875 -1.65625 C 0.832031 -2.269531 0.65625 -3.035156 0.65625 -3.953125 C 0.65625 -4.898438 0.8125 -5.6875 1.125 -6.3125 C 1.445312 -6.9375 1.894531 -7.40625 2.46875 -7.71875 C 3.039062 -8.03125 3.707031 -8.1875 4.46875 -8.1875 Z M 4.484375 -6.625 C 4.054688 -6.625 3.703125 -6.488281 3.421875 -6.21875 C 3.140625 -5.945312 2.976562 -5.519531 2.9375 -4.9375 L 6.015625 -4.9375 C 6.003906 -5.257812 5.941406 -5.546875 5.828125 -5.796875 C 5.710938 -6.054688 5.546875 -6.257812 5.328125 -6.40625 C 5.109375 -6.550781 4.828125 -6.625 4.484375 -6.625 Z M 4.484375 -6.625 "/></g></g></g></g><g clip-path="url(#eb1b4405d1)"><path fill="#217bbf" d="M 11.992188 13.167969 C 12.210938 12.742188 12.363281 12.40625 12.546875 12.089844 C 13.269531 10.859375 14.253906 9.941406 15.710938 9.703125 C 16.898438 9.507812 18.050781 9.710938 19.121094 10.277344 C 20.535156 11.027344 21.347656 12.230469 21.667969 13.769531 C 21.925781 14.996094 21.785156 16.207031 21.394531 17.390625 C 21.347656 17.527344 21.289062 17.652344 21.230469 17.804688 C 19.496094 17.804688 17.777344 17.804688 15.996094 17.804688 C 15.875 17.574219 15.726562 17.316406 15.59375 17.050781 C 15.398438 16.671875 15.203125 16.292969 15.019531 15.910156 C 14.863281 15.582031 14.648438 15.320312 14.261719 15.34375 C 13.882812 15.371094 13.683594 15.625 13.558594 15.976562 C 13.210938 16.945312 12.839844 17.90625 12.472656 18.871094 C 12.441406 18.953125 12.40625 19.03125 12.34375 19.179688 C 12.269531 19.035156 12.207031 18.945312 12.171875 18.84375 C 11.734375 17.53125 11.300781 16.21875 10.867188 14.902344 C 10.835938 14.820312 10.816406 14.730469 10.785156 14.648438 C 10.664062 14.34375 10.453125 14.132812 10.113281 14.132812 C 9.78125 14.128906 9.542969 14.304688 9.417969 14.617188 C 9.097656 15.40625 8.78125 16.199219 8.457031 16.988281 C 8.351562 17.25 8.238281 17.507812 8.101562 17.828125 C 7.902344 17.828125 7.695312 17.828125 7.484375 17.828125 C 6.96875 17.832031 6.453125 17.816406 5.941406 17.839844 C 5.53125 17.855469 5.273438 18.136719 5.261719 18.519531 C 5.253906 18.878906 5.480469 19.164062 5.84375 19.238281 C 5.945312 19.261719 6.054688 19.257812 6.164062 19.257812 C 6.925781 19.257812 7.691406 19.246094 8.453125 19.261719 C 8.910156 19.269531 9.1875 19.070312 9.34375 18.652344 C 9.546875 18.125 9.769531 17.601562 10.019531 16.980469 C 10.132812 17.292969 10.214844 17.515625 10.289062 17.738281 C 10.710938 19.019531 11.136719 20.300781 11.554688 21.582031 C 11.664062 21.910156 11.835938 22.152344 12.21875 22.175781 C 12.59375 22.195312 12.820312 22.050781 12.980469 21.644531 C 13.273438 20.882812 13.554688 20.113281 13.839844 19.351562 C 14.011719 18.886719 14.1875 18.421875 14.390625 17.878906 C 14.535156 18.160156 14.664062 18.363281 14.746094 18.585938 C 14.9375 19.089844 15.28125 19.269531 15.816406 19.265625 C 18.25 19.246094 20.6875 19.257812 23.121094 19.257812 C 23.296875 19.257812 23.476562 19.25 23.652344 19.269531 C 23.925781 19.308594 24.121094 19.527344 24.121094 19.769531 C 24.125 20.011719 23.933594 20.234375 23.660156 20.28125 C 23.523438 20.304688 23.378906 20.292969 23.238281 20.292969 C 22.222656 20.292969 21.210938 20.300781 20.199219 20.292969 C 19.96875 20.289062 19.804688 20.34375 19.652344 20.535156 C 18.042969 22.59375 16.023438 24.175781 13.828125 25.554688 C 13.332031 25.867188 12.816406 26.144531 12.3125 26.445312 C 12.113281 26.5625 11.929688 26.578125 11.71875 26.460938 C 9.011719 24.953125 6.515625 23.183594 4.535156 20.769531 C 3.496094 19.503906 2.695312 18.109375 2.367188 16.488281 C 2.042969 14.902344 2.171875 13.363281 3.050781 11.96875 C 3.945312 10.546875 5.300781 9.839844 6.945312 9.667969 C 8.984375 9.453125 10.433594 10.363281 11.449219 12.070312 C 11.550781 12.238281 11.632812 12.417969 11.71875 12.59375 C 11.800781 12.75 11.871094 12.910156 11.992188 13.167969 Z M 11.992188 13.167969 " fill-opacity="1" fill-rule="nonzero"/></g><g fill="#217bbf" fill-opacity="1"><g transform="translate(24.143211, 26.470128)"><g><path d="M 3.9375 0 L 3.375 0 L 1.03125 -3.609375 L 1 -3.609375 C 1.03125 -3.179688 1.046875 -2.789062 1.046875 -2.4375 L 1.046875 0 L 0.59375 0 L 0.59375 -4.296875 L 1.15625 -4.296875 L 3.5 -0.703125 L 3.515625 -0.703125 C 3.515625 -0.753906 3.503906 -0.921875 3.484375 -1.203125 C 3.472656 -1.492188 3.472656 -1.703125 3.484375 -1.828125 L 3.484375 -4.296875 L 3.9375 -4.296875 Z M 3.9375 0 "/></g></g><g transform="translate(28.678646, 26.470128)"><g><path d="M 0.96875 -3.21875 L 0.96875 -1.125 C 0.96875 -0.863281 1.023438 -0.664062 1.140625 -0.53125 C 1.265625 -0.40625 1.457031 -0.34375 1.71875 -0.34375 C 2.050781 -0.34375 2.296875 -0.4375 2.453125 -0.625 C 2.609375 -0.8125 2.6875 -1.113281 2.6875 -1.53125 L 2.6875 -3.21875 L 3.171875 -3.21875 L 3.171875 0 L 2.765625 0 L 2.703125 -0.4375 L 2.671875 -0.4375 C 2.578125 -0.269531 2.441406 -0.144531 2.265625 -0.0625 C 2.085938 0.0195312 1.882812 0.0625 1.65625 0.0625 C 1.257812 0.0625 0.960938 -0.03125 0.765625 -0.21875 C 0.578125 -0.40625 0.484375 -0.703125 0.484375 -1.109375 L 0.484375 -3.21875 Z M 0.96875 -3.21875 "/></g></g><g transform="translate(32.371032, 26.470128)"><g><path d="M 1.5625 -0.34375 C 1.644531 -0.34375 1.722656 -0.347656 1.796875 -0.359375 C 1.878906 -0.367188 1.945312 -0.382812 2 -0.40625 L 2 -0.03125 C 1.945312 0 1.867188 0.0195312 1.765625 0.03125 C 1.660156 0.0507812 1.566406 0.0625 1.484375 0.0625 C 0.859375 0.0625 0.546875 -0.265625 0.546875 -0.921875 L 0.546875 -2.84375 L 0.09375 -2.84375 L 0.09375 -3.078125 L 0.546875 -3.28125 L 0.765625 -3.96875 L 1.046875 -3.96875 L 1.046875 -3.21875 L 1.96875 -3.21875 L 1.96875 -2.84375 L 1.046875 -2.84375 L 1.046875 -0.953125 C 1.046875 -0.753906 1.085938 -0.601562 1.171875 -0.5 C 1.265625 -0.394531 1.394531 -0.34375 1.5625 -0.34375 Z M 1.5625 -0.34375 "/></g></g><g transform="translate(34.494814, 26.470128)"><g><path d="M 1.984375 -3.28125 C 2.128906 -3.28125 2.257812 -3.269531 2.375 -3.25 L 2.296875 -2.796875 C 2.171875 -2.816406 2.054688 -2.828125 1.953125 -2.828125 C 1.691406 -2.828125 1.46875 -2.722656 1.28125 -2.515625 C 1.09375 -2.304688 1 -2.046875 1 -1.734375 L 1 0 L 0.515625 0 L 0.515625 -3.21875 L 0.921875 -3.21875 L 0.96875 -2.625 L 1 -2.625 C 1.113281 -2.832031 1.253906 -2.992188 1.421875 -3.109375 C 1.597656 -3.222656 1.785156 -3.28125 1.984375 -3.28125 Z M 1.984375 -3.28125 "/></g></g><g transform="translate(36.950529, 26.470128)"><g><path d="M 1 0 L 0.515625 0 L 0.515625 -3.21875 L 1 -3.21875 Z M 0.46875 -4.09375 C 0.46875 -4.207031 0.492188 -4.289062 0.546875 -4.34375 C 0.609375 -4.394531 0.679688 -4.421875 0.765625 -4.421875 C 0.835938 -4.421875 0.898438 -4.390625 0.953125 -4.328125 C 1.015625 -4.273438 1.046875 -4.195312 1.046875 -4.09375 C 1.046875 -3.976562 1.015625 -3.894531 0.953125 -3.84375 C 0.898438 -3.789062 0.835938 -3.765625 0.765625 -3.765625 C 0.679688 -3.765625 0.609375 -3.789062 0.546875 -3.84375 C 0.492188 -3.894531 0.46875 -3.976562 0.46875 -4.09375 Z M 0.46875 -4.09375 "/></g></g><g transform="translate(38.472133, 26.470128)"><g><path d="M 1.796875 0.0625 C 1.335938 0.0625 0.976562 -0.078125 0.71875 -0.359375 C 0.46875 -0.648438 0.34375 -1.0625 0.34375 -1.59375 C 0.34375 -2.125 0.46875 -2.535156 0.71875 -2.828125 C 0.976562 -3.128906 1.347656 -3.28125 1.828125 -3.28125 C 1.984375 -3.28125 2.140625 -3.257812 2.296875 -3.21875 C 2.453125 -3.1875 2.578125 -3.148438 2.671875 -3.109375 L 2.515625 -2.703125 C 2.410156 -2.742188 2.289062 -2.773438 2.15625 -2.796875 C 2.03125 -2.828125 1.921875 -2.84375 1.828125 -2.84375 C 1.171875 -2.84375 0.84375 -2.425781 0.84375 -1.59375 C 0.84375 -1.195312 0.921875 -0.890625 1.078125 -0.671875 C 1.242188 -0.460938 1.484375 -0.359375 1.796875 -0.359375 C 2.054688 -0.359375 2.328125 -0.421875 2.609375 -0.546875 L 2.609375 -0.109375 C 2.398438 0.00390625 2.128906 0.0625 1.796875 0.0625 Z M 1.796875 0.0625 "/></g></g><g transform="translate(41.336155, 26.470128)"><g><path d="M 1 0 L 0.515625 0 L 0.515625 -3.21875 L 1 -3.21875 Z M 0.46875 -4.09375 C 0.46875 -4.207031 0.492188 -4.289062 0.546875 -4.34375 C 0.609375 -4.394531 0.679688 -4.421875 0.765625 -4.421875 C 0.835938 -4.421875 0.898438 -4.390625 0.953125 -4.328125 C 1.015625 -4.273438 1.046875 -4.195312 1.046875 -4.09375 C 1.046875 -3.976562 1.015625 -3.894531 0.953125 -3.84375 C 0.898438 -3.789062 0.835938 -3.765625 0.765625 -3.765625 C 0.679688 -3.765625 0.609375 -3.789062 0.546875 -3.84375 C 0.492188 -3.894531 0.46875 -3.976562 0.46875 -4.09375 Z M 0.46875 -4.09375 "/></g></g><g transform="translate(42.857758, 26.470128)"><g><path d="M 3.296875 -1.609375 C 3.296875 -1.085938 3.160156 -0.675781 2.890625 -0.375 C 2.628906 -0.0820312 2.265625 0.0625 1.796875 0.0625 C 1.515625 0.0625 1.257812 -0.00390625 1.03125 -0.140625 C 0.8125 -0.273438 0.640625 -0.46875 0.515625 -0.71875 C 0.398438 -0.976562 0.34375 -1.273438 0.34375 -1.609375 C 0.34375 -2.140625 0.472656 -2.550781 0.734375 -2.84375 C 0.992188 -3.132812 1.359375 -3.28125 1.828125 -3.28125 C 2.273438 -3.28125 2.628906 -3.128906 2.890625 -2.828125 C 3.160156 -2.523438 3.296875 -2.117188 3.296875 -1.609375 Z M 0.84375 -1.609375 C 0.84375 -1.203125 0.925781 -0.890625 1.09375 -0.671875 C 1.257812 -0.453125 1.5 -0.34375 1.8125 -0.34375 C 2.132812 -0.34375 2.378906 -0.453125 2.546875 -0.671875 C 2.710938 -0.890625 2.796875 -1.203125 2.796875 -1.609375 C 2.796875 -2.015625 2.710938 -2.320312 2.546875 -2.53125 C 2.378906 -2.75 2.132812 -2.859375 1.8125 -2.859375 C 1.488281 -2.859375 1.242188 -2.753906 1.078125 -2.546875 C 0.921875 -2.335938 0.84375 -2.023438 0.84375 -1.609375 Z M 0.84375 -1.609375 "/></g></g><g transform="translate(46.491394, 26.470128)"><g><path d="M 2.71875 0 L 2.71875 -2.078125 C 2.71875 -2.335938 2.65625 -2.53125 2.53125 -2.65625 C 2.414062 -2.789062 2.234375 -2.859375 1.984375 -2.859375 C 1.640625 -2.859375 1.390625 -2.765625 1.234375 -2.578125 C 1.078125 -2.398438 1 -2.101562 1 -1.6875 L 1 0 L 0.515625 0 L 0.515625 -3.21875 L 0.90625 -3.21875 L 1 -2.78125 L 1.015625 -2.78125 C 1.117188 -2.9375 1.257812 -3.054688 1.4375 -3.140625 C 1.613281 -3.234375 1.8125 -3.28125 2.03125 -3.28125 C 2.425781 -3.28125 2.71875 -3.1875 2.90625 -3 C 3.101562 -2.8125 3.203125 -2.507812 3.203125 -2.09375 L 3.203125 0 Z M 2.71875 0 "/></g></g><g transform="translate(50.18378, 26.470128)"><g><path d="M 1 0 L 0.515625 0 L 0.515625 -3.21875 L 1 -3.21875 Z M 0.46875 -4.09375 C 0.46875 -4.207031 0.492188 -4.289062 0.546875 -4.34375 C 0.609375 -4.394531 0.679688 -4.421875 0.765625 -4.421875 C 0.835938 -4.421875 0.898438 -4.390625 0.953125 -4.328125 C 1.015625 -4.273438 1.046875 -4.195312 1.046875 -4.09375 C 1.046875 -3.976562 1.015625 -3.894531 0.953125 -3.84375 C 0.898438 -3.789062 0.835938 -3.765625 0.765625 -3.765625 C 0.679688 -3.765625 0.609375 -3.789062 0.546875 -3.84375 C 0.492188 -3.894531 0.46875 -3.976562 0.46875 -4.09375 Z M 0.46875 -4.09375 "/></g></g><g transform="translate(51.705383, 26.470128)"><g><path d="M 2.59375 -0.875 C 2.59375 -0.570312 2.476562 -0.335938 2.25 -0.171875 C 2.03125 -0.015625 1.71875 0.0625 1.3125 0.0625 C 0.882812 0.0625 0.550781 -0.00390625 0.3125 -0.140625 L 0.3125 -0.59375 C 0.46875 -0.519531 0.632812 -0.457031 0.8125 -0.40625 C 0.988281 -0.363281 1.160156 -0.34375 1.328125 -0.34375 C 1.585938 -0.34375 1.785156 -0.382812 1.921875 -0.46875 C 2.054688 -0.550781 2.125 -0.675781 2.125 -0.84375 C 2.125 -0.96875 2.066406 -1.070312 1.953125 -1.15625 C 1.847656 -1.25 1.640625 -1.351562 1.328125 -1.46875 C 1.023438 -1.582031 0.8125 -1.679688 0.6875 -1.765625 C 0.5625 -1.847656 0.46875 -1.941406 0.40625 -2.046875 C 0.34375 -2.148438 0.3125 -2.273438 0.3125 -2.421875 C 0.3125 -2.691406 0.414062 -2.898438 0.625 -3.046875 C 0.84375 -3.203125 1.140625 -3.28125 1.515625 -3.28125 C 1.859375 -3.28125 2.195312 -3.207031 2.53125 -3.0625 L 2.359375 -2.671875 C 2.035156 -2.804688 1.738281 -2.875 1.46875 -2.875 C 1.238281 -2.875 1.066406 -2.835938 0.953125 -2.765625 C 0.835938 -2.691406 0.78125 -2.59375 0.78125 -2.46875 C 0.78125 -2.375 0.800781 -2.296875 0.84375 -2.234375 C 0.882812 -2.179688 0.953125 -2.125 1.046875 -2.0625 C 1.148438 -2.007812 1.34375 -1.929688 1.625 -1.828125 C 2 -1.691406 2.253906 -1.550781 2.390625 -1.40625 C 2.523438 -1.269531 2.59375 -1.09375 2.59375 -0.875 Z M 2.59375 -0.875 "/></g></g><g transform="translate(54.57528, 26.470128)"><g><path d="M 1.5625 -0.34375 C 1.644531 -0.34375 1.722656 -0.347656 1.796875 -0.359375 C 1.878906 -0.367188 1.945312 -0.382812 2 -0.40625 L 2 -0.03125 C 1.945312 0 1.867188 0.0195312 1.765625 0.03125 C 1.660156 0.0507812 1.566406 0.0625 1.484375 0.0625 C 0.859375 0.0625 0.546875 -0.265625 0.546875 -0.921875 L 0.546875 -2.84375 L 0.09375 -2.84375 L 0.09375 -3.078125 L 0.546875 -3.28125 L 0.765625 -3.96875 L 1.046875 -3.96875 L 1.046875 -3.21875 L 1.96875 -3.21875 L 1.96875 -2.84375 L 1.046875 -2.84375 L 1.046875 -0.953125 C 1.046875 -0.753906 1.085938 -0.601562 1.171875 -0.5 C 1.265625 -0.394531 1.394531 -0.34375 1.5625 -0.34375 Z M 1.5625 -0.34375 "/></g></g><g transform="translate(56.699063, 26.470128)"><g><path d="M 2.5 0 L 2.40625 -0.453125 L 2.375 -0.453125 C 2.21875 -0.253906 2.054688 -0.117188 1.890625 -0.046875 C 1.734375 0.0234375 1.535156 0.0625 1.296875 0.0625 C 0.972656 0.0625 0.722656 -0.0195312 0.546875 -0.1875 C 0.367188 -0.351562 0.28125 -0.585938 0.28125 -0.890625 C 0.28125 -1.535156 0.796875 -1.875 1.828125 -1.90625 L 2.375 -1.9375 L 2.375 -2.125 C 2.375 -2.382812 2.320312 -2.570312 2.21875 -2.6875 C 2.113281 -2.8125 1.941406 -2.875 1.703125 -2.875 C 1.429688 -2.875 1.125 -2.789062 0.78125 -2.625 L 0.640625 -3 C 0.796875 -3.082031 0.96875 -3.144531 1.15625 -3.1875 C 1.34375 -3.238281 1.535156 -3.265625 1.734375 -3.265625 C 2.109375 -3.265625 2.390625 -3.179688 2.578125 -3.015625 C 2.765625 -2.847656 2.859375 -2.578125 2.859375 -2.203125 L 2.859375 0 Z M 1.390625 -0.34375 C 1.691406 -0.34375 1.929688 -0.425781 2.109375 -0.59375 C 2.285156 -0.757812 2.375 -0.992188 2.375 -1.296875 L 2.375 -1.578125 L 1.890625 -1.5625 C 1.492188 -1.550781 1.207031 -1.488281 1.03125 -1.375 C 0.863281 -1.269531 0.78125 -1.109375 0.78125 -0.890625 C 0.78125 -0.710938 0.832031 -0.578125 0.9375 -0.484375 C 1.050781 -0.390625 1.203125 -0.34375 1.390625 -0.34375 Z M 1.390625 -0.34375 "/></g></g></g></svg>