<svg xmlns="http://www.w3.org/2000/svg" xmlns:xlink="http://www.w3.org/1999/xlink" width="180" zoomAndPan="magnify" viewBox="0 0 135 38.249999" height="51" preserveAspectRatio="xMidYMid meet" version="1.0"><defs><g/><clipPath id="6c47a7005c"><path d="M 19 13 L 29.324219 13 L 29.324219 30.75 L 19 30.75 Z M 19 13 " clip-rule="nonzero"/></clipPath><clipPath id="511db1b780"><path d="M 5.050781 13 L 15 13 L 15 30.75 L 5.050781 30.75 Z M 5.050781 13 " clip-rule="nonzero"/></clipPath><clipPath id="24cae183d0"><path d="M 18 6.476562 L 27 6.476562 L 27 15 L 18 15 Z M 18 6.476562 " clip-rule="nonzero"/></clipPath><clipPath id="5fd86cbdf5"><path d="M 12 6.476562 L 18 6.476562 L 18 11 L 12 11 Z M 12 6.476562 " clip-rule="nonzero"/></clipPath><clipPath id="d93f731582"><path d="M 10 6.476562 L 12 6.476562 L 12 10 L 10 10 Z M 10 6.476562 " clip-rule="nonzero"/></clipPath></defs><g fill="#9f9e9e" fill-opacity="1"><g transform="translate(34.305798, 17.478951)"><g><path d="M 2.5625 -1.3125 L 2.5625 -6.65625 L 1.640625 -6.65625 C 1.460938 -6.65625 1.375 -6.535156 1.375 -6.296875 L 1.375 -5.734375 L 0.171875 -5.828125 L 0.171875 -7.828125 L 6.328125 -7.828125 L 6.328125 -5.828125 L 5.125 -5.734375 L 5.125 -6.296875 C 5.125 -6.429688 5.101562 -6.523438 5.0625 -6.578125 C 5.03125 -6.628906 4.9375 -6.65625 4.78125 -6.65625 L 3.984375 -6.65625 L 3.984375 -1.03125 L 4.921875 -1 L 4.921875 0 L 1.59375 0 L 1.59375 -0.953125 L 2.21875 -0.984375 C 2.445312 -1.015625 2.5625 -1.125 2.5625 -1.3125 Z M 2.5625 -1.3125 "/></g></g></g><g fill="#9f9e9e" fill-opacity="1"><g transform="translate(40.814199, 17.478951)"><g><path d="M 5.671875 -5.6875 L 5.671875 -1.3125 C 5.671875 -1.1875 5.691406 -1.097656 5.734375 -1.046875 C 5.773438 -0.992188 5.851562 -0.96875 5.96875 -0.96875 L 6.34375 -0.9375 L 6.34375 0 L 4.46875 0 L 4.46875 -0.6875 L 4.4375 -0.6875 C 4.039062 -0.125 3.503906 0.15625 2.828125 0.15625 C 2.023438 0.15625 1.429688 -0.0976562 1.046875 -0.609375 C 0.660156 -1.117188 0.46875 -1.816406 0.46875 -2.703125 C 0.46875 -3.773438 0.726562 -4.609375 1.25 -5.203125 C 1.769531 -5.796875 2.546875 -6.09375 3.578125 -6.09375 C 4.242188 -6.09375 4.941406 -5.957031 5.671875 -5.6875 Z M 4.3125 -1.875 L 4.3125 -4.921875 C 4.09375 -5.023438 3.789062 -5.078125 3.40625 -5.078125 C 2.875 -5.078125 2.488281 -4.863281 2.25 -4.4375 C 2.019531 -4.007812 1.90625 -3.445312 1.90625 -2.75 C 1.90625 -1.476562 2.3125 -0.84375 3.125 -0.84375 C 3.46875 -0.84375 3.75 -0.945312 3.96875 -1.15625 C 4.195312 -1.363281 4.3125 -1.601562 4.3125 -1.875 Z M 4.3125 -1.875 "/></g></g></g><g fill="#9f9e9e" fill-opacity="1"><g transform="translate(47.487368, 17.478951)"><g><path d="M 1.6875 -7.171875 L 2.453125 -7.171875 L 2.453125 -5.921875 L 4.03125 -5.921875 L 3.90625 -4.9375 L 2.453125 -4.9375 L 2.453125 -1.828125 C 2.453125 -1.484375 2.515625 -1.242188 2.640625 -1.109375 C 2.765625 -0.972656 2.957031 -0.90625 3.21875 -0.90625 C 3.488281 -0.90625 3.757812 -0.988281 4.03125 -1.15625 L 4.375 -0.25 C 3.976562 0.03125 3.476562 0.171875 2.875 0.171875 C 2.53125 0.171875 2.234375 0.125 1.984375 0.03125 C 1.742188 -0.0625 1.5625 -0.160156 1.4375 -0.265625 C 1.320312 -0.378906 1.234375 -0.539062 1.171875 -0.75 C 1.109375 -0.96875 1.070312 -1.132812 1.0625 -1.25 C 1.0625 -1.375 1.0625 -1.550781 1.0625 -1.78125 L 1.0625 -4.9375 L 0.21875 -4.9375 L 0.34375 -5.78125 C 0.707031 -5.8125 0.984375 -5.941406 1.171875 -6.171875 C 1.359375 -6.410156 1.53125 -6.742188 1.6875 -7.171875 Z M 1.6875 -7.171875 "/></g></g></g><g fill="#9f9e9e" fill-opacity="1"><g transform="translate(51.924377, 17.478951)"><g><path d="M 2.515625 -5.921875 L 2.515625 -0.96875 L 3.1875 -0.9375 L 3.1875 0 L 0.390625 0 L 0.390625 -0.890625 L 0.78125 -0.921875 C 1.007812 -0.953125 1.125 -1.082031 1.125 -1.3125 L 1.125 -4.578125 C 1.125 -4.710938 1.097656 -4.800781 1.046875 -4.84375 C 1.003906 -4.894531 0.929688 -4.921875 0.828125 -4.921875 L 0.40625 -4.9375 L 0.40625 -5.921875 Z M 1.03125 -6.921875 C 0.863281 -7.085938 0.78125 -7.296875 0.78125 -7.546875 C 0.78125 -7.804688 0.863281 -8.019531 1.03125 -8.1875 C 1.195312 -8.351562 1.410156 -8.4375 1.671875 -8.4375 C 1.941406 -8.4375 2.160156 -8.351562 2.328125 -8.1875 C 2.503906 -8.019531 2.59375 -7.804688 2.59375 -7.546875 C 2.59375 -7.296875 2.503906 -7.085938 2.328125 -6.921875 C 2.160156 -6.765625 1.941406 -6.6875 1.671875 -6.6875 C 1.410156 -6.6875 1.195312 -6.765625 1.03125 -6.921875 Z M 1.03125 -6.921875 "/></g></g></g><g fill="#9f9e9e" fill-opacity="1"><g transform="translate(55.408075, 17.478951)"><g><path d="M 5.671875 -5.6875 L 5.671875 -1.3125 C 5.671875 -1.1875 5.691406 -1.097656 5.734375 -1.046875 C 5.773438 -0.992188 5.851562 -0.96875 5.96875 -0.96875 L 6.34375 -0.9375 L 6.34375 0 L 4.46875 0 L 4.46875 -0.6875 L 4.4375 -0.6875 C 4.039062 -0.125 3.503906 0.15625 2.828125 0.15625 C 2.023438 0.15625 1.429688 -0.0976562 1.046875 -0.609375 C 0.660156 -1.117188 0.46875 -1.816406 0.46875 -2.703125 C 0.46875 -3.773438 0.726562 -4.609375 1.25 -5.203125 C 1.769531 -5.796875 2.546875 -6.09375 3.578125 -6.09375 C 4.242188 -6.09375 4.941406 -5.957031 5.671875 -5.6875 Z M 4.3125 -1.875 L 4.3125 -4.921875 C 4.09375 -5.023438 3.789062 -5.078125 3.40625 -5.078125 C 2.875 -5.078125 2.488281 -4.863281 2.25 -4.4375 C 2.019531 -4.007812 1.90625 -3.445312 1.90625 -2.75 C 1.90625 -1.476562 2.3125 -0.84375 3.125 -0.84375 C 3.46875 -0.84375 3.75 -0.945312 3.96875 -1.15625 C 4.195312 -1.363281 4.3125 -1.601562 4.3125 -1.875 Z M 4.3125 -1.875 "/></g></g></g><g fill="#9f9e9e" fill-opacity="1"><g transform="translate(62.081244, 17.478951)"><g><path d="M 0.3125 -4.984375 L 0.3125 -5.921875 L 2.3125 -5.921875 L 2.3125 -5.15625 C 2.507812 -5.445312 2.773438 -5.675781 3.109375 -5.84375 C 3.453125 -6.007812 3.820312 -6.09375 4.21875 -6.09375 C 4.8125 -6.09375 5.269531 -5.921875 5.59375 -5.578125 C 5.914062 -5.242188 6.078125 -4.734375 6.078125 -4.046875 L 6.078125 -0.96875 L 6.75 -0.9375 L 6.75 0 L 3.953125 0 L 3.953125 -0.890625 L 4.34375 -0.921875 C 4.457031 -0.941406 4.539062 -0.976562 4.59375 -1.03125 C 4.65625 -1.082031 4.6875 -1.175781 4.6875 -1.3125 L 4.6875 -3.734375 C 4.6875 -4.171875 4.617188 -4.492188 4.484375 -4.703125 C 4.347656 -4.910156 4.09375 -5.015625 3.71875 -5.015625 C 3.351562 -5.015625 3.054688 -4.894531 2.828125 -4.65625 C 2.609375 -4.425781 2.5 -4.148438 2.5 -3.828125 L 2.5 -0.96875 L 3.171875 -0.9375 L 3.171875 0 L 0.375 0 L 0.375 -0.890625 L 0.765625 -0.921875 C 0.878906 -0.941406 0.960938 -0.976562 1.015625 -1.03125 C 1.078125 -1.082031 1.109375 -1.175781 1.109375 -1.3125 L 1.109375 -4.578125 C 1.109375 -4.816406 1.007812 -4.9375 0.8125 -4.9375 Z M 0.3125 -4.984375 "/></g></g></g><g fill="#9f9e9e" fill-opacity="1"><g transform="translate(69.142798, 17.478951)"><g><path d="M 3.34375 -6.09375 C 3.925781 -6.09375 4.390625 -5.945312 4.734375 -5.65625 C 5.085938 -5.375 5.265625 -4.972656 5.265625 -4.453125 C 5.265625 -4.109375 5.1875 -3.804688 5.03125 -3.546875 C 4.882812 -3.285156 4.703125 -3.078125 4.484375 -2.921875 C 4.265625 -2.773438 4 -2.65625 3.6875 -2.5625 C 3.15625 -2.40625 2.5625 -2.328125 1.90625 -2.328125 C 1.925781 -1.910156 2.050781 -1.570312 2.28125 -1.3125 C 2.519531 -1.0625 2.882812 -0.9375 3.375 -0.9375 C 3.863281 -0.9375 4.347656 -1.109375 4.828125 -1.453125 L 5.28125 -0.5 C 5.125 -0.363281 4.859375 -0.21875 4.484375 -0.0625 C 4.117188 0.0820312 3.695312 0.15625 3.21875 0.15625 C 2.257812 0.15625 1.554688 -0.109375 1.109375 -0.640625 C 0.660156 -1.171875 0.4375 -1.898438 0.4375 -2.828125 C 0.4375 -3.753906 0.691406 -4.53125 1.203125 -5.15625 C 1.710938 -5.78125 2.425781 -6.09375 3.34375 -6.09375 Z M 2.796875 -3.40625 C 3.085938 -3.457031 3.351562 -3.570312 3.59375 -3.75 C 3.84375 -3.925781 3.96875 -4.132812 3.96875 -4.375 C 3.96875 -4.851562 3.734375 -5.09375 3.265625 -5.09375 C 2.816406 -5.09375 2.472656 -4.914062 2.234375 -4.5625 C 2.003906 -4.21875 1.878906 -3.800781 1.859375 -3.3125 C 2.203125 -3.320312 2.515625 -3.351562 2.796875 -3.40625 Z M 2.796875 -3.40625 "/></g></g></g><g fill="#9f9e9e" fill-opacity="1"><g transform="translate(74.839119, 17.478951)"><g/></g></g><g fill="#9f9e9e" fill-opacity="1"><g transform="translate(77.192974, 17.478951)"><g><path d="M 3.34375 -6.09375 C 3.675781 -6.09375 4 -6.046875 4.3125 -5.953125 L 4.3125 -7.140625 C 4.3125 -7.316406 4.207031 -7.410156 4 -7.421875 L 3.5 -7.453125 L 3.5 -8.390625 L 5.6875 -8.390625 L 5.6875 -1.234375 C 5.6875 -1.054688 5.785156 -0.96875 5.984375 -0.96875 L 6.390625 -0.9375 L 6.390625 0 L 4.484375 0 L 4.484375 -0.6875 L 4.453125 -0.703125 C 4.097656 -0.128906 3.5625 0.15625 2.84375 0.15625 C 1.945312 0.15625 1.320312 -0.140625 0.96875 -0.734375 C 0.632812 -1.273438 0.46875 -1.941406 0.46875 -2.734375 C 0.46875 -3.753906 0.71875 -4.566406 1.21875 -5.171875 C 1.726562 -5.785156 2.4375 -6.09375 3.34375 -6.09375 Z M 4.3125 -1.828125 L 4.3125 -4.875 C 4.019531 -5.007812 3.71875 -5.078125 3.40625 -5.078125 C 2.894531 -5.078125 2.519531 -4.867188 2.28125 -4.453125 C 2.039062 -4.035156 1.921875 -3.503906 1.921875 -2.859375 C 1.921875 -1.535156 2.34375 -0.875 3.1875 -0.875 C 3.507812 -0.875 3.773438 -0.96875 3.984375 -1.15625 C 4.203125 -1.34375 4.3125 -1.566406 4.3125 -1.828125 Z M 4.3125 -1.828125 "/></g></g></g><g fill="#9f9e9e" fill-opacity="1"><g transform="translate(83.877906, 17.478951)"><g><path d="M 3.09375 -0.859375 C 3.945312 -0.859375 4.375 -1.546875 4.375 -2.921875 C 4.375 -3.628906 4.273438 -4.160156 4.078125 -4.515625 C 3.890625 -4.878906 3.570312 -5.0625 3.125 -5.0625 C 2.675781 -5.0625 2.34375 -4.890625 2.125 -4.546875 C 1.914062 -4.203125 1.8125 -3.726562 1.8125 -3.125 C 1.8125 -2.019531 2.015625 -1.328125 2.421875 -1.046875 C 2.597656 -0.921875 2.820312 -0.859375 3.09375 -0.859375 Z M 0.390625 -2.96875 C 0.390625 -3.539062 0.472656 -4.039062 0.640625 -4.46875 C 0.816406 -4.90625 1.050781 -5.234375 1.34375 -5.453125 C 1.894531 -5.878906 2.507812 -6.09375 3.1875 -6.09375 C 3.65625 -6.09375 4.050781 -6.015625 4.375 -5.859375 C 4.707031 -5.710938 4.960938 -5.535156 5.140625 -5.328125 C 5.328125 -5.128906 5.484375 -4.835938 5.609375 -4.453125 C 5.742188 -4.078125 5.8125 -3.632812 5.8125 -3.125 C 5.8125 -2.039062 5.546875 -1.21875 5.015625 -0.65625 C 4.492188 -0.101562 3.820312 0.171875 3 0.171875 C 2.1875 0.171875 1.546875 -0.0859375 1.078125 -0.609375 C 0.617188 -1.140625 0.390625 -1.925781 0.390625 -2.96875 Z M 0.390625 -2.96875 "/></g></g></g><g fill="#9f9e9e" fill-opacity="1"><g transform="translate(90.092069, 17.478951)"><g/></g></g><g fill="#9f9e9e" fill-opacity="1"><g transform="translate(92.445924, 17.478951)"><g><path d="M 2.359375 -6.421875 L 3.9375 -1.6875 L 4 -1.6875 L 5.640625 -6.78125 L 4.9375 -6.828125 L 4.9375 -7.828125 L 7.640625 -7.828125 L 7.640625 -6.875 L 7.25 -6.828125 C 7.144531 -6.828125 7.066406 -6.800781 7.015625 -6.75 C 6.972656 -6.695312 6.929688 -6.609375 6.890625 -6.484375 L 4.65625 0 L 3.125 0 L 0.734375 -6.78125 L 0.0625 -6.828125 L 0.0625 -7.828125 L 3.09375 -7.828125 L 3.09375 -6.875 L 2.703125 -6.828125 C 2.460938 -6.816406 2.34375 -6.722656 2.34375 -6.546875 C 2.34375 -6.515625 2.347656 -6.472656 2.359375 -6.421875 Z M 2.359375 -6.421875 "/></g></g></g><g fill="#9f9e9e" fill-opacity="1"><g transform="translate(100.143015, 17.478951)"><g><path d="M 5.671875 -5.6875 L 5.671875 -1.3125 C 5.671875 -1.1875 5.691406 -1.097656 5.734375 -1.046875 C 5.773438 -0.992188 5.851562 -0.96875 5.96875 -0.96875 L 6.34375 -0.9375 L 6.34375 0 L 4.46875 0 L 4.46875 -0.6875 L 4.4375 -0.6875 C 4.039062 -0.125 3.503906 0.15625 2.828125 0.15625 C 2.023438 0.15625 1.429688 -0.0976562 1.046875 -0.609375 C 0.660156 -1.117188 0.46875 -1.816406 0.46875 -2.703125 C 0.46875 -3.773438 0.726562 -4.609375 1.25 -5.203125 C 1.769531 -5.796875 2.546875 -6.09375 3.578125 -6.09375 C 4.242188 -6.09375 4.941406 -5.957031 5.671875 -5.6875 Z M 4.3125 -1.875 L 4.3125 -4.921875 C 4.09375 -5.023438 3.789062 -5.078125 3.40625 -5.078125 C 2.875 -5.078125 2.488281 -4.863281 2.25 -4.4375 C 2.019531 -4.007812 1.90625 -3.445312 1.90625 -2.75 C 1.90625 -1.476562 2.3125 -0.84375 3.125 -0.84375 C 3.46875 -0.84375 3.75 -0.945312 3.96875 -1.15625 C 4.195312 -1.363281 4.3125 -1.601562 4.3125 -1.875 Z M 4.3125 -1.875 "/></g></g></g><g fill="#9f9e9e" fill-opacity="1"><g transform="translate(106.816184, 17.478951)"><g><path d="M 2.5 -8.390625 L 2.5 -0.96875 L 3.171875 -0.9375 L 3.171875 0 L 0.359375 0 L 0.359375 -0.890625 L 0.75 -0.921875 C 0.976562 -0.953125 1.09375 -1.082031 1.09375 -1.3125 L 1.09375 -7.109375 C 1.09375 -7.273438 0.992188 -7.367188 0.796875 -7.390625 L 0.390625 -7.40625 L 0.390625 -8.390625 Z M 2.5 -8.390625 "/></g></g></g><g fill="#9f9e9e" fill-opacity="1"><g transform="translate(110.323418, 17.478951)"><g><path d="M 3.34375 -6.09375 C 3.925781 -6.09375 4.390625 -5.945312 4.734375 -5.65625 C 5.085938 -5.375 5.265625 -4.972656 5.265625 -4.453125 C 5.265625 -4.109375 5.1875 -3.804688 5.03125 -3.546875 C 4.882812 -3.285156 4.703125 -3.078125 4.484375 -2.921875 C 4.265625 -2.773438 4 -2.65625 3.6875 -2.5625 C 3.15625 -2.40625 2.5625 -2.328125 1.90625 -2.328125 C 1.925781 -1.910156 2.050781 -1.570312 2.28125 -1.3125 C 2.519531 -1.0625 2.882812 -0.9375 3.375 -0.9375 C 3.863281 -0.9375 4.347656 -1.109375 4.828125 -1.453125 L 5.28125 -0.5 C 5.125 -0.363281 4.859375 -0.21875 4.484375 -0.0625 C 4.117188 0.0820312 3.695312 0.15625 3.21875 0.15625 C 2.257812 0.15625 1.554688 -0.109375 1.109375 -0.640625 C 0.660156 -1.171875 0.4375 -1.898438 0.4375 -2.828125 C 0.4375 -3.753906 0.691406 -4.53125 1.203125 -5.15625 C 1.710938 -5.78125 2.425781 -6.09375 3.34375 -6.09375 Z M 2.796875 -3.40625 C 3.085938 -3.457031 3.351562 -3.570312 3.59375 -3.75 C 3.84375 -3.925781 3.96875 -4.132812 3.96875 -4.375 C 3.96875 -4.851562 3.734375 -5.09375 3.265625 -5.09375 C 2.816406 -5.09375 2.472656 -4.914062 2.234375 -4.5625 C 2.003906 -4.21875 1.878906 -3.800781 1.859375 -3.3125 C 2.203125 -3.320312 2.515625 -3.351562 2.796875 -3.40625 Z M 2.796875 -3.40625 "/></g></g></g><path fill="#292828" d="M 17.449219 22.359375 C 18.523438 22.359375 19.59375 21.949219 20.410156 21.136719 C 22.046875 19.5 22.046875 16.847656 20.410156 15.210938 C 20.351562 15.152344 20.277344 15.121094 20.195312 15.121094 C 20.113281 15.121094 20.035156 15.152344 19.976562 15.210938 L 14.492188 20.699219 C 14.371094 20.816406 14.371094 21.015625 14.492188 21.136719 C 15.304688 21.949219 16.378906 22.359375 17.449219 22.359375 Z M 20.183594 15.871094 C 21.363281 17.273438 21.296875 19.378906 19.976562 20.699219 C 18.652344 22.023438 16.554688 22.089844 15.148438 20.910156 Z M 20.183594 15.871094 " fill-opacity="1" fill-rule="nonzero"/><path fill="#292828" d="M 18.921875 20.078125 C 18.980469 20.136719 19.0625 20.171875 19.140625 20.171875 C 19.21875 20.171875 19.296875 20.136719 19.355469 20.078125 C 19.480469 19.960938 19.480469 19.761719 19.355469 19.648438 L 18.828125 19.113281 C 18.707031 18.996094 18.515625 18.996094 18.394531 19.113281 C 18.273438 19.234375 18.273438 19.433594 18.394531 19.550781 Z M 18.921875 20.078125 " fill-opacity="1" fill-rule="nonzero"/><path fill="#292828" d="M 17.683594 20.722656 L 17.683594 19.980469 C 17.683594 19.804688 17.546875 19.671875 17.378906 19.671875 C 17.210938 19.671875 17.070312 19.804688 17.070312 19.980469 L 17.070312 20.722656 C 17.070312 20.894531 17.210938 21.027344 17.378906 21.027344 C 17.546875 21.027344 17.683594 20.894531 17.683594 20.722656 Z M 17.683594 20.722656 " fill-opacity="1" fill-rule="nonzero"/><path fill="#292828" d="M 19.253906 18.40625 L 20.003906 18.40625 C 20.171875 18.40625 20.308594 18.269531 20.308594 18.097656 C 20.308594 17.929688 20.171875 17.792969 20.003906 17.792969 L 19.253906 17.792969 C 19.085938 17.792969 18.945312 17.929688 18.945312 18.097656 C 18.945312 18.269531 19.085938 18.40625 19.253906 18.40625 Z M 19.253906 18.40625 " fill-opacity="1" fill-rule="nonzero"/><path fill="#292828" d="M 10.917969 16.324219 C 11.730469 17.140625 12.804688 17.546875 13.875 17.546875 C 14.949219 17.546875 16.019531 17.140625 16.839844 16.324219 C 16.960938 16.203125 16.960938 16.011719 16.839844 15.890625 L 11.351562 10.398438 C 11.238281 10.285156 11.03125 10.285156 10.917969 10.398438 C 9.285156 12.035156 9.285156 14.691406 10.917969 16.324219 Z M 11.140625 11.0625 L 16.179688 16.097656 C 14.777344 17.277344 12.671875 17.210938 11.351562 15.890625 C 10.027344 14.566406 9.960938 12.464844 11.140625 11.0625 Z M 11.140625 11.0625 " fill-opacity="1" fill-rule="nonzero"/><path fill="#292828" d="M 11.972656 15.269531 C 12.03125 15.332031 12.109375 15.359375 12.1875 15.359375 C 12.265625 15.359375 12.347656 15.332031 12.402344 15.269531 L 12.929688 14.738281 C 13.050781 14.621094 13.050781 14.429688 12.929688 14.308594 C 12.8125 14.1875 12.621094 14.1875 12.5 14.308594 L 11.972656 14.835938 C 11.851562 14.957031 11.851562 15.148438 11.972656 15.269531 Z M 11.972656 15.269531 " fill-opacity="1" fill-rule="nonzero"/><path fill="#292828" d="M 11.324219 13.597656 L 12.074219 13.597656 C 12.242188 13.597656 12.378906 13.460938 12.378906 13.292969 C 12.378906 13.117188 12.242188 12.984375 12.074219 12.984375 L 11.324219 12.984375 C 11.15625 12.984375 11.015625 13.117188 11.015625 13.292969 C 11.015625 13.460938 11.15625 13.597656 11.324219 13.597656 Z M 11.324219 13.597656 " fill-opacity="1" fill-rule="nonzero"/><path fill="#292828" d="M 13.949219 16.222656 C 14.121094 16.222656 14.253906 16.082031 14.253906 15.914062 L 14.253906 15.167969 C 14.253906 15 14.121094 14.859375 13.949219 14.859375 C 13.78125 14.859375 13.640625 15 13.640625 15.167969 L 13.640625 15.914062 C 13.640625 16.082031 13.78125 16.222656 13.949219 16.222656 Z M 13.949219 16.222656 " fill-opacity="1" fill-rule="nonzero"/><g clip-path="url(#6c47a7005c)"><path fill="#292828" d="M 27.738281 13.585938 C 26.882812 13.664062 26.203125 14.433594 26.203125 15.335938 L 26.203125 19.5 C 25.898438 19.246094 25.519531 19.105469 25.117188 19.105469 C 24.660156 19.105469 24.234375 19.28125 23.910156 19.605469 L 20.214844 23.304688 C 19.890625 23.625 19.714844 24.046875 19.714844 24.503906 L 19.714844 30.730469 C 19.714844 30.898438 19.851562 31.035156 20.019531 31.035156 L 25.261719 31.035156 C 25.429688 31.035156 25.566406 30.898438 25.566406 30.730469 L 25.566406 27.839844 C 25.566406 27.582031 25.65625 27.332031 25.832031 27.136719 L 28.859375 23.640625 C 29.34375 23.082031 29.609375 22.363281 29.609375 21.625 L 29.609375 15.277344 C 29.609375 14.796875 29.410156 14.335938 29.054688 14.015625 C 28.699219 13.695312 28.21875 13.53125 27.738281 13.585938 Z M 28.996094 21.625 C 28.996094 22.21875 28.78125 22.789062 28.398438 23.234375 L 25.367188 26.734375 C 25.097656 27.039062 24.953125 27.433594 24.953125 27.839844 L 24.953125 30.421875 L 20.328125 30.421875 L 20.328125 24.503906 C 20.328125 24.210938 20.445312 23.941406 20.644531 23.734375 L 24.34375 20.042969 C 24.757812 19.628906 25.476562 19.628906 25.882812 20.042969 C 26.308594 20.464844 26.308594 21.152344 25.882812 21.582031 L 23.546875 23.917969 C 23.425781 24.035156 23.425781 24.234375 23.546875 24.355469 C 23.667969 24.472656 23.863281 24.472656 23.980469 24.355469 L 26.320312 22.011719 C 26.652344 21.683594 26.8125 21.25 26.820312 20.816406 C 26.820312 20.808594 26.820312 20.800781 26.820312 20.789062 L 26.820312 15.335938 C 26.820312 14.75 27.25 14.246094 27.796875 14.191406 C 28.113281 14.164062 28.410156 14.261719 28.640625 14.472656 C 28.867188 14.679688 28.996094 14.96875 28.996094 15.277344 Z M 28.996094 21.625 " fill-opacity="1" fill-rule="nonzero"/></g><g clip-path="url(#511db1b780)"><path fill="#292828" d="M 5.050781 15.277344 L 5.050781 21.625 C 5.050781 22.363281 5.316406 23.078125 5.800781 23.640625 L 8.828125 27.136719 C 9.003906 27.332031 9.09375 27.582031 9.09375 27.839844 L 9.09375 30.730469 C 9.09375 30.898438 9.234375 31.035156 9.402344 31.035156 L 14.640625 31.035156 C 14.808594 31.035156 14.945312 30.898438 14.945312 30.730469 L 14.945312 24.503906 C 14.945312 24.046875 14.769531 23.625 14.445312 23.304688 L 10.75 19.605469 C 10.425781 19.28125 10 19.105469 9.542969 19.105469 C 9.140625 19.105469 8.761719 19.246094 8.457031 19.5 L 8.457031 15.335938 C 8.457031 14.433594 7.777344 13.664062 6.921875 13.585938 C 6.441406 13.53125 5.960938 13.695312 5.605469 14.015625 C 5.25 14.335938 5.050781 14.796875 5.050781 15.277344 Z M 5.664062 15.277344 C 5.664062 14.96875 5.792969 14.679688 6.019531 14.472656 C 6.25 14.261719 6.546875 14.164062 6.863281 14.191406 C 7.410156 14.246094 7.839844 14.75 7.839844 15.335938 L 7.839844 20.789062 C 7.839844 20.800781 7.839844 20.808594 7.839844 20.816406 C 7.847656 21.25 8.007812 21.683594 8.339844 22.011719 L 10.679688 24.355469 C 10.796875 24.472656 10.992188 24.472656 11.113281 24.355469 C 11.234375 24.234375 11.234375 24.035156 11.113281 23.917969 L 8.777344 21.582031 C 8.351562 21.152344 8.351562 20.464844 8.777344 20.042969 C 9.191406 19.628906 9.902344 19.628906 10.316406 20.042969 L 14.015625 23.734375 C 14.21875 23.941406 14.332031 24.210938 14.332031 24.503906 L 14.332031 30.421875 L 9.707031 30.421875 L 9.707031 27.839844 C 9.707031 27.433594 9.5625 27.039062 9.296875 26.734375 L 6.261719 23.234375 C 5.878906 22.789062 5.664062 22.21875 5.664062 21.625 Z M 5.664062 15.277344 " fill-opacity="1" fill-rule="nonzero"/></g><g clip-path="url(#24cae183d0)"><path fill="#292828" d="M 26.03125 10.59375 C 26.03125 8.496094 24.324219 6.785156 22.222656 6.785156 C 20.121094 6.785156 18.414062 8.496094 18.414062 10.59375 C 18.414062 12.691406 20.121094 14.398438 22.222656 14.398438 C 24.324219 14.398438 26.03125 12.691406 26.03125 10.59375 Z M 19.027344 10.59375 C 19.027344 8.832031 20.460938 7.402344 22.222656 7.402344 C 23.984375 7.402344 25.417969 8.832031 25.417969 10.59375 C 25.417969 12.355469 23.984375 13.785156 22.222656 13.785156 C 20.460938 13.785156 19.027344 12.355469 19.027344 10.59375 Z M 19.027344 10.59375 " fill-opacity="1" fill-rule="nonzero"/></g><path fill="#292828" d="M 24.09375 10.59375 C 24.09375 9.5625 23.253906 8.722656 22.222656 8.722656 C 21.191406 8.722656 20.351562 9.5625 20.351562 10.59375 C 20.351562 11.625 21.191406 12.460938 22.222656 12.460938 C 23.253906 12.460938 24.09375 11.625 24.09375 10.59375 Z M 20.964844 10.59375 C 20.964844 9.898438 21.53125 9.339844 22.222656 9.339844 C 22.914062 9.339844 23.480469 9.898438 23.480469 10.59375 C 23.480469 11.285156 22.914062 11.847656 22.222656 11.847656 C 21.53125 11.847656 20.964844 11.285156 20.964844 10.59375 Z M 20.964844 10.59375 " fill-opacity="1" fill-rule="nonzero"/><g clip-path="url(#5fd86cbdf5)"><path fill="#292828" d="M 17.082031 8.5625 C 17.082031 7.410156 16.140625 6.476562 14.988281 6.476562 C 13.835938 6.476562 12.902344 7.410156 12.902344 8.5625 C 12.902344 9.71875 13.835938 10.652344 14.988281 10.652344 C 16.140625 10.652344 17.082031 9.71875 17.082031 8.5625 Z M 13.515625 8.5625 C 13.515625 7.75 14.179688 7.089844 14.988281 7.089844 C 15.804688 7.089844 16.464844 7.75 16.464844 8.5625 C 16.464844 9.378906 15.804688 10.039062 14.988281 10.039062 C 14.179688 10.039062 13.515625 9.378906 13.515625 8.5625 Z M 13.515625 8.5625 " fill-opacity="1" fill-rule="nonzero"/></g><g clip-path="url(#d93f731582)"><path fill="#292828" d="M 11.257812 8.695312 L 11.257812 6.78125 C 11.257812 6.613281 11.117188 6.476562 10.949219 6.476562 C 10.777344 6.476562 10.644531 6.613281 10.644531 6.78125 L 10.644531 8.695312 C 10.644531 8.863281 10.777344 9.003906 10.949219 9.003906 C 11.117188 9.003906 11.257812 8.863281 11.257812 8.695312 Z M 11.257812 8.695312 " fill-opacity="1" fill-rule="nonzero"/></g><path fill="#292828" d="M 7.453125 7.980469 C 7.332031 8.101562 7.332031 8.292969 7.453125 8.414062 L 8.804688 9.765625 C 8.863281 9.828125 8.945312 9.855469 9.023438 9.855469 C 9.097656 9.855469 9.179688 9.828125 9.238281 9.765625 C 9.355469 9.644531 9.355469 9.453125 9.238281 9.332031 L 7.882812 7.980469 C 7.765625 7.859375 7.574219 7.859375 7.453125 7.980469 Z M 7.453125 7.980469 " fill-opacity="1" fill-rule="nonzero"/><g fill="#9f9e9e" fill-opacity="1"><g transform="translate(34.305798, 24.805304)"><g><path d="M 0.15625 0 L 0.15625 -0.390625 L 0.328125 -0.40625 C 0.421875 -0.414062 0.46875 -0.460938 0.46875 -0.546875 L 0.46875 -2.828125 L 0.1875 -2.84375 L 0.1875 -3.265625 L 1.0625 -3.265625 L 2.453125 -1.015625 L 2.46875 -1.015625 L 2.46875 -2.828125 L 2.140625 -2.84375 L 2.140625 -3.265625 L 3.34375 -3.265625 L 3.34375 -2.859375 L 3.15625 -2.84375 C 3.082031 -2.84375 3.046875 -2.796875 3.046875 -2.703125 L 3.046875 0 L 2.46875 0 L 1.046875 -2.28125 L 1.046875 -0.4375 L 1.359375 -0.421875 L 1.359375 0 Z M 0.15625 0 "/></g></g></g><g fill="#9f9e9e" fill-opacity="1"><g transform="translate(37.76303, 24.805304)"><g><path d="M 2.765625 -0.390625 L 2.765625 0 L 1.96875 0 L 1.96875 -0.3125 C 1.789062 -0.0625 1.523438 0.0625 1.171875 0.0625 C 0.660156 0.0625 0.40625 -0.21875 0.40625 -0.78125 L 0.40625 -1.921875 C 0.40625 -2.003906 0.367188 -2.050781 0.296875 -2.0625 L 0.125 -2.0625 L 0.125 -2.46875 L 1 -2.46875 L 1 -0.90625 C 1 -0.738281 1.019531 -0.609375 1.0625 -0.515625 C 1.113281 -0.429688 1.21875 -0.390625 1.375 -0.390625 C 1.53125 -0.390625 1.65625 -0.4375 1.75 -0.53125 C 1.84375 -0.625 1.890625 -0.738281 1.890625 -0.875 L 1.890625 -1.90625 C 1.890625 -1.957031 1.878906 -1.992188 1.859375 -2.015625 C 1.835938 -2.035156 1.804688 -2.050781 1.765625 -2.0625 L 1.609375 -2.0625 L 1.609375 -2.46875 L 2.46875 -2.46875 L 2.46875 -0.546875 C 2.46875 -0.492188 2.472656 -0.457031 2.484375 -0.4375 C 2.503906 -0.414062 2.539062 -0.40625 2.59375 -0.40625 Z M 2.765625 -0.390625 "/></g></g></g><g fill="#9f9e9e" fill-opacity="1"><g transform="translate(40.661225, 24.805304)"><g><path d="M 0.703125 -2.984375 L 1.03125 -2.984375 L 1.03125 -2.46875 L 1.671875 -2.46875 L 1.625 -2.0625 L 1.03125 -2.0625 L 1.03125 -0.765625 C 1.03125 -0.617188 1.054688 -0.515625 1.109375 -0.453125 C 1.160156 -0.398438 1.238281 -0.375 1.34375 -0.375 C 1.457031 -0.375 1.566406 -0.410156 1.671875 -0.484375 L 1.828125 -0.109375 C 1.660156 0.00390625 1.453125 0.0625 1.203125 0.0625 C 1.054688 0.0625 0.929688 0.0390625 0.828125 0 C 0.722656 -0.03125 0.644531 -0.0664062 0.59375 -0.109375 C 0.550781 -0.160156 0.515625 -0.226562 0.484375 -0.3125 C 0.460938 -0.40625 0.445312 -0.472656 0.4375 -0.515625 C 0.4375 -0.566406 0.4375 -0.644531 0.4375 -0.75 L 0.4375 -2.0625 L 0.09375 -2.0625 L 0.140625 -2.40625 C 0.296875 -2.425781 0.410156 -2.484375 0.484375 -2.578125 C 0.566406 -2.671875 0.640625 -2.804688 0.703125 -2.984375 Z M 0.703125 -2.984375 "/></g></g></g><g fill="#9f9e9e" fill-opacity="1"><g transform="translate(42.509988, 24.805304)"><g><path d="M 0.46875 -0.546875 L 0.46875 -1.90625 C 0.46875 -1.957031 0.457031 -1.992188 0.4375 -2.015625 C 0.414062 -2.035156 0.382812 -2.050781 0.34375 -2.0625 L 0.140625 -2.078125 L 0.140625 -2.46875 L 0.96875 -2.46875 L 0.96875 -2.09375 C 1.03125 -2.226562 1.117188 -2.335938 1.234375 -2.421875 C 1.359375 -2.503906 1.5 -2.546875 1.65625 -2.546875 C 1.820312 -2.546875 1.984375 -2.507812 2.140625 -2.4375 L 2.140625 -1.703125 L 1.671875 -1.671875 L 1.671875 -1.890625 C 1.671875 -1.953125 1.65625 -1.992188 1.625 -2.015625 C 1.59375 -2.035156 1.550781 -2.046875 1.5 -2.046875 C 1.363281 -2.046875 1.253906 -2 1.171875 -1.90625 C 1.085938 -1.8125 1.046875 -1.691406 1.046875 -1.546875 L 1.046875 -0.40625 L 1.484375 -0.390625 L 1.484375 0 L 0.15625 0 L 0.15625 -0.375 L 0.328125 -0.390625 C 0.367188 -0.390625 0.398438 -0.398438 0.421875 -0.421875 C 0.453125 -0.453125 0.46875 -0.492188 0.46875 -0.546875 Z M 0.46875 -0.546875 "/></g></g></g><g fill="#9f9e9e" fill-opacity="1"><g transform="translate(44.775579, 24.805304)"><g><path d="M 1.046875 -2.46875 L 1.046875 -0.40625 L 1.328125 -0.390625 L 1.328125 0 L 0.15625 0 L 0.15625 -0.375 L 0.328125 -0.390625 C 0.421875 -0.398438 0.46875 -0.453125 0.46875 -0.546875 L 0.46875 -1.90625 C 0.46875 -1.957031 0.457031 -1.992188 0.4375 -2.015625 C 0.414062 -2.035156 0.382812 -2.046875 0.34375 -2.046875 L 0.171875 -2.0625 L 0.171875 -2.46875 Z M 0.421875 -2.890625 C 0.359375 -2.960938 0.328125 -3.050781 0.328125 -3.15625 C 0.328125 -3.257812 0.359375 -3.34375 0.421875 -3.40625 C 0.492188 -3.476562 0.585938 -3.515625 0.703125 -3.515625 C 0.816406 -3.515625 0.90625 -3.476562 0.96875 -3.40625 C 1.039062 -3.34375 1.078125 -3.257812 1.078125 -3.15625 C 1.078125 -3.050781 1.039062 -2.960938 0.96875 -2.890625 C 0.90625 -2.828125 0.816406 -2.796875 0.703125 -2.796875 C 0.585938 -2.796875 0.492188 -2.828125 0.421875 -2.890625 Z M 0.421875 -2.890625 "/></g></g></g><g fill="#9f9e9e" fill-opacity="1"><g transform="translate(46.22713, 24.805304)"><g><path d="M 0.75 -1.265625 C 0.75 -0.984375 0.800781 -0.765625 0.90625 -0.609375 C 1.007812 -0.453125 1.160156 -0.375 1.359375 -0.375 C 1.554688 -0.375 1.753906 -0.445312 1.953125 -0.59375 L 2.15625 -0.21875 C 1.925781 -0.03125 1.632812 0.0625 1.28125 0.0625 C 0.9375 0.0625 0.660156 -0.046875 0.453125 -0.265625 C 0.253906 -0.484375 0.15625 -0.804688 0.15625 -1.234375 C 0.15625 -1.671875 0.269531 -2 0.5 -2.21875 C 0.738281 -2.4375 1 -2.546875 1.28125 -2.546875 C 1.570312 -2.546875 1.84375 -2.476562 2.09375 -2.34375 L 2.09375 -1.703125 L 1.640625 -1.671875 L 1.640625 -1.90625 C 1.640625 -1.988281 1.609375 -2.039062 1.546875 -2.0625 C 1.484375 -2.082031 1.414062 -2.09375 1.34375 -2.09375 C 0.945312 -2.09375 0.75 -1.816406 0.75 -1.265625 Z M 0.75 -1.265625 "/></g></g></g><g fill="#9f9e9e" fill-opacity="1"><g transform="translate(48.536857, 24.805304)"><g><path d="M 1.046875 -2.46875 L 1.046875 -0.40625 L 1.328125 -0.390625 L 1.328125 0 L 0.15625 0 L 0.15625 -0.375 L 0.328125 -0.390625 C 0.421875 -0.398438 0.46875 -0.453125 0.46875 -0.546875 L 0.46875 -1.90625 C 0.46875 -1.957031 0.457031 -1.992188 0.4375 -2.015625 C 0.414062 -2.035156 0.382812 -2.046875 0.34375 -2.046875 L 0.171875 -2.0625 L 0.171875 -2.46875 Z M 0.421875 -2.890625 C 0.359375 -2.960938 0.328125 -3.050781 0.328125 -3.15625 C 0.328125 -3.257812 0.359375 -3.34375 0.421875 -3.40625 C 0.492188 -3.476562 0.585938 -3.515625 0.703125 -3.515625 C 0.816406 -3.515625 0.90625 -3.476562 0.96875 -3.40625 C 1.039062 -3.34375 1.078125 -3.257812 1.078125 -3.15625 C 1.078125 -3.050781 1.039062 -2.960938 0.96875 -2.890625 C 0.90625 -2.828125 0.816406 -2.796875 0.703125 -2.796875 C 0.585938 -2.796875 0.492188 -2.828125 0.421875 -2.890625 Z M 0.421875 -2.890625 "/></g></g></g><g fill="#9f9e9e" fill-opacity="1"><g transform="translate(49.988408, 24.805304)"><g><path d="M 1.296875 -0.359375 C 1.648438 -0.359375 1.828125 -0.644531 1.828125 -1.21875 C 1.828125 -1.507812 1.785156 -1.726562 1.703125 -1.875 C 1.617188 -2.03125 1.484375 -2.109375 1.296875 -2.109375 C 1.109375 -2.109375 0.96875 -2.035156 0.875 -1.890625 C 0.789062 -1.742188 0.75 -1.550781 0.75 -1.3125 C 0.75 -0.84375 0.835938 -0.550781 1.015625 -0.4375 C 1.085938 -0.382812 1.179688 -0.359375 1.296875 -0.359375 Z M 0.15625 -1.234375 C 0.15625 -1.472656 0.191406 -1.679688 0.265625 -1.859375 C 0.335938 -2.046875 0.4375 -2.1875 0.5625 -2.28125 C 0.789062 -2.457031 1.046875 -2.546875 1.328125 -2.546875 C 1.523438 -2.546875 1.691406 -2.507812 1.828125 -2.4375 C 1.960938 -2.375 2.066406 -2.300781 2.140625 -2.21875 C 2.222656 -2.132812 2.289062 -2.015625 2.34375 -1.859375 C 2.394531 -1.703125 2.421875 -1.515625 2.421875 -1.296875 C 2.421875 -0.847656 2.3125 -0.503906 2.09375 -0.265625 C 1.875 -0.0351562 1.59375 0.078125 1.25 0.078125 C 0.90625 0.078125 0.632812 -0.03125 0.4375 -0.25 C 0.25 -0.476562 0.15625 -0.804688 0.15625 -1.234375 Z M 0.15625 -1.234375 "/></g></g></g><g fill="#9f9e9e" fill-opacity="1"><g transform="translate(52.577656, 24.805304)"><g><path d="M 0.125 -2.078125 L 0.125 -2.46875 L 0.96875 -2.46875 L 0.96875 -2.15625 C 1.050781 -2.269531 1.160156 -2.363281 1.296875 -2.4375 C 1.441406 -2.507812 1.59375 -2.546875 1.75 -2.546875 C 2 -2.546875 2.191406 -2.472656 2.328125 -2.328125 C 2.460938 -2.179688 2.53125 -1.96875 2.53125 -1.6875 L 2.53125 -0.40625 L 2.8125 -0.390625 L 2.8125 0 L 1.65625 0 L 1.65625 -0.375 L 1.8125 -0.390625 C 1.863281 -0.390625 1.898438 -0.398438 1.921875 -0.421875 C 1.941406 -0.453125 1.953125 -0.492188 1.953125 -0.546875 L 1.953125 -1.5625 C 1.953125 -1.738281 1.921875 -1.867188 1.859375 -1.953125 C 1.804688 -2.046875 1.703125 -2.09375 1.546875 -2.09375 C 1.390625 -2.09375 1.265625 -2.039062 1.171875 -1.9375 C 1.085938 -1.84375 1.046875 -1.726562 1.046875 -1.59375 L 1.046875 -0.40625 L 1.328125 -0.390625 L 1.328125 0 L 0.15625 0 L 0.15625 -0.375 L 0.3125 -0.390625 C 0.363281 -0.390625 0.398438 -0.398438 0.421875 -0.421875 C 0.453125 -0.453125 0.46875 -0.492188 0.46875 -0.546875 L 0.46875 -1.90625 C 0.46875 -2.007812 0.425781 -2.0625 0.34375 -2.0625 Z M 0.125 -2.078125 "/></g></g></g><g fill="#9f9e9e" fill-opacity="1"><g transform="translate(55.519987, 24.805304)"><g><path d="M 1.046875 -2.46875 L 1.046875 -0.40625 L 1.328125 -0.390625 L 1.328125 0 L 0.15625 0 L 0.15625 -0.375 L 0.328125 -0.390625 C 0.421875 -0.398438 0.46875 -0.453125 0.46875 -0.546875 L 0.46875 -1.90625 C 0.46875 -1.957031 0.457031 -1.992188 0.4375 -2.015625 C 0.414062 -2.035156 0.382812 -2.046875 0.34375 -2.046875 L 0.171875 -2.0625 L 0.171875 -2.46875 Z M 0.421875 -2.890625 C 0.359375 -2.960938 0.328125 -3.050781 0.328125 -3.15625 C 0.328125 -3.257812 0.359375 -3.34375 0.421875 -3.40625 C 0.492188 -3.476562 0.585938 -3.515625 0.703125 -3.515625 C 0.816406 -3.515625 0.90625 -3.476562 0.96875 -3.40625 C 1.039062 -3.34375 1.078125 -3.257812 1.078125 -3.15625 C 1.078125 -3.050781 1.039062 -2.960938 0.96875 -2.890625 C 0.90625 -2.828125 0.816406 -2.796875 0.703125 -2.796875 C 0.585938 -2.796875 0.492188 -2.828125 0.421875 -2.890625 Z M 0.421875 -2.890625 "/></g></g></g><g fill="#9f9e9e" fill-opacity="1"><g transform="translate(56.971538, 24.805304)"><g><path d="M 1.453125 -2.09375 C 1.367188 -2.125 1.269531 -2.140625 1.15625 -2.140625 C 1.050781 -2.140625 0.960938 -2.113281 0.890625 -2.0625 C 0.828125 -2.007812 0.796875 -1.945312 0.796875 -1.875 C 0.796875 -1.800781 0.804688 -1.742188 0.828125 -1.703125 C 0.859375 -1.660156 0.898438 -1.625 0.953125 -1.59375 C 1.023438 -1.550781 1.117188 -1.515625 1.234375 -1.484375 C 1.347656 -1.453125 1.429688 -1.425781 1.484375 -1.40625 C 1.546875 -1.394531 1.617188 -1.367188 1.703125 -1.328125 C 1.785156 -1.285156 1.847656 -1.238281 1.890625 -1.1875 C 2.003906 -1.0625 2.0625 -0.90625 2.0625 -0.71875 C 2.0625 -0.476562 1.972656 -0.285156 1.796875 -0.140625 C 1.617188 -0.00390625 1.394531 0.0625 1.125 0.0625 C 0.71875 0.0625 0.414062 0.0078125 0.21875 -0.09375 L 0.21875 -0.765625 L 0.65625 -0.796875 L 0.65625 -0.5625 C 0.65625 -0.425781 0.789062 -0.359375 1.0625 -0.359375 C 1.34375 -0.359375 1.484375 -0.457031 1.484375 -0.65625 C 1.484375 -0.726562 1.457031 -0.785156 1.40625 -0.828125 C 1.363281 -0.867188 1.316406 -0.898438 1.265625 -0.921875 C 1.222656 -0.941406 1.171875 -0.957031 1.109375 -0.96875 C 1.046875 -0.988281 0.984375 -1.003906 0.921875 -1.015625 C 0.859375 -1.035156 0.789062 -1.054688 0.71875 -1.078125 C 0.65625 -1.109375 0.578125 -1.148438 0.484375 -1.203125 C 0.316406 -1.316406 0.234375 -1.5 0.234375 -1.75 C 0.234375 -2 0.320312 -2.191406 0.5 -2.328125 C 0.6875 -2.472656 0.914062 -2.546875 1.1875 -2.546875 C 1.457031 -2.546875 1.726562 -2.476562 2 -2.34375 L 2 -1.75 L 1.5625 -1.71875 L 1.5625 -1.921875 C 1.5625 -2.003906 1.523438 -2.0625 1.453125 -2.09375 Z M 1.453125 -2.09375 "/></g></g></g><g fill="#9f9e9e" fill-opacity="1"><g transform="translate(59.183186, 24.805304)"><g><path d="M 0.703125 -2.984375 L 1.03125 -2.984375 L 1.03125 -2.46875 L 1.671875 -2.46875 L 1.625 -2.0625 L 1.03125 -2.0625 L 1.03125 -0.765625 C 1.03125 -0.617188 1.054688 -0.515625 1.109375 -0.453125 C 1.160156 -0.398438 1.238281 -0.375 1.34375 -0.375 C 1.457031 -0.375 1.566406 -0.410156 1.671875 -0.484375 L 1.828125 -0.109375 C 1.660156 0.00390625 1.453125 0.0625 1.203125 0.0625 C 1.054688 0.0625 0.929688 0.0390625 0.828125 0 C 0.722656 -0.03125 0.644531 -0.0664062 0.59375 -0.109375 C 0.550781 -0.160156 0.515625 -0.226562 0.484375 -0.3125 C 0.460938 -0.40625 0.445312 -0.472656 0.4375 -0.515625 C 0.4375 -0.566406 0.4375 -0.644531 0.4375 -0.75 L 0.4375 -2.0625 L 0.09375 -2.0625 L 0.140625 -2.40625 C 0.296875 -2.425781 0.410156 -2.484375 0.484375 -2.578125 C 0.566406 -2.671875 0.640625 -2.804688 0.703125 -2.984375 Z M 0.703125 -2.984375 "/></g></g></g><g fill="#9f9e9e" fill-opacity="1"><g transform="translate(61.031948, 24.805304)"><g><path d="M 2.359375 -2.375 L 2.359375 -0.546875 C 2.359375 -0.492188 2.367188 -0.457031 2.390625 -0.4375 C 2.410156 -0.414062 2.441406 -0.40625 2.484375 -0.40625 L 2.640625 -0.390625 L 2.640625 0 L 1.859375 0 L 1.859375 -0.28125 L 1.84375 -0.296875 C 1.6875 -0.0546875 1.460938 0.0625 1.171875 0.0625 C 0.835938 0.0625 0.59375 -0.0390625 0.4375 -0.25 C 0.28125 -0.46875 0.203125 -0.757812 0.203125 -1.125 C 0.203125 -1.570312 0.304688 -1.921875 0.515625 -2.171875 C 0.734375 -2.421875 1.054688 -2.546875 1.484375 -2.546875 C 1.765625 -2.546875 2.054688 -2.488281 2.359375 -2.375 Z M 1.796875 -0.78125 L 1.796875 -2.046875 C 1.703125 -2.085938 1.578125 -2.109375 1.421875 -2.109375 C 1.203125 -2.109375 1.039062 -2.019531 0.9375 -1.84375 C 0.84375 -1.664062 0.796875 -1.429688 0.796875 -1.140625 C 0.796875 -0.617188 0.96875 -0.359375 1.3125 -0.359375 C 1.445312 -0.359375 1.5625 -0.398438 1.65625 -0.484375 C 1.75 -0.566406 1.796875 -0.664062 1.796875 -0.78125 Z M 1.796875 -0.78125 "/></g></g></g></svg>