<svg xmlns="http://www.w3.org/2000/svg" xmlns:xlink="http://www.w3.org/1999/xlink" width="195" zoomAndPan="magnify" viewBox="0 0 146.25 33.749998" height="45" preserveAspectRatio="xMidYMid meet" version="1.0"><defs><g/><clipPath id="ef62c30db9"><path d="M 6 7.113281 L 30 7.113281 L 30 26 L 6 26 Z M 6 7.113281 " clip-rule="nonzero"/></clipPath><clipPath id="3c7d8bf2ae"><path d="M 5.539062 11 L 30.105469 11 L 30.105469 30.191406 L 5.539062 30.191406 Z M 5.539062 11 " clip-rule="nonzero"/></clipPath></defs><g clip-path="url(#ef62c30db9)"><path fill="#ceaa5b" d="M 16.113281 25.804688 L 10.480469 12.773438 L 12.933594 12.773438 L 16.113281 20.859375 Z M 23.367188 7.113281 L 23.367188 7.425781 L 23.648438 7.425781 C 24.082031 7.425781 24.40625 7.566406 24.621094 7.851562 C 24.839844 8.132812 24.949219 8.394531 24.949219 8.636719 C 24.949219 8.878906 24.90625 9.125 24.824219 9.375 L 19.710938 21.839844 L 19.710938 25.050781 L 26.621094 9.375 C 26.804688 8.933594 27.0625 8.570312 27.394531 8.273438 C 27.972656 7.710938 28.613281 7.425781 29.316406 7.425781 L 29.59375 7.425781 L 29.59375 7.113281 Z M 7.835938 7.914062 C 8.339844 8.238281 8.738281 8.734375 9.027344 9.40625 L 9.410156 10.289062 C 9.738281 10.246094 10.082031 10.222656 10.433594 10.222656 L 11.929688 10.222656 L 11.597656 9.375 C 11.492188 9.121094 11.441406 8.914062 11.441406 8.746094 C 11.441406 8.578125 11.464844 8.429688 11.503906 8.304688 C 11.710938 7.71875 12.125 7.425781 12.742188 7.425781 L 13.023438 7.425781 L 13.023438 7.113281 L 6.054688 7.113281 L 6.054688 7.425781 L 6.300781 7.425781 C 6.816406 7.425781 7.328125 7.589844 7.835938 7.914062 Z M 7.835938 7.914062 " fill-opacity="1" fill-rule="nonzero"/></g><g clip-path="url(#3c7d8bf2ae)"><path fill="#333333" d="M 18.917969 11.96875 L 18.917969 27.925781 C 18.941406 28.679688 19.269531 29.246094 19.910156 29.625 C 20.21875 29.792969 20.550781 29.875 20.902344 29.875 L 21.304688 29.875 L 21.304688 30.1875 L 14.519531 30.1875 L 14.519531 29.875 L 14.921875 29.875 C 15.460938 29.875 15.921875 29.6875 16.300781 29.308594 C 16.683594 28.933594 16.886719 28.480469 16.90625 27.957031 L 16.90625 11.96875 L 10.433594 11.96875 C 8.78125 11.96875 7.582031 12.503906 6.839844 13.570312 C 6.445312 14.117188 6.25 14.6875 6.25 15.285156 C 6.25 15.882812 6.414062 16.503906 6.746094 17.152344 L 6.496094 17.308594 C 5.859375 16.535156 5.539062 15.765625 5.539062 15 C 5.539062 14.238281 5.714844 13.578125 6.0625 13.023438 C 6.414062 12.46875 6.984375 11.996094 7.769531 11.609375 C 8.554688 11.21875 9.441406 11.027344 10.433594 11.027344 L 23.289062 11.027344 L 22.902344 11.96875 Z M 27.875 11.609375 C 27.503906 11.425781 27.105469 11.285156 26.6875 11.1875 L 26.304688 12.058594 C 27.402344 12.25 28.234375 12.753906 28.804688 13.570312 C 29.195312 14.117188 29.390625 14.6875 29.390625 15.285156 C 29.390625 15.878906 29.226562 16.503906 28.894531 17.152344 L 29.144531 17.308594 C 29.785156 16.535156 30.105469 15.765625 30.105469 15 C 30.105469 14.238281 29.929688 13.578125 29.578125 13.023438 C 29.226562 12.464844 28.660156 11.996094 27.875 11.609375 Z M 27.875 11.609375 " fill-opacity="1" fill-rule="nonzero"/></g><g fill="#333333" fill-opacity="1"><g transform="translate(36.112216, 17.629684)"><g><path d="M 2.734375 0 L 2.734375 -0.171875 C 2.941406 -0.242188 3.082031 -0.382812 3.15625 -0.59375 C 3.238281 -0.800781 3.28125 -1.1875 3.28125 -1.75 L 3.28125 -9.390625 L 2.609375 -9.390625 C 1.992188 -9.390625 1.523438 -9.289062 1.203125 -9.09375 C 0.890625 -8.90625 0.613281 -8.5625 0.375 -8.0625 L 0.21875 -8.09375 L 0.296875 -9.609375 L 7.359375 -9.609375 L 7.453125 -8.09375 L 7.296875 -8.0625 C 7.066406 -8.5625 6.789062 -8.90625 6.46875 -9.09375 C 6.15625 -9.289062 5.6875 -9.390625 5.0625 -9.390625 L 4.421875 -9.390625 L 4.421875 -1.75 C 4.421875 -1.1875 4.457031 -0.800781 4.53125 -0.59375 C 4.613281 -0.382812 4.757812 -0.242188 4.96875 -0.171875 L 4.96875 0 Z M 2.734375 0 "/></g></g></g><g fill="#333333" fill-opacity="1"><g transform="translate(43.78596, 17.629684)"><g><path d="M 5.75 0 C 5.476562 0 5.34375 -0.132812 5.34375 -0.40625 L 5.34375 -2.875 C 5.195312 -2.320312 4.976562 -1.816406 4.6875 -1.359375 C 4.394531 -0.898438 4.054688 -0.535156 3.671875 -0.265625 C 3.285156 0.00390625 2.863281 0.140625 2.40625 0.140625 C 2.0625 0.140625 1.742188 0.0703125 1.453125 -0.0625 C 1.160156 -0.207031 0.925781 -0.410156 0.75 -0.671875 C 0.570312 -0.929688 0.484375 -1.257812 0.484375 -1.65625 C 0.484375 -2.132812 0.625 -2.523438 0.90625 -2.828125 C 1.1875 -3.128906 1.5625 -3.375 2.03125 -3.5625 C 2.507812 -3.757812 3.015625 -3.929688 3.546875 -4.078125 L 5.34375 -4.546875 C 5.300781 -5.222656 5.113281 -5.71875 4.78125 -6.03125 C 4.457031 -6.34375 4.003906 -6.5 3.421875 -6.5 C 3.003906 -6.5 2.597656 -6.398438 2.203125 -6.203125 C 1.816406 -6.003906 1.453125 -5.695312 1.109375 -5.28125 L 0.984375 -5.390625 C 1.378906 -5.878906 1.828125 -6.257812 2.328125 -6.53125 C 2.828125 -6.8125 3.375 -6.953125 3.96875 -6.953125 C 4.800781 -6.953125 5.410156 -6.734375 5.796875 -6.296875 C 6.191406 -5.867188 6.390625 -5.265625 6.390625 -4.484375 L 6.390625 -1.75 C 6.390625 -1.1875 6.425781 -0.800781 6.5 -0.59375 C 6.582031 -0.382812 6.726562 -0.242188 6.9375 -0.171875 L 6.9375 0 Z M 1.515625 -2.046875 C 1.515625 -1.597656 1.644531 -1.253906 1.90625 -1.015625 C 2.175781 -0.785156 2.507812 -0.671875 2.90625 -0.671875 C 3.269531 -0.671875 3.597656 -0.773438 3.890625 -0.984375 C 4.191406 -1.191406 4.445312 -1.457031 4.65625 -1.78125 C 4.875 -2.113281 5.039062 -2.472656 5.15625 -2.859375 C 5.28125 -3.242188 5.34375 -3.613281 5.34375 -3.96875 L 5.34375 -4.375 L 3.609375 -3.90625 C 3.265625 -3.8125 2.929688 -3.6875 2.609375 -3.53125 C 2.285156 -3.382812 2.019531 -3.191406 1.8125 -2.953125 C 1.613281 -2.722656 1.515625 -2.421875 1.515625 -2.046875 Z M 1.515625 -2.046875 "/></g></g></g><g fill="#333333" fill-opacity="1"><g transform="translate(51.04861, 17.629684)"><g><path d="M 2.59375 0.140625 C 2.164062 0.140625 1.828125 -0.00390625 1.578125 -0.296875 C 1.328125 -0.597656 1.203125 -1.109375 1.203125 -1.828125 L 1.203125 -6.671875 L 0.328125 -6.671875 L 0.328125 -6.859375 L 2.078125 -8.546875 L 2.28125 -8.546875 L 2.28125 -6.859375 L 4.359375 -6.859375 L 4.296875 -6.671875 L 2.28125 -6.671875 L 2.28125 -1.828125 C 2.28125 -1.359375 2.367188 -1.023438 2.546875 -0.828125 C 2.722656 -0.628906 2.957031 -0.53125 3.25 -0.53125 C 3.445312 -0.53125 3.65625 -0.582031 3.875 -0.6875 C 4.101562 -0.789062 4.332031 -0.976562 4.5625 -1.25 L 4.6875 -1.125 C 4.394531 -0.789062 4.070312 -0.492188 3.71875 -0.234375 C 3.375 0.015625 3 0.140625 2.59375 0.140625 Z M 2.59375 0.140625 "/></g></g></g><g fill="#333333" fill-opacity="1"><g transform="translate(55.762475, 17.629684)"><g><path d="M 0.4375 0 L 0.4375 -0.171875 C 0.644531 -0.242188 0.785156 -0.382812 0.859375 -0.59375 C 0.941406 -0.800781 0.984375 -1.1875 0.984375 -1.75 L 0.984375 -4.890625 C 0.984375 -5.210938 0.960938 -5.453125 0.921875 -5.609375 C 0.890625 -5.773438 0.832031 -5.894531 0.75 -5.96875 C 0.664062 -6.039062 0.5625 -6.101562 0.4375 -6.15625 L 0.4375 -6.3125 L 1.953125 -6.96875 L 2.0625 -6.875 L 2.0625 -1.75 C 2.0625 -1.1875 2.101562 -0.800781 2.1875 -0.59375 C 2.269531 -0.382812 2.410156 -0.242188 2.609375 -0.171875 L 2.609375 0 Z M 0.6875 -8.5625 C 0.6875 -8.78125 0.757812 -8.960938 0.90625 -9.109375 C 1.050781 -9.253906 1.226562 -9.328125 1.4375 -9.328125 C 1.65625 -9.328125 1.832031 -9.253906 1.96875 -9.109375 C 2.113281 -8.960938 2.1875 -8.78125 2.1875 -8.5625 C 2.1875 -8.363281 2.113281 -8.1875 1.96875 -8.03125 C 1.820312 -7.882812 1.644531 -7.8125 1.4375 -7.8125 C 1.226562 -7.8125 1.050781 -7.882812 0.90625 -8.03125 C 0.757812 -8.1875 0.6875 -8.363281 0.6875 -8.5625 Z M 0.6875 -8.5625 "/></g></g></g><g fill="#333333" fill-opacity="1"><g transform="translate(58.845677, 17.629684)"><g><path d="M 5.75 0 C 5.476562 0 5.34375 -0.132812 5.34375 -0.40625 L 5.34375 -2.875 C 5.195312 -2.320312 4.976562 -1.816406 4.6875 -1.359375 C 4.394531 -0.898438 4.054688 -0.535156 3.671875 -0.265625 C 3.285156 0.00390625 2.863281 0.140625 2.40625 0.140625 C 2.0625 0.140625 1.742188 0.0703125 1.453125 -0.0625 C 1.160156 -0.207031 0.925781 -0.410156 0.75 -0.671875 C 0.570312 -0.929688 0.484375 -1.257812 0.484375 -1.65625 C 0.484375 -2.132812 0.625 -2.523438 0.90625 -2.828125 C 1.1875 -3.128906 1.5625 -3.375 2.03125 -3.5625 C 2.507812 -3.757812 3.015625 -3.929688 3.546875 -4.078125 L 5.34375 -4.546875 C 5.300781 -5.222656 5.113281 -5.71875 4.78125 -6.03125 C 4.457031 -6.34375 4.003906 -6.5 3.421875 -6.5 C 3.003906 -6.5 2.597656 -6.398438 2.203125 -6.203125 C 1.816406 -6.003906 1.453125 -5.695312 1.109375 -5.28125 L 0.984375 -5.390625 C 1.378906 -5.878906 1.828125 -6.257812 2.328125 -6.53125 C 2.828125 -6.8125 3.375 -6.953125 3.96875 -6.953125 C 4.800781 -6.953125 5.410156 -6.734375 5.796875 -6.296875 C 6.191406 -5.867188 6.390625 -5.265625 6.390625 -4.484375 L 6.390625 -1.75 C 6.390625 -1.1875 6.425781 -0.800781 6.5 -0.59375 C 6.582031 -0.382812 6.726562 -0.242188 6.9375 -0.171875 L 6.9375 0 Z M 1.515625 -2.046875 C 1.515625 -1.597656 1.644531 -1.253906 1.90625 -1.015625 C 2.175781 -0.785156 2.507812 -0.671875 2.90625 -0.671875 C 3.269531 -0.671875 3.597656 -0.773438 3.890625 -0.984375 C 4.191406 -1.191406 4.445312 -1.457031 4.65625 -1.78125 C 4.875 -2.113281 5.039062 -2.472656 5.15625 -2.859375 C 5.28125 -3.242188 5.34375 -3.613281 5.34375 -3.96875 L 5.34375 -4.375 L 3.609375 -3.90625 C 3.265625 -3.8125 2.929688 -3.6875 2.609375 -3.53125 C 2.285156 -3.382812 2.019531 -3.191406 1.8125 -2.953125 C 1.613281 -2.722656 1.515625 -2.421875 1.515625 -2.046875 Z M 1.515625 -2.046875 "/></g></g></g><g fill="#333333" fill-opacity="1"><g transform="translate(66.108327, 17.629684)"><g><path d="M 0.4375 0 L 0.4375 -0.171875 C 0.644531 -0.242188 0.785156 -0.382812 0.859375 -0.59375 C 0.941406 -0.800781 0.984375 -1.1875 0.984375 -1.75 L 0.984375 -4.890625 C 0.984375 -5.210938 0.960938 -5.453125 0.921875 -5.609375 C 0.890625 -5.773438 0.832031 -5.894531 0.75 -5.96875 C 0.664062 -6.039062 0.5625 -6.101562 0.4375 -6.15625 L 0.4375 -6.3125 L 1.953125 -6.96875 L 2.0625 -6.875 L 2.0625 -5.6875 C 2.457031 -6.007812 2.90625 -6.300781 3.40625 -6.5625 C 3.914062 -6.820312 4.4375 -6.953125 4.96875 -6.953125 C 5.644531 -6.953125 6.175781 -6.753906 6.5625 -6.359375 C 6.945312 -5.972656 7.140625 -5.375 7.140625 -4.5625 L 7.140625 -1.75 C 7.140625 -1.1875 7.175781 -0.800781 7.25 -0.59375 C 7.320312 -0.382812 7.46875 -0.242188 7.6875 -0.171875 L 7.6875 0 L 5.515625 0 L 5.515625 -0.171875 C 5.722656 -0.242188 5.863281 -0.382812 5.9375 -0.59375 C 6.019531 -0.800781 6.0625 -1.1875 6.0625 -1.75 L 6.0625 -4.296875 C 6.0625 -5.003906 5.910156 -5.546875 5.609375 -5.921875 C 5.304688 -6.304688 4.851562 -6.5 4.25 -6.5 C 3.875 -6.5 3.5 -6.398438 3.125 -6.203125 C 2.757812 -6.003906 2.40625 -5.757812 2.0625 -5.46875 L 2.0625 -1.75 C 2.0625 -1.1875 2.101562 -0.800781 2.1875 -0.59375 C 2.269531 -0.382812 2.410156 -0.242188 2.609375 -0.171875 L 2.609375 0 Z M 0.4375 0 "/></g></g></g><g fill="#333333" fill-opacity="1"><g transform="translate(74.110941, 17.629684)"><g><path d="M 3.75 0.140625 C 3.375 0.140625 2.992188 0.0703125 2.609375 -0.0625 C 2.222656 -0.207031 1.867188 -0.414062 1.546875 -0.6875 C 1.222656 -0.96875 0.96875 -1.316406 0.78125 -1.734375 C 0.59375 -2.160156 0.5 -2.65625 0.5 -3.21875 C 0.5 -3.96875 0.664062 -4.617188 1 -5.171875 C 1.332031 -5.734375 1.769531 -6.171875 2.3125 -6.484375 C 2.863281 -6.796875 3.460938 -6.953125 4.109375 -6.953125 C 4.679688 -6.953125 5.171875 -6.835938 5.578125 -6.609375 C 5.984375 -6.390625 6.296875 -6.097656 6.515625 -5.734375 C 6.742188 -5.367188 6.863281 -4.96875 6.875 -4.53125 L 1.515625 -4.53125 C 1.484375 -4.320312 1.46875 -4.109375 1.46875 -3.890625 C 1.46875 -3.273438 1.585938 -2.722656 1.828125 -2.234375 C 2.066406 -1.753906 2.410156 -1.382812 2.859375 -1.125 C 3.304688 -0.863281 3.828125 -0.734375 4.421875 -0.734375 C 4.953125 -0.734375 5.410156 -0.84375 5.796875 -1.0625 C 6.191406 -1.28125 6.546875 -1.566406 6.859375 -1.921875 L 6.984375 -1.796875 C 6.753906 -1.472656 6.476562 -1.160156 6.15625 -0.859375 C 5.832031 -0.566406 5.472656 -0.328125 5.078125 -0.140625 C 4.679688 0.046875 4.238281 0.140625 3.75 0.140625 Z M 1.546875 -4.703125 L 5.78125 -4.703125 C 5.726562 -5.015625 5.613281 -5.320312 5.4375 -5.625 C 5.257812 -5.9375 5.019531 -6.191406 4.71875 -6.390625 C 4.425781 -6.597656 4.070312 -6.703125 3.65625 -6.703125 C 3.0625 -6.710938 2.585938 -6.523438 2.234375 -6.140625 C 1.890625 -5.753906 1.660156 -5.273438 1.546875 -4.703125 Z M 1.546875 -4.703125 "/></g></g></g><g fill="#333333" fill-opacity="1"><g transform="translate(81.469515, 17.629684)"><g/></g></g><g fill="#333333" fill-opacity="1"><g transform="translate(84.34717, 17.629684)"><g><path d="M 3.53125 0.15625 C 2.957031 0.144531 2.441406 -0.00390625 1.984375 -0.296875 C 1.523438 -0.597656 1.160156 -1.007812 0.890625 -1.53125 C 0.628906 -2.050781 0.5 -2.628906 0.5 -3.265625 C 0.5 -3.898438 0.640625 -4.5 0.921875 -5.0625 C 1.203125 -5.625 1.613281 -6.078125 2.15625 -6.421875 C 2.707031 -6.765625 3.375 -6.9375 4.15625 -6.9375 C 4.53125 -6.9375 4.875 -6.882812 5.1875 -6.78125 C 5.507812 -6.6875 5.785156 -6.5625 6.015625 -6.40625 L 6.015625 -9.015625 C 6.015625 -9.335938 5.992188 -9.578125 5.953125 -9.734375 C 5.921875 -9.890625 5.863281 -10.003906 5.78125 -10.078125 C 5.707031 -10.148438 5.601562 -10.21875 5.46875 -10.28125 L 5.46875 -10.421875 L 6.984375 -11.078125 L 7.09375 -10.984375 L 7.09375 -1.75 C 7.09375 -1.1875 7.128906 -0.800781 7.203125 -0.59375 C 7.285156 -0.382812 7.429688 -0.242188 7.640625 -0.171875 L 7.640625 0 L 6.4375 0 C 6.15625 0 6.015625 -0.132812 6.015625 -0.40625 L 6.015625 -1.1875 C 5.679688 -0.84375 5.300781 -0.53125 4.875 -0.25 C 4.457031 0.03125 4.007812 0.164062 3.53125 0.15625 Z M 1.515625 -4.09375 C 1.515625 -3.6875 1.566406 -3.273438 1.671875 -2.859375 C 1.773438 -2.441406 1.925781 -2.054688 2.125 -1.703125 C 2.332031 -1.347656 2.601562 -1.0625 2.9375 -0.84375 C 3.269531 -0.625 3.671875 -0.515625 4.140625 -0.515625 C 4.492188 -0.515625 4.828125 -0.597656 5.140625 -0.765625 C 5.460938 -0.941406 5.753906 -1.164062 6.015625 -1.4375 L 6.015625 -4.796875 C 5.984375 -5.097656 5.859375 -5.394531 5.640625 -5.6875 C 5.421875 -5.976562 5.144531 -6.21875 4.8125 -6.40625 C 4.476562 -6.59375 4.117188 -6.6875 3.734375 -6.6875 C 3.242188 -6.6875 2.832031 -6.570312 2.5 -6.34375 C 2.175781 -6.113281 1.929688 -5.800781 1.765625 -5.40625 C 1.597656 -5.007812 1.515625 -4.570312 1.515625 -4.09375 Z M 1.515625 -4.09375 "/></g></g></g><g fill="#333333" fill-opacity="1"><g transform="translate(92.294972, 17.629684)"><g><path d="M 4.09375 0.140625 C 3.65625 0.140625 3.222656 0.0703125 2.796875 -0.0625 C 2.367188 -0.207031 1.976562 -0.421875 1.625 -0.703125 C 1.28125 -0.984375 1.003906 -1.34375 0.796875 -1.78125 C 0.597656 -2.21875 0.5 -2.734375 0.5 -3.328125 C 0.5 -4.046875 0.664062 -4.675781 1 -5.21875 C 1.34375 -5.757812 1.785156 -6.179688 2.328125 -6.484375 C 2.878906 -6.796875 3.46875 -6.953125 4.09375 -6.953125 C 4.519531 -6.953125 4.941406 -6.882812 5.359375 -6.75 C 5.785156 -6.625 6.171875 -6.414062 6.515625 -6.125 C 6.859375 -5.84375 7.132812 -5.484375 7.34375 -5.046875 C 7.5625 -4.609375 7.671875 -4.082031 7.671875 -3.46875 C 7.671875 -2.882812 7.5625 -2.367188 7.34375 -1.921875 C 7.132812 -1.472656 6.847656 -1.09375 6.484375 -0.78125 C 6.128906 -0.476562 5.738281 -0.25 5.3125 -0.09375 C 4.894531 0.0625 4.488281 0.140625 4.09375 0.140625 Z M 1.546875 -4.109375 C 1.546875 -3.671875 1.613281 -3.222656 1.75 -2.765625 C 1.894531 -2.304688 2.09375 -1.878906 2.34375 -1.484375 C 2.601562 -1.085938 2.910156 -0.765625 3.265625 -0.515625 C 3.628906 -0.273438 4.039062 -0.15625 4.5 -0.15625 C 4.988281 -0.15625 5.390625 -0.269531 5.703125 -0.5 C 6.015625 -0.726562 6.242188 -1.035156 6.390625 -1.421875 C 6.546875 -1.804688 6.625 -2.21875 6.625 -2.65625 C 6.625 -3.09375 6.550781 -3.550781 6.40625 -4.03125 C 6.257812 -4.519531 6.050781 -4.96875 5.78125 -5.375 C 5.507812 -5.789062 5.1875 -6.117188 4.8125 -6.359375 C 4.4375 -6.609375 4.023438 -6.71875 3.578125 -6.6875 C 3.109375 -6.675781 2.722656 -6.550781 2.421875 -6.3125 C 2.117188 -6.070312 1.894531 -5.757812 1.75 -5.375 C 1.613281 -4.988281 1.546875 -4.566406 1.546875 -4.109375 Z M 1.546875 -4.109375 "/></g></g></g><g fill="#333333" fill-opacity="1"><g transform="translate(100.544245, 17.629684)"><g/></g></g><g fill="#333333" fill-opacity="1"><g transform="translate(103.4219, 17.629684)"><g><path d="M 0.96875 -7.984375 C 0.769531 -8.503906 0.585938 -8.859375 0.421875 -9.046875 C 0.253906 -9.234375 0.09375 -9.359375 -0.0625 -9.421875 L -0.0625 -9.609375 L 2.078125 -9.609375 L 2.078125 -9.421875 C 1.878906 -9.359375 1.796875 -9.234375 1.828125 -9.046875 C 1.859375 -8.859375 1.976562 -8.503906 2.1875 -7.984375 L 4.828125 -1.1875 L 7.4375 -7.96875 C 7.613281 -8.425781 7.6875 -8.769531 7.65625 -9 C 7.625 -9.238281 7.488281 -9.378906 7.25 -9.421875 L 7.25 -9.609375 L 8.796875 -9.609375 L 8.796875 -9.421875 C 8.609375 -9.359375 8.425781 -9.234375 8.25 -9.046875 C 8.070312 -8.859375 7.882812 -8.503906 7.6875 -7.984375 L 4.5625 0.0625 L 4.1875 0.0625 Z M 0.96875 -7.984375 "/></g></g></g><g fill="#333333" fill-opacity="1"><g transform="translate(112.137078, 17.629684)"><g><path d="M 5.75 0 C 5.476562 0 5.34375 -0.132812 5.34375 -0.40625 L 5.34375 -2.875 C 5.195312 -2.320312 4.976562 -1.816406 4.6875 -1.359375 C 4.394531 -0.898438 4.054688 -0.535156 3.671875 -0.265625 C 3.285156 0.00390625 2.863281 0.140625 2.40625 0.140625 C 2.0625 0.140625 1.742188 0.0703125 1.453125 -0.0625 C 1.160156 -0.207031 0.925781 -0.410156 0.75 -0.671875 C 0.570312 -0.929688 0.484375 -1.257812 0.484375 -1.65625 C 0.484375 -2.132812 0.625 -2.523438 0.90625 -2.828125 C 1.1875 -3.128906 1.5625 -3.375 2.03125 -3.5625 C 2.507812 -3.757812 3.015625 -3.929688 3.546875 -4.078125 L 5.34375 -4.546875 C 5.300781 -5.222656 5.113281 -5.71875 4.78125 -6.03125 C 4.457031 -6.34375 4.003906 -6.5 3.421875 -6.5 C 3.003906 -6.5 2.597656 -6.398438 2.203125 -6.203125 C 1.816406 -6.003906 1.453125 -5.695312 1.109375 -5.28125 L 0.984375 -5.390625 C 1.378906 -5.878906 1.828125 -6.257812 2.328125 -6.53125 C 2.828125 -6.8125 3.375 -6.953125 3.96875 -6.953125 C 4.800781 -6.953125 5.410156 -6.734375 5.796875 -6.296875 C 6.191406 -5.867188 6.390625 -5.265625 6.390625 -4.484375 L 6.390625 -1.75 C 6.390625 -1.1875 6.425781 -0.800781 6.5 -0.59375 C 6.582031 -0.382812 6.726562 -0.242188 6.9375 -0.171875 L 6.9375 0 Z M 1.515625 -2.046875 C 1.515625 -1.597656 1.644531 -1.253906 1.90625 -1.015625 C 2.175781 -0.785156 2.507812 -0.671875 2.90625 -0.671875 C 3.269531 -0.671875 3.597656 -0.773438 3.890625 -0.984375 C 4.191406 -1.191406 4.445312 -1.457031 4.65625 -1.78125 C 4.875 -2.113281 5.039062 -2.472656 5.15625 -2.859375 C 5.28125 -3.242188 5.34375 -3.613281 5.34375 -3.96875 L 5.34375 -4.375 L 3.609375 -3.90625 C 3.265625 -3.8125 2.929688 -3.6875 2.609375 -3.53125 C 2.285156 -3.382812 2.019531 -3.191406 1.8125 -2.953125 C 1.613281 -2.722656 1.515625 -2.421875 1.515625 -2.046875 Z M 1.515625 -2.046875 "/></g></g></g><g fill="#333333" fill-opacity="1"><g transform="translate(119.399728, 17.629684)"><g><path d="M 0.515625 0 L 0.515625 -0.171875 C 0.734375 -0.242188 0.878906 -0.382812 0.953125 -0.59375 C 1.023438 -0.800781 1.0625 -1.1875 1.0625 -1.75 L 1.0625 -9.015625 C 1.0625 -9.335938 1.039062 -9.578125 1 -9.734375 C 0.96875 -9.890625 0.910156 -10.003906 0.828125 -10.078125 C 0.753906 -10.148438 0.648438 -10.21875 0.515625 -10.28125 L 0.515625 -10.421875 L 2.015625 -11.078125 L 2.140625 -10.984375 L 2.140625 -1.75 C 2.140625 -1.1875 2.175781 -0.800781 2.25 -0.59375 C 2.332031 -0.382812 2.476562 -0.242188 2.6875 -0.171875 L 2.6875 0 Z M 0.515625 0 "/></g></g></g><g fill="#333333" fill-opacity="1"><g transform="translate(122.647365, 17.629684)"><g><path d="M 3.75 0.140625 C 3.375 0.140625 2.992188 0.0703125 2.609375 -0.0625 C 2.222656 -0.207031 1.867188 -0.414062 1.546875 -0.6875 C 1.222656 -0.96875 0.96875 -1.316406 0.78125 -1.734375 C 0.59375 -2.160156 0.5 -2.65625 0.5 -3.21875 C 0.5 -3.96875 0.664062 -4.617188 1 -5.171875 C 1.332031 -5.734375 1.769531 -6.171875 2.3125 -6.484375 C 2.863281 -6.796875 3.460938 -6.953125 4.109375 -6.953125 C 4.679688 -6.953125 5.171875 -6.835938 5.578125 -6.609375 C 5.984375 -6.390625 6.296875 -6.097656 6.515625 -5.734375 C 6.742188 -5.367188 6.863281 -4.96875 6.875 -4.53125 L 1.515625 -4.53125 C 1.484375 -4.320312 1.46875 -4.109375 1.46875 -3.890625 C 1.46875 -3.273438 1.585938 -2.722656 1.828125 -2.234375 C 2.066406 -1.753906 2.410156 -1.382812 2.859375 -1.125 C 3.304688 -0.863281 3.828125 -0.734375 4.421875 -0.734375 C 4.953125 -0.734375 5.410156 -0.84375 5.796875 -1.0625 C 6.191406 -1.28125 6.546875 -1.566406 6.859375 -1.921875 L 6.984375 -1.796875 C 6.753906 -1.472656 6.476562 -1.160156 6.15625 -0.859375 C 5.832031 -0.566406 5.472656 -0.328125 5.078125 -0.140625 C 4.679688 0.046875 4.238281 0.140625 3.75 0.140625 Z M 1.546875 -4.703125 L 5.78125 -4.703125 C 5.726562 -5.015625 5.613281 -5.320312 5.4375 -5.625 C 5.257812 -5.9375 5.019531 -6.191406 4.71875 -6.390625 C 4.425781 -6.597656 4.070312 -6.703125 3.65625 -6.703125 C 3.0625 -6.710938 2.585938 -6.523438 2.234375 -6.140625 C 1.890625 -5.753906 1.660156 -5.273438 1.546875 -4.703125 Z M 1.546875 -4.703125 "/></g></g></g><g fill="#333333" fill-opacity="1"><g transform="translate(36.695721, 26.655495)"><g><path d="M 4.40625 0.0625 L 1.390625 -3.90625 L 1.359375 -3.90625 L 1.359375 -1.203125 C 1.359375 -0.984375 1.363281 -0.8125 1.375 -0.6875 C 1.394531 -0.570312 1.425781 -0.476562 1.46875 -0.40625 C 1.519531 -0.34375 1.582031 -0.300781 1.65625 -0.28125 C 1.738281 -0.257812 1.847656 -0.242188 1.984375 -0.234375 L 1.984375 0 L 0.28125 0 L 0.28125 -0.234375 C 0.425781 -0.242188 0.546875 -0.257812 0.640625 -0.28125 C 0.734375 -0.300781 0.804688 -0.34375 0.859375 -0.40625 C 0.910156 -0.46875 0.941406 -0.554688 0.953125 -0.671875 C 0.972656 -0.796875 0.984375 -0.957031 0.984375 -1.15625 L 0.984375 -3.734375 C 0.984375 -3.910156 0.972656 -4.054688 0.953125 -4.171875 C 0.941406 -4.285156 0.914062 -4.375 0.875 -4.4375 C 0.832031 -4.507812 0.765625 -4.554688 0.671875 -4.578125 C 0.585938 -4.609375 0.476562 -4.628906 0.34375 -4.640625 L 0.34375 -4.890625 L 1.609375 -4.890625 L 4.375 -1.1875 L 4.40625 -1.1875 L 4.40625 -3.6875 C 4.40625 -3.894531 4.394531 -4.0625 4.375 -4.1875 C 4.363281 -4.3125 4.332031 -4.40625 4.28125 -4.46875 C 4.238281 -4.539062 4.175781 -4.585938 4.09375 -4.609375 C 4.019531 -4.628906 3.914062 -4.640625 3.78125 -4.640625 L 3.78125 -4.890625 L 5.484375 -4.890625 L 5.484375 -4.640625 C 5.335938 -4.640625 5.21875 -4.625 5.125 -4.59375 C 5.03125 -4.570312 4.957031 -4.53125 4.90625 -4.46875 C 4.851562 -4.40625 4.816406 -4.3125 4.796875 -4.1875 C 4.785156 -4.070312 4.78125 -3.921875 4.78125 -3.734375 L 4.78125 0.0625 Z M 4.40625 0.0625 "/></g></g></g><g fill="#333333" fill-opacity="1"><g transform="translate(42.424121, 26.655495)"><g><path d="M 2.9375 -2.34375 C 2.9375 -2.519531 2.929688 -2.65625 2.921875 -2.75 C 2.910156 -2.851562 2.882812 -2.929688 2.84375 -2.984375 C 2.8125 -3.035156 2.757812 -3.070312 2.6875 -3.09375 C 2.625 -3.113281 2.53125 -3.128906 2.40625 -3.140625 L 2.40625 -3.359375 L 3.5625 -3.359375 L 3.5625 -1.421875 C 3.5625 -1.171875 3.5625 -0.96875 3.5625 -0.8125 C 3.570312 -0.664062 3.582031 -0.554688 3.59375 -0.484375 C 3.601562 -0.429688 3.617188 -0.382812 3.640625 -0.34375 C 3.660156 -0.3125 3.6875 -0.285156 3.71875 -0.265625 C 3.757812 -0.253906 3.8125 -0.242188 3.875 -0.234375 C 3.9375 -0.234375 4.015625 -0.234375 4.109375 -0.234375 L 4.109375 0 L 3.0625 0.0625 L 3 -0.6875 L 2.96875 -0.6875 C 2.8125 -0.425781 2.625 -0.234375 2.40625 -0.109375 C 2.195312 0.00390625 1.976562 0.0625 1.75 0.0625 C 1.570312 0.0625 1.398438 0.03125 1.234375 -0.03125 C 1.066406 -0.101562 0.941406 -0.195312 0.859375 -0.3125 C 0.785156 -0.40625 0.734375 -0.53125 0.703125 -0.6875 C 0.671875 -0.851562 0.65625 -1.070312 0.65625 -1.34375 L 0.65625 -2.34375 C 0.65625 -2.519531 0.648438 -2.65625 0.640625 -2.75 C 0.640625 -2.851562 0.617188 -2.929688 0.578125 -2.984375 C 0.546875 -3.035156 0.492188 -3.070312 0.421875 -3.09375 C 0.347656 -3.113281 0.253906 -3.128906 0.140625 -3.140625 L 0.140625 -3.359375 L 1.28125 -3.359375 L 1.28125 -1.625 C 1.28125 -1.164062 1.332031 -0.832031 1.4375 -0.625 C 1.550781 -0.414062 1.722656 -0.3125 1.953125 -0.3125 C 2.328125 -0.3125 2.617188 -0.554688 2.828125 -1.046875 C 2.847656 -1.097656 2.863281 -1.144531 2.875 -1.1875 C 2.894531 -1.226562 2.90625 -1.273438 2.90625 -1.328125 C 2.914062 -1.378906 2.921875 -1.4375 2.921875 -1.5 C 2.929688 -1.5625 2.9375 -1.632812 2.9375 -1.71875 Z M 2.9375 -2.34375 "/></g></g></g><g fill="#333333" fill-opacity="1"><g transform="translate(46.679137, 26.655495)"><g><path d="M 0.25 -2.96875 L 0.25 -3.203125 C 0.476562 -3.328125 0.65625 -3.453125 0.78125 -3.578125 C 0.90625 -3.710938 1.003906 -3.875 1.078125 -4.0625 L 1.25 -4.0625 L 1.25 -3.265625 L 2.109375 -3.265625 L 2.109375 -2.96875 L 1.25 -2.96875 L 1.25 -1.03125 C 1.25 -0.882812 1.253906 -0.757812 1.265625 -0.65625 C 1.285156 -0.550781 1.3125 -0.46875 1.34375 -0.40625 C 1.382812 -0.351562 1.429688 -0.3125 1.484375 -0.28125 C 1.535156 -0.257812 1.601562 -0.25 1.6875 -0.25 C 1.800781 -0.25 1.894531 -0.269531 1.96875 -0.3125 C 2.039062 -0.351562 2.113281 -0.429688 2.1875 -0.546875 L 2.34375 -0.421875 C 2.28125 -0.265625 2.175781 -0.144531 2.03125 -0.0625 C 1.882812 0.0195312 1.703125 0.0625 1.484375 0.0625 C 1.210938 0.0625 1.003906 -0.00390625 0.859375 -0.140625 C 0.710938 -0.273438 0.640625 -0.460938 0.640625 -0.703125 L 0.640625 -2.96875 Z M 0.25 -2.96875 "/></g></g></g><g fill="#333333" fill-opacity="1"><g transform="translate(49.079726, 26.655495)"><g><path d="M 1.40625 -1.015625 C 1.40625 -0.835938 1.410156 -0.695312 1.421875 -0.59375 C 1.429688 -0.488281 1.453125 -0.410156 1.484375 -0.359375 C 1.523438 -0.304688 1.578125 -0.269531 1.640625 -0.25 C 1.710938 -0.238281 1.804688 -0.226562 1.921875 -0.21875 L 1.921875 0 L 0.234375 0 L 0.234375 -0.21875 C 0.359375 -0.226562 0.457031 -0.238281 0.53125 -0.25 C 0.601562 -0.269531 0.65625 -0.304688 0.6875 -0.359375 C 0.726562 -0.410156 0.753906 -0.484375 0.765625 -0.578125 C 0.773438 -0.671875 0.78125 -0.800781 0.78125 -0.96875 L 0.78125 -1.703125 C 0.78125 -1.992188 0.773438 -2.21875 0.765625 -2.375 C 0.765625 -2.539062 0.742188 -2.660156 0.703125 -2.734375 C 0.671875 -2.804688 0.617188 -2.847656 0.546875 -2.859375 C 0.472656 -2.878906 0.367188 -2.890625 0.234375 -2.890625 L 0.234375 -3.109375 L 1.34375 -3.359375 L 1.421875 -2.5625 L 1.453125 -2.5625 C 1.503906 -2.695312 1.570312 -2.816406 1.65625 -2.921875 C 1.738281 -3.023438 1.828125 -3.113281 1.921875 -3.1875 C 2.023438 -3.257812 2.128906 -3.316406 2.234375 -3.359375 C 2.335938 -3.398438 2.445312 -3.421875 2.5625 -3.421875 C 2.695312 -3.421875 2.800781 -3.390625 2.875 -3.328125 C 2.957031 -3.265625 3 -3.175781 3 -3.0625 C 3 -2.957031 2.960938 -2.875 2.890625 -2.8125 C 2.828125 -2.757812 2.738281 -2.734375 2.625 -2.734375 C 2.5625 -2.734375 2.503906 -2.742188 2.453125 -2.765625 C 2.410156 -2.785156 2.367188 -2.800781 2.328125 -2.8125 C 2.296875 -2.832031 2.265625 -2.851562 2.234375 -2.875 C 2.203125 -2.894531 2.164062 -2.90625 2.125 -2.90625 C 2.007812 -2.90625 1.894531 -2.832031 1.78125 -2.6875 C 1.664062 -2.539062 1.578125 -2.351562 1.515625 -2.125 C 1.484375 -2 1.457031 -1.859375 1.4375 -1.703125 C 1.414062 -1.554688 1.40625 -1.394531 1.40625 -1.21875 Z M 1.40625 -1.015625 "/></g></g></g><g fill="#333333" fill-opacity="1"><g transform="translate(52.109047, 26.655495)"><g><path d="M 1.453125 -1.015625 C 1.453125 -0.847656 1.457031 -0.710938 1.46875 -0.609375 C 1.476562 -0.515625 1.503906 -0.4375 1.546875 -0.375 C 1.597656 -0.320312 1.660156 -0.285156 1.734375 -0.265625 C 1.804688 -0.242188 1.90625 -0.226562 2.03125 -0.21875 L 2.03125 0 L 0.21875 0 L 0.21875 -0.21875 C 0.34375 -0.226562 0.441406 -0.242188 0.515625 -0.265625 C 0.597656 -0.285156 0.660156 -0.320312 0.703125 -0.375 C 0.753906 -0.425781 0.785156 -0.5 0.796875 -0.59375 C 0.816406 -0.695312 0.828125 -0.820312 0.828125 -0.96875 L 0.828125 -1.78125 C 0.828125 -2.019531 0.820312 -2.21875 0.8125 -2.375 C 0.8125 -2.539062 0.800781 -2.648438 0.78125 -2.703125 C 0.757812 -2.804688 0.707031 -2.875 0.625 -2.90625 C 0.550781 -2.945312 0.410156 -2.96875 0.203125 -2.96875 L 0.203125 -3.1875 L 1.453125 -3.421875 Z M 0.71875 -4.71875 C 0.71875 -4.820312 0.753906 -4.910156 0.828125 -4.984375 C 0.898438 -5.066406 0.992188 -5.109375 1.109375 -5.109375 C 1.222656 -5.109375 1.316406 -5.066406 1.390625 -4.984375 C 1.460938 -4.910156 1.5 -4.820312 1.5 -4.71875 C 1.5 -4.601562 1.460938 -4.503906 1.390625 -4.421875 C 1.316406 -4.347656 1.222656 -4.3125 1.109375 -4.3125 C 0.992188 -4.3125 0.898438 -4.347656 0.828125 -4.421875 C 0.753906 -4.503906 0.71875 -4.601562 0.71875 -4.71875 Z M 0.71875 -4.71875 "/></g></g></g><g fill="#333333" fill-opacity="1"><g transform="translate(54.274658, 26.655495)"><g><path d="M 3.203125 -0.53125 C 3.066406 -0.351562 2.890625 -0.210938 2.671875 -0.109375 C 2.460938 -0.015625 2.226562 0.0390625 1.96875 0.0625 L 1.828125 0.453125 C 2.347656 0.453125 2.609375 0.632812 2.609375 1 C 2.609375 1.207031 2.535156 1.367188 2.390625 1.484375 C 2.253906 1.597656 2.0625 1.65625 1.8125 1.65625 C 1.59375 1.65625 1.414062 1.609375 1.28125 1.515625 C 1.144531 1.429688 1.078125 1.316406 1.078125 1.171875 C 1.078125 1.015625 1.144531 0.9375 1.28125 0.9375 C 1.320312 0.9375 1.359375 0.945312 1.390625 0.96875 C 1.421875 1 1.453125 1.054688 1.484375 1.140625 C 1.523438 1.234375 1.566406 1.296875 1.609375 1.328125 C 1.648438 1.359375 1.707031 1.375 1.78125 1.375 C 1.875 1.375 1.945312 1.34375 2 1.28125 C 2.0625 1.226562 2.09375 1.15625 2.09375 1.0625 C 2.09375 0.832031 1.925781 0.71875 1.59375 0.71875 C 1.5625 0.71875 1.523438 0.71875 1.484375 0.71875 C 1.441406 0.71875 1.40625 0.722656 1.375 0.734375 L 1.34375 0.703125 L 1.625 0.046875 C 1.425781 0.0234375 1.242188 -0.03125 1.078125 -0.125 C 0.921875 -0.21875 0.785156 -0.335938 0.671875 -0.484375 C 0.554688 -0.628906 0.46875 -0.800781 0.40625 -1 C 0.34375 -1.195312 0.3125 -1.414062 0.3125 -1.65625 C 0.3125 -1.925781 0.351562 -2.171875 0.4375 -2.390625 C 0.519531 -2.609375 0.640625 -2.789062 0.796875 -2.9375 C 0.953125 -3.09375 1.140625 -3.210938 1.359375 -3.296875 C 1.578125 -3.378906 1.816406 -3.421875 2.078125 -3.421875 C 2.242188 -3.421875 2.394531 -3.40625 2.53125 -3.375 C 2.664062 -3.351562 2.78125 -3.316406 2.875 -3.265625 C 2.976562 -3.222656 3.054688 -3.164062 3.109375 -3.09375 C 3.160156 -3.019531 3.1875 -2.945312 3.1875 -2.875 C 3.1875 -2.78125 3.160156 -2.707031 3.109375 -2.65625 C 3.054688 -2.613281 2.976562 -2.59375 2.875 -2.59375 C 2.800781 -2.59375 2.738281 -2.609375 2.6875 -2.640625 C 2.632812 -2.679688 2.570312 -2.753906 2.5 -2.859375 C 2.40625 -2.953125 2.316406 -3.019531 2.234375 -3.0625 C 2.160156 -3.101562 2.066406 -3.125 1.953125 -3.125 C 1.648438 -3.125 1.421875 -3.007812 1.265625 -2.78125 C 1.109375 -2.550781 1.03125 -2.207031 1.03125 -1.75 C 1.03125 -1.257812 1.113281 -0.890625 1.28125 -0.640625 C 1.457031 -0.390625 1.710938 -0.265625 2.046875 -0.265625 C 2.222656 -0.265625 2.390625 -0.296875 2.546875 -0.359375 C 2.703125 -0.429688 2.859375 -0.546875 3.015625 -0.703125 Z M 3.203125 -0.53125 "/></g></g></g><g fill="#333333" fill-opacity="1"><g transform="translate(57.678676, 26.655495)"><g><path d="M 2.21875 -1.875 C 1.976562 -1.78125 1.769531 -1.6875 1.59375 -1.59375 C 1.425781 -1.507812 1.289062 -1.421875 1.1875 -1.328125 C 1.09375 -1.242188 1.019531 -1.15625 0.96875 -1.0625 C 0.925781 -0.976562 0.90625 -0.890625 0.90625 -0.796875 C 0.90625 -0.660156 0.953125 -0.546875 1.046875 -0.453125 C 1.140625 -0.367188 1.265625 -0.328125 1.421875 -0.328125 C 1.535156 -0.328125 1.640625 -0.351562 1.734375 -0.40625 C 1.828125 -0.457031 1.910156 -0.53125 1.984375 -0.625 C 2.054688 -0.726562 2.113281 -0.84375 2.15625 -0.96875 C 2.195312 -1.09375 2.21875 -1.226562 2.21875 -1.375 Z M 2.21875 -2.15625 L 2.21875 -2.40625 C 2.21875 -2.925781 1.992188 -3.1875 1.546875 -3.1875 C 1.484375 -3.1875 1.425781 -3.175781 1.375 -3.15625 C 1.320312 -3.144531 1.273438 -3.125 1.234375 -3.09375 C 1.203125 -3.070312 1.171875 -3.03125 1.140625 -2.96875 C 1.117188 -2.914062 1.097656 -2.847656 1.078125 -2.765625 C 1.023438 -2.648438 0.976562 -2.570312 0.9375 -2.53125 C 0.894531 -2.488281 0.832031 -2.46875 0.75 -2.46875 C 0.53125 -2.46875 0.421875 -2.570312 0.421875 -2.78125 C 0.421875 -2.988281 0.53125 -3.144531 0.75 -3.25 C 0.96875 -3.363281 1.273438 -3.421875 1.671875 -3.421875 C 2.085938 -3.421875 2.382812 -3.34375 2.5625 -3.1875 C 2.738281 -3.039062 2.828125 -2.789062 2.828125 -2.4375 L 2.828125 -1.015625 C 2.828125 -0.535156 2.925781 -0.296875 3.125 -0.296875 C 3.175781 -0.296875 3.226562 -0.300781 3.28125 -0.3125 C 3.34375 -0.332031 3.394531 -0.375 3.4375 -0.4375 L 3.515625 -0.28125 C 3.460938 -0.1875 3.367188 -0.101562 3.234375 -0.03125 C 3.097656 0.03125 2.957031 0.0625 2.8125 0.0625 C 2.625 0.0625 2.484375 0.00390625 2.390625 -0.109375 C 2.304688 -0.234375 2.265625 -0.398438 2.265625 -0.609375 L 2.234375 -0.609375 C 2.117188 -0.398438 1.960938 -0.234375 1.765625 -0.109375 C 1.578125 0.00390625 1.363281 0.0625 1.125 0.0625 C 0.863281 0.0625 0.65625 -0.00390625 0.5 -0.140625 C 0.34375 -0.273438 0.265625 -0.457031 0.265625 -0.6875 C 0.265625 -0.789062 0.28125 -0.890625 0.3125 -0.984375 C 0.351562 -1.078125 0.414062 -1.164062 0.5 -1.25 C 0.582031 -1.332031 0.6875 -1.414062 0.8125 -1.5 C 0.945312 -1.582031 1.109375 -1.664062 1.296875 -1.75 Z M 0.609375 -4.1875 C 0.640625 -4.40625 0.71875 -4.578125 0.84375 -4.703125 C 0.96875 -4.835938 1.113281 -4.90625 1.28125 -4.90625 C 1.363281 -4.90625 1.445312 -4.890625 1.53125 -4.859375 C 1.613281 -4.835938 1.691406 -4.804688 1.765625 -4.765625 C 1.847656 -4.722656 1.929688 -4.6875 2.015625 -4.65625 C 2.097656 -4.632812 2.179688 -4.625 2.265625 -4.625 C 2.335938 -4.625 2.394531 -4.640625 2.4375 -4.671875 C 2.476562 -4.710938 2.519531 -4.785156 2.5625 -4.890625 L 2.765625 -4.890625 C 2.742188 -4.671875 2.671875 -4.488281 2.546875 -4.34375 C 2.429688 -4.207031 2.289062 -4.140625 2.125 -4.140625 C 2.039062 -4.140625 1.957031 -4.15625 1.875 -4.1875 C 1.789062 -4.21875 1.703125 -4.25 1.609375 -4.28125 C 1.523438 -4.320312 1.441406 -4.359375 1.359375 -4.390625 C 1.273438 -4.421875 1.191406 -4.4375 1.109375 -4.4375 C 1.023438 -4.4375 0.960938 -4.414062 0.921875 -4.375 C 0.878906 -4.34375 0.84375 -4.28125 0.8125 -4.1875 Z M 0.609375 -4.1875 "/></g></g></g><g fill="#333333" fill-opacity="1"><g transform="translate(61.197001, 26.655495)"><g><path d="M 2.0625 -3.421875 C 2.300781 -3.421875 2.53125 -3.378906 2.75 -3.296875 C 2.96875 -3.210938 3.15625 -3.09375 3.3125 -2.9375 C 3.476562 -2.78125 3.609375 -2.597656 3.703125 -2.390625 C 3.796875 -2.179688 3.84375 -1.953125 3.84375 -1.703125 C 3.84375 -1.441406 3.796875 -1.203125 3.703125 -0.984375 C 3.609375 -0.773438 3.476562 -0.59375 3.3125 -0.4375 C 3.15625 -0.28125 2.96875 -0.15625 2.75 -0.0625 C 2.53125 0.0195312 2.300781 0.0625 2.0625 0.0625 C 1.820312 0.0625 1.59375 0.0195312 1.375 -0.0625 C 1.164062 -0.15625 0.976562 -0.28125 0.8125 -0.4375 C 0.65625 -0.59375 0.53125 -0.773438 0.4375 -0.984375 C 0.34375 -1.203125 0.296875 -1.441406 0.296875 -1.703125 C 0.296875 -1.953125 0.34375 -2.179688 0.4375 -2.390625 C 0.53125 -2.609375 0.65625 -2.789062 0.8125 -2.9375 C 0.976562 -3.09375 1.164062 -3.210938 1.375 -3.296875 C 1.59375 -3.378906 1.820312 -3.421875 2.0625 -3.421875 Z M 2.0625 -3.125 C 1.90625 -3.125 1.757812 -3.085938 1.625 -3.015625 C 1.5 -2.953125 1.390625 -2.859375 1.296875 -2.734375 C 1.210938 -2.609375 1.144531 -2.457031 1.09375 -2.28125 C 1.039062 -2.101562 1.015625 -1.910156 1.015625 -1.703125 C 1.015625 -1.484375 1.039062 -1.285156 1.09375 -1.109375 C 1.144531 -0.929688 1.210938 -0.78125 1.296875 -0.65625 C 1.390625 -0.53125 1.5 -0.429688 1.625 -0.359375 C 1.757812 -0.296875 1.90625 -0.265625 2.0625 -0.265625 C 2.21875 -0.265625 2.363281 -0.296875 2.5 -0.359375 C 2.632812 -0.429688 2.742188 -0.53125 2.828125 -0.65625 C 2.921875 -0.78125 2.992188 -0.929688 3.046875 -1.109375 C 3.097656 -1.285156 3.125 -1.484375 3.125 -1.703125 C 3.125 -1.910156 3.097656 -2.097656 3.046875 -2.265625 C 2.992188 -2.441406 2.921875 -2.59375 2.828125 -2.71875 C 2.742188 -2.84375 2.632812 -2.941406 2.5 -3.015625 C 2.363281 -3.085938 2.21875 -3.125 2.0625 -3.125 Z M 2.0625 -3.125 "/></g></g></g></svg>