<svg xmlns="http://www.w3.org/2000/svg" xmlns:xlink="http://www.w3.org/1999/xlink" width="195" zoomAndPan="magnify" viewBox="0 0 146.25 33.749998" height="45" preserveAspectRatio="xMidYMid meet" version="1.0"><defs><g/><clipPath id="ee28cafc06"><path d="M 2 4.113281 L 30.6875 4.113281 L 30.6875 26 L 2 26 Z M 2 4.113281 " clip-rule="nonzero"/></clipPath><clipPath id="b4698d32b5"><path d="M 1.652344 8 L 30.6875 8 L 30.6875 30.914062 L 1.652344 30.914062 Z M 1.652344 8 " clip-rule="nonzero"/></clipPath></defs><g clip-path="url(#ee28cafc06)"><path fill="#ceaa5b" d="M 14.152344 25.820312 L 7.496094 10.6875 L 10.394531 10.6875 L 14.152344 20.078125 Z M 22.726562 4.117188 L 22.726562 4.480469 L 23.054688 4.480469 C 23.566406 4.480469 23.949219 4.644531 24.207031 4.972656 C 24.464844 5.304688 24.589844 5.605469 24.589844 5.886719 C 24.589844 6.167969 24.542969 6.453125 24.445312 6.742188 L 18.402344 21.214844 L 18.402344 24.941406 L 26.566406 6.742188 C 26.789062 6.234375 27.09375 5.808594 27.484375 5.464844 C 28.167969 4.808594 28.921875 4.480469 29.753906 4.480469 L 30.082031 4.480469 L 30.082031 4.117188 Z M 4.367188 5.046875 C 4.964844 5.421875 5.433594 6 5.777344 6.777344 L 6.226562 7.808594 C 6.617188 7.753906 7.023438 7.730469 7.4375 7.730469 L 9.207031 7.730469 L 8.8125 6.742188 C 8.691406 6.449219 8.632812 6.207031 8.632812 6.011719 C 8.632812 5.820312 8.65625 5.648438 8.703125 5.503906 C 8.949219 4.820312 9.4375 4.480469 10.167969 4.480469 L 10.5 4.480469 L 10.5 4.117188 L 2.261719 4.117188 L 2.261719 4.480469 L 2.554688 4.480469 C 3.164062 4.480469 3.769531 4.671875 4.367188 5.046875 Z M 4.367188 5.046875 " fill-opacity="1" fill-rule="nonzero"/></g><g clip-path="url(#b4698d32b5)"><path fill="#333333" d="M 17.464844 9.753906 L 17.464844 28.28125 C 17.492188 29.15625 17.882812 29.8125 18.636719 30.25 C 19.003906 30.445312 19.394531 30.542969 19.808594 30.542969 L 20.285156 30.542969 L 20.285156 30.90625 L 12.269531 30.90625 L 12.269531 30.542969 L 12.746094 30.542969 C 13.378906 30.542969 13.921875 30.324219 14.375 29.886719 C 14.824219 29.449219 15.0625 28.925781 15.085938 28.320312 L 15.085938 9.753906 L 7.4375 9.753906 C 5.484375 9.753906 4.066406 10.375 3.191406 11.617188 C 2.726562 12.246094 2.496094 12.910156 2.496094 13.605469 C 2.496094 14.296875 2.6875 15.019531 3.078125 15.773438 L 2.785156 15.957031 C 2.03125 15.058594 1.652344 14.164062 1.652344 13.277344 C 1.652344 12.386719 1.859375 11.621094 2.273438 10.976562 C 2.691406 10.332031 3.359375 9.785156 4.289062 9.335938 C 5.214844 8.886719 6.265625 8.660156 7.4375 8.660156 L 22.628906 8.660156 L 22.171875 9.753906 Z M 28.050781 9.335938 C 27.609375 9.121094 27.144531 8.960938 26.648438 8.847656 L 26.195312 9.859375 C 27.492188 10.082031 28.476562 10.667969 29.148438 11.617188 C 29.613281 12.25 29.84375 12.910156 29.84375 13.605469 C 29.84375 14.296875 29.648438 15.019531 29.257812 15.773438 L 29.550781 15.957031 C 30.308594 15.058594 30.6875 14.164062 30.6875 13.277344 C 30.6875 12.386719 30.480469 11.621094 30.0625 10.976562 C 29.648438 10.332031 28.976562 9.785156 28.050781 9.335938 Z M 28.050781 9.335938 " fill-opacity="1" fill-rule="nonzero"/></g><g fill="#333333" fill-opacity="1"><g transform="translate(34.181208, 18.274907)"><g><path d="M 2.921875 0 L 2.921875 -0.1875 C 3.148438 -0.257812 3.304688 -0.40625 3.390625 -0.625 C 3.472656 -0.851562 3.515625 -1.269531 3.515625 -1.875 L 3.515625 -10.0625 L 2.796875 -10.0625 C 2.140625 -10.0625 1.640625 -9.957031 1.296875 -9.75 C 0.953125 -9.550781 0.648438 -9.1875 0.390625 -8.65625 L 0.234375 -8.6875 L 0.328125 -10.296875 L 7.90625 -10.296875 L 8 -8.6875 L 7.828125 -8.65625 C 7.585938 -9.1875 7.296875 -9.550781 6.953125 -9.75 C 6.609375 -9.957031 6.101562 -10.0625 5.4375 -10.0625 L 4.734375 -10.0625 L 4.734375 -1.875 C 4.734375 -1.269531 4.773438 -0.851562 4.859375 -0.625 C 4.941406 -0.40625 5.097656 -0.257812 5.328125 -0.1875 L 5.328125 0 Z M 2.921875 0 "/></g></g></g><g fill="#333333" fill-opacity="1"><g transform="translate(42.415269, 18.274907)"><g><path d="M 6.171875 0 C 5.867188 0 5.71875 -0.144531 5.71875 -0.4375 L 5.71875 -3.09375 C 5.570312 -2.488281 5.34375 -1.941406 5.03125 -1.453125 C 4.71875 -0.960938 4.351562 -0.570312 3.9375 -0.28125 C 3.519531 0 3.066406 0.140625 2.578125 0.140625 C 2.210938 0.140625 1.875 0.0664062 1.5625 -0.078125 C 1.25 -0.222656 0.992188 -0.4375 0.796875 -0.71875 C 0.609375 -1 0.515625 -1.351562 0.515625 -1.78125 C 0.515625 -2.289062 0.664062 -2.707031 0.96875 -3.03125 C 1.269531 -3.351562 1.671875 -3.617188 2.171875 -3.828125 C 2.679688 -4.035156 3.226562 -4.21875 3.8125 -4.375 L 5.71875 -4.890625 C 5.6875 -5.609375 5.492188 -6.132812 5.140625 -6.46875 C 4.785156 -6.8125 4.296875 -6.984375 3.671875 -6.984375 C 3.222656 -6.984375 2.789062 -6.875 2.375 -6.65625 C 1.957031 -6.445312 1.5625 -6.117188 1.1875 -5.671875 L 1.0625 -5.78125 C 1.476562 -6.300781 1.953125 -6.710938 2.484375 -7.015625 C 3.023438 -7.316406 3.613281 -7.46875 4.25 -7.46875 C 5.144531 -7.46875 5.800781 -7.234375 6.21875 -6.765625 C 6.644531 -6.296875 6.859375 -5.644531 6.859375 -4.8125 L 6.859375 -1.875 C 6.859375 -1.269531 6.898438 -0.851562 6.984375 -0.625 C 7.066406 -0.40625 7.222656 -0.257812 7.453125 -0.1875 L 7.453125 0 Z M 1.625 -2.1875 C 1.625 -1.707031 1.765625 -1.34375 2.046875 -1.09375 C 2.335938 -0.84375 2.695312 -0.71875 3.125 -0.71875 C 3.507812 -0.71875 3.863281 -0.828125 4.1875 -1.046875 C 4.507812 -1.273438 4.78125 -1.5625 5 -1.90625 C 5.226562 -2.257812 5.40625 -2.644531 5.53125 -3.0625 C 5.65625 -3.476562 5.71875 -3.875 5.71875 -4.25 L 5.71875 -4.6875 L 3.875 -4.1875 C 3.507812 -4.09375 3.148438 -3.960938 2.796875 -3.796875 C 2.453125 -3.640625 2.171875 -3.429688 1.953125 -3.171875 C 1.734375 -2.921875 1.625 -2.59375 1.625 -2.1875 Z M 1.625 -2.1875 "/></g></g></g><g fill="#333333" fill-opacity="1"><g transform="translate(50.208213, 18.274907)"><g><path d="M 2.78125 0.140625 C 2.320312 0.140625 1.957031 -0.015625 1.6875 -0.328125 C 1.425781 -0.648438 1.296875 -1.191406 1.296875 -1.953125 L 1.296875 -7.15625 L 0.359375 -7.15625 L 0.359375 -7.359375 L 2.234375 -9.171875 L 2.4375 -9.171875 L 2.4375 -7.359375 L 4.6875 -7.359375 L 4.609375 -7.15625 L 2.4375 -7.15625 L 2.4375 -1.953125 C 2.4375 -1.453125 2.53125 -1.097656 2.71875 -0.890625 C 2.914062 -0.679688 3.171875 -0.578125 3.484375 -0.578125 C 3.691406 -0.578125 3.914062 -0.628906 4.15625 -0.734375 C 4.40625 -0.847656 4.65625 -1.050781 4.90625 -1.34375 L 5.03125 -1.203125 C 4.71875 -0.835938 4.367188 -0.519531 3.984375 -0.25 C 3.609375 0.0078125 3.207031 0.140625 2.78125 0.140625 Z M 2.78125 0.140625 "/></g></g></g><g fill="#333333" fill-opacity="1"><g transform="translate(55.266273, 18.274907)"><g><path d="M 0.46875 0 L 0.46875 -0.1875 C 0.695312 -0.257812 0.851562 -0.40625 0.9375 -0.625 C 1.019531 -0.851562 1.0625 -1.269531 1.0625 -1.875 L 1.0625 -5.25 C 1.0625 -5.59375 1.039062 -5.847656 1 -6.015625 C 0.957031 -6.191406 0.890625 -6.316406 0.796875 -6.390625 C 0.710938 -6.472656 0.601562 -6.546875 0.46875 -6.609375 L 0.46875 -6.765625 L 2.09375 -7.484375 L 2.203125 -7.375 L 2.203125 -1.875 C 2.203125 -1.269531 2.242188 -0.851562 2.328125 -0.625 C 2.421875 -0.40625 2.578125 -0.257812 2.796875 -0.1875 L 2.796875 0 Z M 0.734375 -9.1875 C 0.734375 -9.414062 0.8125 -9.609375 0.96875 -9.765625 C 1.125 -9.929688 1.316406 -10.015625 1.546875 -10.015625 C 1.785156 -10.015625 1.976562 -9.929688 2.125 -9.765625 C 2.28125 -9.609375 2.359375 -9.414062 2.359375 -9.1875 C 2.359375 -8.96875 2.28125 -8.773438 2.125 -8.609375 C 1.96875 -8.453125 1.773438 -8.375 1.546875 -8.375 C 1.316406 -8.375 1.125 -8.453125 0.96875 -8.609375 C 0.8125 -8.773438 0.734375 -8.96875 0.734375 -9.1875 Z M 0.734375 -9.1875 "/></g></g></g><g fill="#333333" fill-opacity="1"><g transform="translate(58.574595, 18.274907)"><g><path d="M 6.171875 0 C 5.867188 0 5.71875 -0.144531 5.71875 -0.4375 L 5.71875 -3.09375 C 5.570312 -2.488281 5.34375 -1.941406 5.03125 -1.453125 C 4.71875 -0.960938 4.351562 -0.570312 3.9375 -0.28125 C 3.519531 0 3.066406 0.140625 2.578125 0.140625 C 2.210938 0.140625 1.875 0.0664062 1.5625 -0.078125 C 1.25 -0.222656 0.992188 -0.4375 0.796875 -0.71875 C 0.609375 -1 0.515625 -1.351562 0.515625 -1.78125 C 0.515625 -2.289062 0.664062 -2.707031 0.96875 -3.03125 C 1.269531 -3.351562 1.671875 -3.617188 2.171875 -3.828125 C 2.679688 -4.035156 3.226562 -4.21875 3.8125 -4.375 L 5.71875 -4.890625 C 5.6875 -5.609375 5.492188 -6.132812 5.140625 -6.46875 C 4.785156 -6.8125 4.296875 -6.984375 3.671875 -6.984375 C 3.222656 -6.984375 2.789062 -6.875 2.375 -6.65625 C 1.957031 -6.445312 1.5625 -6.117188 1.1875 -5.671875 L 1.0625 -5.78125 C 1.476562 -6.300781 1.953125 -6.710938 2.484375 -7.015625 C 3.023438 -7.316406 3.613281 -7.46875 4.25 -7.46875 C 5.144531 -7.46875 5.800781 -7.234375 6.21875 -6.765625 C 6.644531 -6.296875 6.859375 -5.644531 6.859375 -4.8125 L 6.859375 -1.875 C 6.859375 -1.269531 6.898438 -0.851562 6.984375 -0.625 C 7.066406 -0.40625 7.222656 -0.257812 7.453125 -0.1875 L 7.453125 0 Z M 1.625 -2.1875 C 1.625 -1.707031 1.765625 -1.34375 2.046875 -1.09375 C 2.335938 -0.84375 2.695312 -0.71875 3.125 -0.71875 C 3.507812 -0.71875 3.863281 -0.828125 4.1875 -1.046875 C 4.507812 -1.273438 4.78125 -1.5625 5 -1.90625 C 5.226562 -2.257812 5.40625 -2.644531 5.53125 -3.0625 C 5.65625 -3.476562 5.71875 -3.875 5.71875 -4.25 L 5.71875 -4.6875 L 3.875 -4.1875 C 3.507812 -4.09375 3.148438 -3.960938 2.796875 -3.796875 C 2.453125 -3.640625 2.171875 -3.429688 1.953125 -3.171875 C 1.734375 -2.921875 1.625 -2.59375 1.625 -2.1875 Z M 1.625 -2.1875 "/></g></g></g><g fill="#333333" fill-opacity="1"><g transform="translate(66.367539, 18.274907)"><g><path d="M 0.46875 0 L 0.46875 -0.1875 C 0.695312 -0.257812 0.851562 -0.40625 0.9375 -0.625 C 1.019531 -0.851562 1.0625 -1.269531 1.0625 -1.875 L 1.0625 -5.25 C 1.0625 -5.59375 1.039062 -5.847656 1 -6.015625 C 0.957031 -6.191406 0.890625 -6.316406 0.796875 -6.390625 C 0.710938 -6.472656 0.601562 -6.546875 0.46875 -6.609375 L 0.46875 -6.765625 L 2.09375 -7.484375 L 2.203125 -7.375 L 2.203125 -6.109375 C 2.640625 -6.453125 3.125 -6.765625 3.65625 -7.046875 C 4.195312 -7.328125 4.753906 -7.46875 5.328125 -7.46875 C 6.054688 -7.46875 6.625 -7.253906 7.03125 -6.828125 C 7.445312 -6.410156 7.65625 -5.769531 7.65625 -4.90625 L 7.65625 -1.875 C 7.65625 -1.269531 7.695312 -0.851562 7.78125 -0.625 C 7.863281 -0.40625 8.019531 -0.257812 8.25 -0.1875 L 8.25 0 L 5.921875 0 L 5.921875 -0.1875 C 6.140625 -0.257812 6.289062 -0.40625 6.375 -0.625 C 6.457031 -0.851562 6.5 -1.269531 6.5 -1.875 L 6.5 -4.609375 C 6.5 -5.367188 6.335938 -5.953125 6.015625 -6.359375 C 5.691406 -6.773438 5.207031 -6.984375 4.5625 -6.984375 C 4.15625 -6.984375 3.753906 -6.875 3.359375 -6.65625 C 2.960938 -6.445312 2.578125 -6.1875 2.203125 -5.875 L 2.203125 -1.875 C 2.203125 -1.269531 2.242188 -0.851562 2.328125 -0.625 C 2.421875 -0.40625 2.578125 -0.257812 2.796875 -0.1875 L 2.796875 0 Z M 0.46875 0 "/></g></g></g><g fill="#333333" fill-opacity="1"><g transform="translate(74.954485, 18.274907)"><g><path d="M 4.015625 0.140625 C 3.617188 0.140625 3.210938 0.0664062 2.796875 -0.078125 C 2.378906 -0.222656 2 -0.441406 1.65625 -0.734375 C 1.3125 -1.035156 1.035156 -1.410156 0.828125 -1.859375 C 0.628906 -2.316406 0.53125 -2.847656 0.53125 -3.453125 C 0.53125 -4.265625 0.707031 -4.96875 1.0625 -5.5625 C 1.425781 -6.164062 1.898438 -6.632812 2.484375 -6.96875 C 3.078125 -7.300781 3.71875 -7.46875 4.40625 -7.46875 C 5.019531 -7.46875 5.546875 -7.34375 5.984375 -7.09375 C 6.421875 -6.851562 6.757812 -6.535156 7 -6.140625 C 7.238281 -5.753906 7.363281 -5.328125 7.375 -4.859375 L 1.625 -4.859375 C 1.59375 -4.640625 1.578125 -4.414062 1.578125 -4.1875 C 1.578125 -3.507812 1.707031 -2.914062 1.96875 -2.40625 C 2.226562 -1.894531 2.59375 -1.492188 3.0625 -1.203125 C 3.539062 -0.921875 4.097656 -0.78125 4.734375 -0.78125 C 5.304688 -0.78125 5.800781 -0.894531 6.21875 -1.125 C 6.644531 -1.363281 7.023438 -1.675781 7.359375 -2.0625 L 7.484375 -1.921875 C 7.242188 -1.578125 6.953125 -1.242188 6.609375 -0.921875 C 6.265625 -0.609375 5.878906 -0.351562 5.453125 -0.15625 C 5.023438 0.0390625 4.546875 0.140625 4.015625 0.140625 Z M 1.65625 -5.046875 L 6.203125 -5.046875 C 6.148438 -5.378906 6.023438 -5.707031 5.828125 -6.03125 C 5.640625 -6.363281 5.382812 -6.640625 5.0625 -6.859375 C 4.75 -7.085938 4.367188 -7.203125 3.921875 -7.203125 C 3.285156 -7.210938 2.78125 -7.007812 2.40625 -6.59375 C 2.03125 -6.175781 1.78125 -5.660156 1.65625 -5.046875 Z M 1.65625 -5.046875 "/></g></g></g><g fill="#333333" fill-opacity="1"><g transform="translate(82.850361, 18.274907)"><g/></g></g><g fill="#333333" fill-opacity="1"><g transform="translate(85.93813, 18.274907)"><g><path d="M 3.78125 0.15625 C 3.175781 0.144531 2.625 -0.015625 2.125 -0.328125 C 1.632812 -0.648438 1.242188 -1.085938 0.953125 -1.640625 C 0.671875 -2.191406 0.53125 -2.8125 0.53125 -3.5 C 0.53125 -4.1875 0.679688 -4.828125 0.984375 -5.421875 C 1.285156 -6.023438 1.726562 -6.515625 2.3125 -6.890625 C 2.894531 -7.265625 3.609375 -7.453125 4.453125 -7.453125 C 4.859375 -7.453125 5.226562 -7.394531 5.5625 -7.28125 C 5.90625 -7.175781 6.207031 -7.039062 6.46875 -6.875 L 6.46875 -9.671875 C 6.46875 -10.015625 6.441406 -10.269531 6.390625 -10.4375 C 6.347656 -10.613281 6.285156 -10.738281 6.203125 -10.8125 C 6.117188 -10.894531 6.007812 -10.96875 5.875 -11.03125 L 5.875 -11.1875 L 7.484375 -11.890625 L 7.609375 -11.796875 L 7.609375 -1.875 C 7.609375 -1.269531 7.648438 -0.851562 7.734375 -0.625 C 7.816406 -0.40625 7.972656 -0.257812 8.203125 -0.1875 L 8.203125 0 L 6.90625 0 C 6.613281 0 6.46875 -0.144531 6.46875 -0.4375 L 6.46875 -1.28125 C 6.101562 -0.90625 5.691406 -0.566406 5.234375 -0.265625 C 4.785156 0.0234375 4.300781 0.164062 3.78125 0.15625 Z M 1.640625 -4.390625 C 1.640625 -3.953125 1.691406 -3.507812 1.796875 -3.0625 C 1.898438 -2.625 2.0625 -2.210938 2.28125 -1.828125 C 2.507812 -1.441406 2.800781 -1.132812 3.15625 -0.90625 C 3.507812 -0.675781 3.9375 -0.5625 4.4375 -0.5625 C 4.820312 -0.5625 5.179688 -0.648438 5.515625 -0.828125 C 5.859375 -1.015625 6.175781 -1.253906 6.46875 -1.546875 L 6.46875 -5.15625 C 6.425781 -5.476562 6.285156 -5.789062 6.046875 -6.09375 C 5.816406 -6.40625 5.519531 -6.660156 5.15625 -6.859375 C 4.800781 -7.066406 4.414062 -7.171875 4 -7.171875 C 3.476562 -7.171875 3.039062 -7.046875 2.6875 -6.796875 C 2.332031 -6.554688 2.066406 -6.222656 1.890625 -5.796875 C 1.722656 -5.378906 1.640625 -4.910156 1.640625 -4.390625 Z M 1.640625 -4.390625 "/></g></g></g><g fill="#333333" fill-opacity="1"><g transform="translate(94.466255, 18.274907)"><g><path d="M 4.390625 0.140625 C 3.921875 0.140625 3.457031 0.0664062 3 -0.078125 C 2.539062 -0.222656 2.125 -0.445312 1.75 -0.75 C 1.375 -1.050781 1.078125 -1.4375 0.859375 -1.90625 C 0.640625 -2.382812 0.53125 -2.941406 0.53125 -3.578125 C 0.53125 -4.335938 0.710938 -5.007812 1.078125 -5.59375 C 1.441406 -6.175781 1.914062 -6.632812 2.5 -6.96875 C 3.09375 -7.300781 3.722656 -7.46875 4.390625 -7.46875 C 4.847656 -7.46875 5.300781 -7.394531 5.75 -7.25 C 6.207031 -7.101562 6.617188 -6.878906 6.984375 -6.578125 C 7.359375 -6.273438 7.660156 -5.882812 7.890625 -5.40625 C 8.117188 -4.9375 8.234375 -4.375 8.234375 -3.71875 C 8.234375 -3.09375 8.113281 -2.539062 7.875 -2.0625 C 7.644531 -1.582031 7.335938 -1.175781 6.953125 -0.84375 C 6.578125 -0.519531 6.160156 -0.273438 5.703125 -0.109375 C 5.253906 0.0546875 4.816406 0.140625 4.390625 0.140625 Z M 1.65625 -4.421875 C 1.65625 -3.941406 1.726562 -3.453125 1.875 -2.953125 C 2.03125 -2.460938 2.242188 -2.003906 2.515625 -1.578125 C 2.785156 -1.160156 3.113281 -0.816406 3.5 -0.546875 C 3.894531 -0.285156 4.335938 -0.15625 4.828125 -0.15625 C 5.359375 -0.15625 5.789062 -0.28125 6.125 -0.53125 C 6.457031 -0.78125 6.703125 -1.113281 6.859375 -1.53125 C 7.023438 -1.945312 7.109375 -2.390625 7.109375 -2.859375 C 7.109375 -3.328125 7.03125 -3.816406 6.875 -4.328125 C 6.71875 -4.847656 6.492188 -5.328125 6.203125 -5.765625 C 5.910156 -6.210938 5.5625 -6.566406 5.15625 -6.828125 C 4.757812 -7.097656 4.320312 -7.21875 3.84375 -7.1875 C 3.34375 -7.164062 2.929688 -7.023438 2.609375 -6.765625 C 2.285156 -6.515625 2.046875 -6.179688 1.890625 -5.765625 C 1.734375 -5.359375 1.65625 -4.910156 1.65625 -4.421875 Z M 1.65625 -4.421875 "/></g></g></g><g fill="#333333" fill-opacity="1"><g transform="translate(103.317866, 18.274907)"><g/></g></g><g fill="#333333" fill-opacity="1"><g transform="translate(106.405635, 18.274907)"><g><path d="M 1.046875 -8.5625 C 0.828125 -9.125 0.625 -9.503906 0.4375 -9.703125 C 0.257812 -9.910156 0.09375 -10.046875 -0.0625 -10.109375 L -0.0625 -10.296875 L 2.234375 -10.296875 L 2.234375 -10.109375 C 2.015625 -10.046875 1.921875 -9.910156 1.953125 -9.703125 C 1.992188 -9.503906 2.125 -9.125 2.34375 -8.5625 L 5.1875 -1.28125 L 7.984375 -8.546875 C 8.160156 -9.035156 8.234375 -9.40625 8.203125 -9.65625 C 8.179688 -9.90625 8.039062 -10.054688 7.78125 -10.109375 L 7.78125 -10.296875 L 9.4375 -10.296875 L 9.4375 -10.109375 C 9.238281 -10.046875 9.039062 -9.910156 8.84375 -9.703125 C 8.65625 -9.503906 8.457031 -9.125 8.25 -8.5625 L 4.90625 0.078125 L 4.484375 0.078125 Z M 1.046875 -8.5625 "/></g></g></g><g fill="#333333" fill-opacity="1"><g transform="translate(115.757174, 18.274907)"><g><path d="M 6.171875 0 C 5.867188 0 5.71875 -0.144531 5.71875 -0.4375 L 5.71875 -3.09375 C 5.570312 -2.488281 5.34375 -1.941406 5.03125 -1.453125 C 4.71875 -0.960938 4.351562 -0.570312 3.9375 -0.28125 C 3.519531 0 3.066406 0.140625 2.578125 0.140625 C 2.210938 0.140625 1.875 0.0664062 1.5625 -0.078125 C 1.25 -0.222656 0.992188 -0.4375 0.796875 -0.71875 C 0.609375 -1 0.515625 -1.351562 0.515625 -1.78125 C 0.515625 -2.289062 0.664062 -2.707031 0.96875 -3.03125 C 1.269531 -3.351562 1.671875 -3.617188 2.171875 -3.828125 C 2.679688 -4.035156 3.226562 -4.21875 3.8125 -4.375 L 5.71875 -4.890625 C 5.6875 -5.609375 5.492188 -6.132812 5.140625 -6.46875 C 4.785156 -6.8125 4.296875 -6.984375 3.671875 -6.984375 C 3.222656 -6.984375 2.789062 -6.875 2.375 -6.65625 C 1.957031 -6.445312 1.5625 -6.117188 1.1875 -5.671875 L 1.0625 -5.78125 C 1.476562 -6.300781 1.953125 -6.710938 2.484375 -7.015625 C 3.023438 -7.316406 3.613281 -7.46875 4.25 -7.46875 C 5.144531 -7.46875 5.800781 -7.234375 6.21875 -6.765625 C 6.644531 -6.296875 6.859375 -5.644531 6.859375 -4.8125 L 6.859375 -1.875 C 6.859375 -1.269531 6.898438 -0.851562 6.984375 -0.625 C 7.066406 -0.40625 7.222656 -0.257812 7.453125 -0.1875 L 7.453125 0 Z M 1.625 -2.1875 C 1.625 -1.707031 1.765625 -1.34375 2.046875 -1.09375 C 2.335938 -0.84375 2.695312 -0.71875 3.125 -0.71875 C 3.507812 -0.71875 3.863281 -0.828125 4.1875 -1.046875 C 4.507812 -1.273438 4.78125 -1.5625 5 -1.90625 C 5.226562 -2.257812 5.40625 -2.644531 5.53125 -3.0625 C 5.65625 -3.476562 5.71875 -3.875 5.71875 -4.25 L 5.71875 -4.6875 L 3.875 -4.1875 C 3.507812 -4.09375 3.148438 -3.960938 2.796875 -3.796875 C 2.453125 -3.640625 2.171875 -3.429688 1.953125 -3.171875 C 1.734375 -2.921875 1.625 -2.59375 1.625 -2.1875 Z M 1.625 -2.1875 "/></g></g></g><g fill="#333333" fill-opacity="1"><g transform="translate(123.550117, 18.274907)"><g><path d="M 0.5625 0 L 0.5625 -0.1875 C 0.78125 -0.257812 0.929688 -0.40625 1.015625 -0.625 C 1.097656 -0.851562 1.140625 -1.269531 1.140625 -1.875 L 1.140625 -9.671875 C 1.140625 -10.015625 1.117188 -10.269531 1.078125 -10.4375 C 1.035156 -10.613281 0.972656 -10.738281 0.890625 -10.8125 C 0.804688 -10.894531 0.695312 -10.96875 0.5625 -11.03125 L 0.5625 -11.1875 L 2.15625 -11.890625 L 2.296875 -11.796875 L 2.296875 -1.875 C 2.296875 -1.269531 2.335938 -0.851562 2.421875 -0.625 C 2.503906 -0.40625 2.660156 -0.257812 2.890625 -0.1875 L 2.890625 0 Z M 0.5625 0 "/></g></g></g><g fill="#333333" fill-opacity="1"><g transform="translate(127.034882, 18.274907)"><g><path d="M 4.015625 0.140625 C 3.617188 0.140625 3.210938 0.0664062 2.796875 -0.078125 C 2.378906 -0.222656 2 -0.441406 1.65625 -0.734375 C 1.3125 -1.035156 1.035156 -1.410156 0.828125 -1.859375 C 0.628906 -2.316406 0.53125 -2.847656 0.53125 -3.453125 C 0.53125 -4.265625 0.707031 -4.96875 1.0625 -5.5625 C 1.425781 -6.164062 1.898438 -6.632812 2.484375 -6.96875 C 3.078125 -7.300781 3.71875 -7.46875 4.40625 -7.46875 C 5.019531 -7.46875 5.546875 -7.34375 5.984375 -7.09375 C 6.421875 -6.851562 6.757812 -6.535156 7 -6.140625 C 7.238281 -5.753906 7.363281 -5.328125 7.375 -4.859375 L 1.625 -4.859375 C 1.59375 -4.640625 1.578125 -4.414062 1.578125 -4.1875 C 1.578125 -3.507812 1.707031 -2.914062 1.96875 -2.40625 C 2.226562 -1.894531 2.59375 -1.492188 3.0625 -1.203125 C 3.539062 -0.921875 4.097656 -0.78125 4.734375 -0.78125 C 5.304688 -0.78125 5.800781 -0.894531 6.21875 -1.125 C 6.644531 -1.363281 7.023438 -1.675781 7.359375 -2.0625 L 7.484375 -1.921875 C 7.242188 -1.578125 6.953125 -1.242188 6.609375 -0.921875 C 6.265625 -0.609375 5.878906 -0.351562 5.453125 -0.15625 C 5.023438 0.0390625 4.546875 0.140625 4.015625 0.140625 Z M 1.65625 -5.046875 L 6.203125 -5.046875 C 6.148438 -5.378906 6.023438 -5.707031 5.828125 -6.03125 C 5.640625 -6.363281 5.382812 -6.640625 5.0625 -6.859375 C 4.75 -7.085938 4.367188 -7.203125 3.921875 -7.203125 C 3.285156 -7.210938 2.78125 -7.007812 2.40625 -6.59375 C 2.03125 -6.175781 1.78125 -5.660156 1.65625 -5.046875 Z M 1.65625 -5.046875 "/></g></g></g><g fill="#333333" fill-opacity="1"><g transform="translate(34.329389, 29.550625)"><g><path d="M 4.265625 0 L 2.328125 -4.421875 L 2.3125 -4.421875 L 1.46875 -1.234375 C 1.4375 -1.117188 1.421875 -1.015625 1.421875 -0.921875 C 1.421875 -0.710938 1.484375 -0.554688 1.609375 -0.453125 C 1.734375 -0.347656 1.90625 -0.296875 2.125 -0.296875 L 2.03125 0 L -0.0625 0 L 0.015625 -0.296875 C 0.242188 -0.296875 0.445312 -0.375 0.625 -0.53125 C 0.8125 -0.695312 0.9375 -0.90625 1 -1.15625 L 1.875 -4.421875 C 1.894531 -4.492188 1.90625 -4.570312 1.90625 -4.65625 C 1.90625 -4.882812 1.804688 -5.054688 1.609375 -5.171875 C 1.410156 -5.296875 1.148438 -5.359375 0.828125 -5.359375 L 0.90625 -5.65625 L 2.640625 -5.65625 L 4.46875 -1.453125 L 4.5 -1.453125 L 5.28125 -4.421875 C 5.300781 -4.523438 5.3125 -4.613281 5.3125 -4.6875 C 5.3125 -4.90625 5.25 -5.070312 5.125 -5.1875 C 5.007812 -5.300781 4.867188 -5.359375 4.703125 -5.359375 L 4.78125 -5.65625 L 6.671875 -5.65625 L 6.59375 -5.359375 C 6.5 -5.359375 6.40625 -5.335938 6.3125 -5.296875 C 6.226562 -5.253906 6.148438 -5.191406 6.078125 -5.109375 C 6.003906 -5.035156 5.9375 -4.941406 5.875 -4.828125 C 5.820312 -4.722656 5.78125 -4.613281 5.75 -4.5 L 4.546875 0 Z M 4.265625 0 "/></g></g></g><g fill="#333333" fill-opacity="1"><g transform="translate(40.512543, 29.550625)"><g><path d="M 1.234375 -0.453125 C 1.316406 -0.453125 1.421875 -0.503906 1.546875 -0.609375 C 1.671875 -0.722656 1.804688 -0.875 1.953125 -1.0625 C 2.097656 -1.25 2.238281 -1.457031 2.375 -1.6875 C 2.507812 -1.925781 2.617188 -2.171875 2.703125 -2.421875 L 3.25 -3.890625 L 3.9375 -3.890625 L 3.390625 -2.203125 C 3.316406 -1.960938 3.25 -1.753906 3.1875 -1.578125 C 3.132812 -1.410156 3.09375 -1.265625 3.0625 -1.140625 C 3.03125 -1.023438 3.003906 -0.925781 2.984375 -0.84375 C 2.972656 -0.769531 2.96875 -0.710938 2.96875 -0.671875 C 2.96875 -0.546875 3.007812 -0.484375 3.09375 -0.484375 C 3.144531 -0.484375 3.203125 -0.503906 3.265625 -0.546875 C 3.335938 -0.585938 3.410156 -0.648438 3.484375 -0.734375 C 3.554688 -0.816406 3.625 -0.90625 3.6875 -1 C 3.757812 -1.101562 3.816406 -1.210938 3.859375 -1.328125 L 4.078125 -1.21875 C 4.015625 -1.0625 3.929688 -0.90625 3.828125 -0.75 C 3.722656 -0.59375 3.609375 -0.453125 3.484375 -0.328125 C 3.367188 -0.203125 3.242188 -0.101562 3.109375 -0.03125 C 2.984375 0.0390625 2.859375 0.078125 2.734375 0.078125 C 2.578125 0.078125 2.472656 0.0234375 2.421875 -0.078125 C 2.367188 -0.191406 2.34375 -0.347656 2.34375 -0.546875 C 2.34375 -0.628906 2.34375 -0.71875 2.34375 -0.8125 C 2.351562 -0.914062 2.367188 -1.015625 2.390625 -1.109375 L 2.375 -1.125 C 2.238281 -0.882812 2.109375 -0.6875 1.984375 -0.53125 C 1.859375 -0.382812 1.738281 -0.265625 1.625 -0.171875 C 1.507812 -0.078125 1.394531 -0.015625 1.28125 0.015625 C 1.164062 0.0546875 1.054688 0.078125 0.953125 0.078125 C 0.722656 0.078125 0.5625 0.015625 0.46875 -0.109375 C 0.375 -0.242188 0.328125 -0.40625 0.328125 -0.59375 C 0.328125 -0.789062 0.363281 -1.015625 0.4375 -1.265625 C 0.519531 -1.515625 0.609375 -1.75 0.703125 -1.96875 C 0.785156 -2.1875 0.859375 -2.367188 0.921875 -2.515625 C 0.984375 -2.671875 1.03125 -2.800781 1.0625 -2.90625 C 1.101562 -3.007812 1.128906 -3.09375 1.140625 -3.15625 C 1.160156 -3.21875 1.171875 -3.269531 1.171875 -3.3125 C 1.171875 -3.332031 1.164062 -3.347656 1.15625 -3.359375 C 1.15625 -3.378906 1.140625 -3.390625 1.109375 -3.390625 C 1.046875 -3.390625 0.953125 -3.332031 0.828125 -3.21875 C 0.710938 -3.113281 0.550781 -2.9375 0.34375 -2.6875 L 0.15625 -2.78125 C 0.226562 -2.925781 0.320312 -3.066406 0.4375 -3.203125 C 0.550781 -3.347656 0.671875 -3.476562 0.796875 -3.59375 C 0.921875 -3.707031 1.050781 -3.796875 1.1875 -3.859375 C 1.320312 -3.929688 1.453125 -3.96875 1.578125 -3.96875 C 1.816406 -3.96875 1.9375 -3.828125 1.9375 -3.546875 C 1.9375 -3.367188 1.890625 -3.144531 1.796875 -2.875 C 1.703125 -2.601562 1.578125 -2.28125 1.421875 -1.90625 C 1.328125 -1.664062 1.25 -1.445312 1.1875 -1.25 C 1.125 -1.0625 1.09375 -0.890625 1.09375 -0.734375 C 1.09375 -0.628906 1.101562 -0.554688 1.125 -0.515625 C 1.15625 -0.472656 1.191406 -0.453125 1.234375 -0.453125 Z M 1.234375 -0.453125 "/></g></g></g><g fill="#333333" fill-opacity="1"><g transform="translate(44.867186, 29.550625)"><g><path d="M 1.71875 -3.28125 L 1.109375 -1.265625 C 1.023438 -0.992188 0.984375 -0.789062 0.984375 -0.65625 C 0.984375 -0.613281 0.992188 -0.570312 1.015625 -0.53125 C 1.035156 -0.5 1.070312 -0.484375 1.125 -0.484375 C 1.21875 -0.484375 1.3125 -0.515625 1.40625 -0.578125 C 1.507812 -0.648438 1.601562 -0.734375 1.6875 -0.828125 C 1.78125 -0.921875 1.863281 -1.015625 1.9375 -1.109375 C 2.007812 -1.203125 2.0625 -1.273438 2.09375 -1.328125 L 2.3125 -1.203125 C 2.226562 -1.035156 2.117188 -0.875 1.984375 -0.71875 C 1.859375 -0.5625 1.722656 -0.425781 1.578125 -0.3125 C 1.441406 -0.195312 1.300781 -0.101562 1.15625 -0.03125 C 1.007812 0.0390625 0.878906 0.078125 0.765625 0.078125 C 0.585938 0.078125 0.460938 0.0390625 0.390625 -0.03125 C 0.316406 -0.101562 0.28125 -0.226562 0.28125 -0.40625 C 0.28125 -0.5 0.296875 -0.628906 0.328125 -0.796875 C 0.359375 -0.960938 0.414062 -1.191406 0.5 -1.484375 L 1.046875 -3.28125 L 0.421875 -3.28125 L 0.515625 -3.625 L 1.15625 -3.625 L 1.53125 -4.890625 L 2.203125 -4.890625 L 1.828125 -3.625 L 2.625 -3.625 L 2.53125 -3.28125 Z M 1.71875 -3.28125 "/></g></g></g><g fill="#333333" fill-opacity="1"><g transform="translate(47.547537, 29.550625)"><g><path d="M 0.15625 -2.875 C 0.207031 -3 0.285156 -3.125 0.390625 -3.25 C 0.503906 -3.375 0.625 -3.488281 0.75 -3.59375 C 0.882812 -3.707031 1.015625 -3.796875 1.140625 -3.859375 C 1.273438 -3.929688 1.394531 -3.96875 1.5 -3.96875 C 1.613281 -3.96875 1.695312 -3.921875 1.75 -3.828125 C 1.8125 -3.742188 1.84375 -3.601562 1.84375 -3.40625 C 1.84375 -3.332031 1.835938 -3.253906 1.828125 -3.171875 C 1.816406 -3.097656 1.800781 -3.015625 1.78125 -2.921875 L 1.8125 -2.90625 C 1.863281 -3.039062 1.941406 -3.175781 2.046875 -3.3125 C 2.160156 -3.457031 2.28125 -3.582031 2.40625 -3.6875 C 2.53125 -3.789062 2.65625 -3.875 2.78125 -3.9375 C 2.914062 -4.007812 3.039062 -4.046875 3.15625 -4.046875 C 3.289062 -4.046875 3.40625 -4 3.5 -3.90625 C 3.601562 -3.8125 3.65625 -3.695312 3.65625 -3.5625 C 3.65625 -3.4375 3.613281 -3.332031 3.53125 -3.25 C 3.445312 -3.164062 3.34375 -3.125 3.21875 -3.125 C 3.132812 -3.125 3.066406 -3.140625 3.015625 -3.171875 C 2.972656 -3.203125 2.9375 -3.234375 2.90625 -3.265625 C 2.875 -3.296875 2.84375 -3.328125 2.8125 -3.359375 C 2.78125 -3.390625 2.742188 -3.40625 2.703125 -3.40625 C 2.609375 -3.40625 2.5 -3.34375 2.375 -3.21875 C 2.257812 -3.09375 2.132812 -2.921875 2 -2.703125 C 1.863281 -2.484375 1.726562 -2.226562 1.59375 -1.9375 C 1.46875 -1.65625 1.351562 -1.347656 1.25 -1.015625 L 0.921875 0 L 0.234375 0 L 0.71875 -1.515625 C 0.8125 -1.804688 0.882812 -2.050781 0.9375 -2.25 C 1 -2.445312 1.046875 -2.609375 1.078125 -2.734375 C 1.117188 -2.867188 1.144531 -2.972656 1.15625 -3.046875 C 1.164062 -3.117188 1.171875 -3.179688 1.171875 -3.234375 C 1.171875 -3.335938 1.132812 -3.390625 1.0625 -3.390625 C 1.007812 -3.390625 0.945312 -3.367188 0.875 -3.328125 C 0.8125 -3.296875 0.742188 -3.25 0.671875 -3.1875 C 0.609375 -3.125 0.546875 -3.054688 0.484375 -2.984375 C 0.421875 -2.910156 0.375 -2.84375 0.34375 -2.78125 Z M 0.15625 -2.875 "/></g></g></g><g fill="#333333" fill-opacity="1"><g transform="translate(50.947544, 29.550625)"><g><path d="M 0.96875 -2.421875 C 1.03125 -2.609375 1.078125 -2.757812 1.109375 -2.875 C 1.140625 -3 1.15625 -3.097656 1.15625 -3.171875 C 1.15625 -3.234375 1.144531 -3.273438 1.125 -3.296875 C 1.101562 -3.316406 1.078125 -3.328125 1.046875 -3.328125 C 0.992188 -3.328125 0.9375 -3.300781 0.875 -3.25 C 0.8125 -3.207031 0.75 -3.148438 0.6875 -3.078125 C 0.625 -3.003906 0.566406 -2.929688 0.515625 -2.859375 C 0.460938 -2.796875 0.425781 -2.742188 0.40625 -2.703125 L 0.203125 -2.84375 C 0.253906 -2.945312 0.332031 -3.066406 0.4375 -3.203125 C 0.550781 -3.335938 0.671875 -3.457031 0.796875 -3.5625 C 0.929688 -3.675781 1.066406 -3.769531 1.203125 -3.84375 C 1.347656 -3.925781 1.484375 -3.96875 1.609375 -3.96875 C 1.734375 -3.96875 1.828125 -3.929688 1.890625 -3.859375 C 1.953125 -3.785156 1.984375 -3.65625 1.984375 -3.46875 C 1.984375 -3.332031 1.9375 -3.144531 1.84375 -2.90625 C 1.757812 -2.664062 1.648438 -2.351562 1.515625 -1.96875 L 1.25 -1.234375 C 1.238281 -1.210938 1.222656 -1.175781 1.203125 -1.125 C 1.191406 -1.070312 1.175781 -1.015625 1.15625 -0.953125 C 1.132812 -0.898438 1.117188 -0.847656 1.109375 -0.796875 C 1.097656 -0.742188 1.09375 -0.695312 1.09375 -0.65625 C 1.09375 -0.613281 1.101562 -0.570312 1.125 -0.53125 C 1.15625 -0.5 1.195312 -0.484375 1.25 -0.484375 C 1.320312 -0.484375 1.394531 -0.515625 1.46875 -0.578125 C 1.550781 -0.640625 1.628906 -0.710938 1.703125 -0.796875 C 1.773438 -0.878906 1.835938 -0.960938 1.890625 -1.046875 C 1.953125 -1.140625 2 -1.207031 2.03125 -1.25 L 2.25 -1.125 C 2.195312 -1.007812 2.117188 -0.878906 2.015625 -0.734375 C 1.910156 -0.597656 1.796875 -0.46875 1.671875 -0.34375 C 1.546875 -0.226562 1.40625 -0.128906 1.25 -0.046875 C 1.101562 0.0351562 0.945312 0.078125 0.78125 0.078125 C 0.644531 0.078125 0.539062 0.0390625 0.46875 -0.03125 C 0.394531 -0.101562 0.359375 -0.226562 0.359375 -0.40625 C 0.359375 -0.539062 0.378906 -0.691406 0.421875 -0.859375 C 0.472656 -1.023438 0.539062 -1.234375 0.625 -1.484375 Z M 2.046875 -5.171875 C 1.921875 -5.171875 1.8125 -5.210938 1.71875 -5.296875 C 1.632812 -5.378906 1.59375 -5.488281 1.59375 -5.625 C 1.59375 -5.75 1.632812 -5.859375 1.71875 -5.953125 C 1.800781 -6.046875 1.910156 -6.09375 2.046875 -6.09375 C 2.179688 -6.09375 2.289062 -6.046875 2.375 -5.953125 C 2.46875 -5.859375 2.515625 -5.75 2.515625 -5.625 C 2.515625 -5.5 2.46875 -5.390625 2.375 -5.296875 C 2.28125 -5.210938 2.171875 -5.171875 2.046875 -5.171875 Z M 2.046875 -5.171875 "/></g></g></g><g fill="#333333" fill-opacity="1"><g transform="translate(53.473684, 29.550625)"><g><path d="M 2.734375 -1.1875 C 2.578125 -0.863281 2.394531 -0.597656 2.1875 -0.390625 C 1.976562 -0.179688 1.753906 -0.046875 1.515625 0.015625 L 1.1875 0.53125 C 1.4375 0.53125 1.625 0.566406 1.75 0.640625 C 1.882812 0.722656 1.953125 0.835938 1.953125 0.984375 C 1.953125 1.117188 1.921875 1.238281 1.859375 1.34375 C 1.796875 1.457031 1.710938 1.554688 1.609375 1.640625 C 1.503906 1.722656 1.382812 1.785156 1.25 1.828125 C 1.113281 1.878906 0.976562 1.90625 0.84375 1.90625 C 0.613281 1.90625 0.429688 1.859375 0.296875 1.765625 C 0.171875 1.679688 0.109375 1.578125 0.109375 1.453125 C 0.109375 1.347656 0.132812 1.257812 0.1875 1.1875 C 0.25 1.125 0.320312 1.09375 0.40625 1.09375 C 0.46875 1.09375 0.507812 1.117188 0.53125 1.171875 C 0.550781 1.222656 0.566406 1.28125 0.578125 1.34375 C 0.597656 1.40625 0.625 1.460938 0.65625 1.515625 C 0.695312 1.566406 0.765625 1.59375 0.859375 1.59375 C 0.972656 1.59375 1.078125 1.546875 1.171875 1.453125 C 1.273438 1.367188 1.328125 1.257812 1.328125 1.125 C 1.328125 0.925781 1.164062 0.828125 0.84375 0.828125 C 0.789062 0.828125 0.738281 0.828125 0.6875 0.828125 C 0.632812 0.835938 0.597656 0.84375 0.578125 0.84375 L 0.578125 0.828125 L 1.09375 0.078125 C 0.789062 0.0546875 0.550781 -0.0546875 0.375 -0.265625 C 0.195312 -0.484375 0.109375 -0.769531 0.109375 -1.125 C 0.109375 -1.34375 0.140625 -1.5625 0.203125 -1.78125 C 0.265625 -2.007812 0.347656 -2.226562 0.453125 -2.4375 C 0.554688 -2.644531 0.679688 -2.84375 0.828125 -3.03125 C 0.984375 -3.21875 1.144531 -3.378906 1.3125 -3.515625 C 1.476562 -3.648438 1.648438 -3.757812 1.828125 -3.84375 C 2.003906 -3.925781 2.175781 -3.96875 2.34375 -3.96875 C 2.582031 -3.96875 2.773438 -3.898438 2.921875 -3.765625 C 3.078125 -3.640625 3.15625 -3.484375 3.15625 -3.296875 C 3.15625 -3.171875 3.117188 -3.070312 3.046875 -3 C 2.972656 -2.925781 2.882812 -2.890625 2.78125 -2.890625 C 2.664062 -2.890625 2.570312 -2.921875 2.5 -2.984375 C 2.425781 -3.054688 2.390625 -3.144531 2.390625 -3.25 C 2.390625 -3.3125 2.398438 -3.363281 2.421875 -3.40625 C 2.441406 -3.445312 2.453125 -3.484375 2.453125 -3.515625 C 2.453125 -3.585938 2.394531 -3.625 2.28125 -3.625 C 2.113281 -3.625 1.945312 -3.546875 1.78125 -3.390625 C 1.613281 -3.242188 1.460938 -3.050781 1.328125 -2.8125 C 1.191406 -2.570312 1.082031 -2.300781 1 -2 C 0.914062 -1.707031 0.875 -1.410156 0.875 -1.109375 C 0.875 -0.878906 0.914062 -0.695312 1 -0.5625 C 1.09375 -0.425781 1.222656 -0.359375 1.390625 -0.359375 C 1.472656 -0.359375 1.5625 -0.378906 1.65625 -0.421875 C 1.757812 -0.472656 1.859375 -0.539062 1.953125 -0.625 C 2.046875 -0.71875 2.140625 -0.820312 2.234375 -0.9375 C 2.328125 -1.050781 2.410156 -1.179688 2.484375 -1.328125 Z M 2.734375 -1.1875 "/></g></g></g><g fill="#333333" fill-opacity="1"><g transform="translate(56.712132, 29.550625)"><g><path d="M 2.4375 -3.578125 C 2.25 -3.578125 2.054688 -3.488281 1.859375 -3.3125 C 1.660156 -3.144531 1.476562 -2.929688 1.3125 -2.671875 C 1.15625 -2.421875 1.023438 -2.144531 0.921875 -1.84375 C 0.816406 -1.550781 0.765625 -1.28125 0.765625 -1.03125 C 0.765625 -0.851562 0.800781 -0.710938 0.875 -0.609375 C 0.945312 -0.503906 1.050781 -0.453125 1.1875 -0.453125 C 1.289062 -0.453125 1.40625 -0.492188 1.53125 -0.578125 C 1.65625 -0.671875 1.773438 -0.789062 1.890625 -0.9375 C 2.003906 -1.09375 2.113281 -1.265625 2.21875 -1.453125 C 2.320312 -1.640625 2.410156 -1.832031 2.484375 -2.03125 C 2.566406 -2.238281 2.628906 -2.441406 2.671875 -2.640625 C 2.710938 -2.835938 2.734375 -3.015625 2.734375 -3.171875 C 2.734375 -3.296875 2.707031 -3.394531 2.65625 -3.46875 C 2.601562 -3.539062 2.53125 -3.578125 2.4375 -3.578125 Z M 3.1875 -3.890625 L 3.796875 -3.890625 L 3.390625 -2.765625 C 3.316406 -2.578125 3.242188 -2.378906 3.171875 -2.171875 C 3.109375 -1.960938 3.050781 -1.757812 3 -1.5625 C 2.957031 -1.363281 2.921875 -1.179688 2.890625 -1.015625 C 2.859375 -0.859375 2.84375 -0.742188 2.84375 -0.671875 C 2.84375 -0.523438 2.890625 -0.453125 2.984375 -0.453125 C 3.046875 -0.453125 3.140625 -0.519531 3.265625 -0.65625 C 3.398438 -0.800781 3.550781 -0.988281 3.71875 -1.21875 L 3.90625 -1.0625 C 3.695312 -0.695312 3.472656 -0.414062 3.234375 -0.21875 C 3.003906 -0.0195312 2.78125 0.078125 2.5625 0.078125 C 2.445312 0.078125 2.359375 0.0351562 2.296875 -0.046875 C 2.234375 -0.140625 2.203125 -0.285156 2.203125 -0.484375 C 2.203125 -0.523438 2.203125 -0.570312 2.203125 -0.625 C 2.203125 -0.6875 2.207031 -0.765625 2.21875 -0.859375 L 2.203125 -0.875 C 2.117188 -0.738281 2.023438 -0.613281 1.921875 -0.5 C 1.828125 -0.382812 1.722656 -0.28125 1.609375 -0.1875 C 1.492188 -0.101562 1.367188 -0.0390625 1.234375 0 C 1.109375 0.0507812 0.984375 0.078125 0.859375 0.078125 C 0.609375 0.078125 0.414062 -0.015625 0.28125 -0.203125 C 0.144531 -0.390625 0.078125 -0.648438 0.078125 -0.984375 C 0.078125 -1.328125 0.144531 -1.675781 0.28125 -2.03125 C 0.425781 -2.382812 0.609375 -2.703125 0.828125 -2.984375 C 1.054688 -3.273438 1.304688 -3.507812 1.578125 -3.6875 C 1.859375 -3.875 2.128906 -3.96875 2.390625 -3.96875 C 2.554688 -3.96875 2.6875 -3.925781 2.78125 -3.84375 C 2.882812 -3.769531 2.972656 -3.648438 3.046875 -3.484375 Z M 1.46875 -4.84375 C 1.5 -5.09375 1.585938 -5.296875 1.734375 -5.453125 C 1.878906 -5.609375 2.046875 -5.6875 2.234375 -5.6875 C 2.304688 -5.6875 2.394531 -5.671875 2.5 -5.640625 C 2.601562 -5.617188 2.722656 -5.578125 2.859375 -5.515625 C 3.003906 -5.441406 3.113281 -5.394531 3.1875 -5.375 C 3.269531 -5.351562 3.34375 -5.34375 3.40625 -5.34375 C 3.488281 -5.34375 3.550781 -5.363281 3.59375 -5.40625 C 3.644531 -5.457031 3.6875 -5.539062 3.71875 -5.65625 L 3.96875 -5.65625 C 3.957031 -5.5625 3.925781 -5.457031 3.875 -5.34375 C 3.832031 -5.226562 3.785156 -5.128906 3.734375 -5.046875 C 3.597656 -4.867188 3.429688 -4.78125 3.234375 -4.78125 C 3.171875 -4.78125 3.09375 -4.796875 3 -4.828125 C 2.914062 -4.859375 2.789062 -4.90625 2.625 -4.96875 C 2.457031 -5.03125 2.328125 -5.070312 2.234375 -5.09375 C 2.148438 -5.125 2.078125 -5.140625 2.015625 -5.140625 C 1.929688 -5.140625 1.867188 -5.117188 1.828125 -5.078125 C 1.785156 -5.035156 1.75 -4.957031 1.71875 -4.84375 Z M 1.46875 -4.84375 "/></g></g></g><g fill="#333333" fill-opacity="1"><g transform="translate(60.897877, 29.550625)"><g><path d="M 1.375 0.078125 C 1.207031 0.078125 1.050781 0.046875 0.90625 -0.015625 C 0.757812 -0.0859375 0.632812 -0.1875 0.53125 -0.3125 C 0.425781 -0.4375 0.335938 -0.59375 0.265625 -0.78125 C 0.203125 -0.96875 0.171875 -1.175781 0.171875 -1.40625 C 0.171875 -1.71875 0.226562 -2.03125 0.34375 -2.34375 C 0.46875 -2.65625 0.628906 -2.929688 0.828125 -3.171875 C 1.023438 -3.410156 1.25 -3.601562 1.5 -3.75 C 1.75 -3.894531 2.007812 -3.96875 2.28125 -3.96875 C 2.457031 -3.96875 2.617188 -3.929688 2.765625 -3.859375 C 2.921875 -3.796875 3.050781 -3.703125 3.15625 -3.578125 C 3.257812 -3.453125 3.34375 -3.300781 3.40625 -3.125 C 3.46875 -2.957031 3.5 -2.769531 3.5 -2.5625 C 3.5 -2.25 3.4375 -1.9375 3.3125 -1.625 C 3.1875 -1.3125 3.023438 -1.03125 2.828125 -0.78125 C 2.628906 -0.53125 2.398438 -0.320312 2.140625 -0.15625 C 1.890625 0 1.632812 0.078125 1.375 0.078125 Z M 1.421875 -0.296875 C 1.585938 -0.296875 1.75 -0.378906 1.90625 -0.546875 C 2.070312 -0.722656 2.21875 -0.941406 2.34375 -1.203125 C 2.476562 -1.460938 2.585938 -1.742188 2.671875 -2.046875 C 2.753906 -2.359375 2.796875 -2.65625 2.796875 -2.9375 C 2.796875 -3.195312 2.75 -3.375 2.65625 -3.46875 C 2.5625 -3.570312 2.4375 -3.625 2.28125 -3.625 C 2.175781 -3.625 2.066406 -3.582031 1.953125 -3.5 C 1.847656 -3.425781 1.742188 -3.320312 1.640625 -3.1875 C 1.546875 -3.0625 1.453125 -2.910156 1.359375 -2.734375 C 1.273438 -2.566406 1.203125 -2.382812 1.140625 -2.1875 C 1.078125 -2 1.03125 -1.804688 1 -1.609375 C 0.96875 -1.410156 0.953125 -1.222656 0.953125 -1.046875 C 0.953125 -0.765625 0.992188 -0.566406 1.078125 -0.453125 C 1.171875 -0.347656 1.285156 -0.296875 1.421875 -0.296875 Z M 1.421875 -0.296875 "/></g></g></g></svg>