<svg xmlns="http://www.w3.org/2000/svg" xmlns:xlink="http://www.w3.org/1999/xlink" width="180" zoomAndPan="magnify" viewBox="0 0 135 30.000001" height="40" preserveAspectRatio="xMidYMid meet" version="1.0"><defs><g/><clipPath id="40f6c7ac9b"><path d="M 26 11 L 34.929688 11 L 34.929688 26.457031 L 26 26.457031 Z M 26 11 " clip-rule="nonzero"/></clipPath><clipPath id="57dd06065a"><path d="M 13.878906 11 L 23 11 L 23 26.457031 L 13.878906 26.457031 Z M 13.878906 11 " clip-rule="nonzero"/></clipPath><clipPath id="e8cad38d35"><path d="M 25 5.410156 L 32 5.410156 L 32 13 L 25 13 Z M 25 5.410156 " clip-rule="nonzero"/></clipPath><clipPath id="e8bb88e582"><path d="M 20 5.410156 L 25 5.410156 L 25 9 L 20 9 Z M 20 5.410156 " clip-rule="nonzero"/></clipPath><clipPath id="2d40bb9195"><path d="M 18 5.410156 L 20 5.410156 L 20 8 L 18 8 Z M 18 5.410156 " clip-rule="nonzero"/></clipPath></defs><g fill="#292828" fill-opacity="1"><g transform="translate(39.115298, 14.175264)"><g><path d="M 1.65625 -0.84375 L 1.65625 -4.296875 L 1.0625 -4.296875 C 0.945312 -4.296875 0.890625 -4.21875 0.890625 -4.0625 L 0.890625 -3.703125 L 0.109375 -3.765625 L 0.109375 -5.046875 L 4.078125 -5.046875 L 4.078125 -3.765625 L 3.3125 -3.703125 L 3.3125 -4.0625 C 3.3125 -4.144531 3.296875 -4.203125 3.265625 -4.234375 C 3.242188 -4.273438 3.1875 -4.296875 3.09375 -4.296875 L 2.578125 -4.296875 L 2.578125 -0.671875 L 3.171875 -0.640625 L 3.171875 0 L 1.03125 0 L 1.03125 -0.609375 L 1.4375 -0.640625 C 1.582031 -0.648438 1.65625 -0.71875 1.65625 -0.84375 Z M 1.65625 -0.84375 "/></g></g></g><g fill="#292828" fill-opacity="1"><g transform="translate(43.310985, 14.175264)"><g><path d="M 3.65625 -3.671875 L 3.65625 -0.84375 C 3.65625 -0.757812 3.671875 -0.703125 3.703125 -0.671875 C 3.734375 -0.640625 3.78125 -0.625 3.84375 -0.625 L 4.09375 -0.609375 L 4.09375 0 L 2.890625 0 L 2.890625 -0.4375 L 2.859375 -0.453125 C 2.609375 -0.0859375 2.265625 0.09375 1.828125 0.09375 C 1.304688 0.09375 0.921875 -0.0664062 0.671875 -0.390625 C 0.421875 -0.722656 0.296875 -1.175781 0.296875 -1.75 C 0.296875 -2.4375 0.460938 -2.972656 0.796875 -3.359375 C 1.140625 -3.742188 1.644531 -3.9375 2.3125 -3.9375 C 2.738281 -3.9375 3.1875 -3.847656 3.65625 -3.671875 Z M 2.78125 -1.203125 L 2.78125 -3.171875 C 2.632812 -3.234375 2.4375 -3.265625 2.1875 -3.265625 C 1.851562 -3.265625 1.609375 -3.128906 1.453125 -2.859375 C 1.304688 -2.585938 1.234375 -2.226562 1.234375 -1.78125 C 1.234375 -0.957031 1.492188 -0.546875 2.015625 -0.546875 C 2.242188 -0.546875 2.425781 -0.613281 2.5625 -0.75 C 2.707031 -0.882812 2.78125 -1.035156 2.78125 -1.203125 Z M 2.78125 -1.203125 "/></g></g></g><g fill="#292828" fill-opacity="1"><g transform="translate(47.612895, 14.175264)"><g><path d="M 1.09375 -4.625 L 1.59375 -4.625 L 1.59375 -3.8125 L 2.59375 -3.8125 L 2.515625 -3.1875 L 1.59375 -3.1875 L 1.59375 -1.1875 C 1.59375 -0.957031 1.628906 -0.796875 1.703125 -0.703125 C 1.785156 -0.617188 1.910156 -0.578125 2.078125 -0.578125 C 2.253906 -0.578125 2.425781 -0.632812 2.59375 -0.75 L 2.828125 -0.15625 C 2.566406 0.0195312 2.242188 0.109375 1.859375 0.109375 C 1.628906 0.109375 1.4375 0.078125 1.28125 0.015625 C 1.125 -0.0351562 1.003906 -0.0976562 0.921875 -0.171875 C 0.847656 -0.242188 0.789062 -0.347656 0.75 -0.484375 C 0.71875 -0.617188 0.695312 -0.722656 0.6875 -0.796875 C 0.6875 -0.878906 0.6875 -1 0.6875 -1.15625 L 0.6875 -3.1875 L 0.140625 -3.1875 L 0.21875 -3.734375 C 0.457031 -3.753906 0.632812 -3.835938 0.75 -3.984375 C 0.875 -4.140625 0.988281 -4.351562 1.09375 -4.625 Z M 1.09375 -4.625 "/></g></g></g><g fill="#292828" fill-opacity="1"><g transform="translate(50.473249, 14.175264)"><g><path d="M 1.625 -3.8125 L 1.625 -0.625 L 2.0625 -0.609375 L 2.0625 0 L 0.25 0 L 0.25 -0.578125 L 0.5 -0.59375 C 0.644531 -0.613281 0.71875 -0.695312 0.71875 -0.84375 L 0.71875 -2.953125 C 0.71875 -3.035156 0.703125 -3.09375 0.671875 -3.125 C 0.648438 -3.15625 0.601562 -3.171875 0.53125 -3.171875 L 0.265625 -3.1875 L 0.265625 -3.8125 Z M 0.671875 -4.46875 C 0.566406 -4.570312 0.515625 -4.707031 0.515625 -4.875 C 0.515625 -5.039062 0.566406 -5.175781 0.671875 -5.28125 C 0.773438 -5.382812 0.910156 -5.4375 1.078125 -5.4375 C 1.253906 -5.4375 1.394531 -5.382812 1.5 -5.28125 C 1.613281 -5.175781 1.671875 -5.039062 1.671875 -4.875 C 1.671875 -4.707031 1.613281 -4.570312 1.5 -4.46875 C 1.394531 -4.375 1.253906 -4.328125 1.078125 -4.328125 C 0.910156 -4.328125 0.773438 -4.375 0.671875 -4.46875 Z M 0.671875 -4.46875 "/></g></g></g><g fill="#292828" fill-opacity="1"><g transform="translate(52.719044, 14.175264)"><g><path d="M 3.65625 -3.671875 L 3.65625 -0.84375 C 3.65625 -0.757812 3.671875 -0.703125 3.703125 -0.671875 C 3.734375 -0.640625 3.78125 -0.625 3.84375 -0.625 L 4.09375 -0.609375 L 4.09375 0 L 2.890625 0 L 2.890625 -0.4375 L 2.859375 -0.453125 C 2.609375 -0.0859375 2.265625 0.09375 1.828125 0.09375 C 1.304688 0.09375 0.921875 -0.0664062 0.671875 -0.390625 C 0.421875 -0.722656 0.296875 -1.175781 0.296875 -1.75 C 0.296875 -2.4375 0.460938 -2.972656 0.796875 -3.359375 C 1.140625 -3.742188 1.644531 -3.9375 2.3125 -3.9375 C 2.738281 -3.9375 3.1875 -3.847656 3.65625 -3.671875 Z M 2.78125 -1.203125 L 2.78125 -3.171875 C 2.632812 -3.234375 2.4375 -3.265625 2.1875 -3.265625 C 1.851562 -3.265625 1.609375 -3.128906 1.453125 -2.859375 C 1.304688 -2.585938 1.234375 -2.226562 1.234375 -1.78125 C 1.234375 -0.957031 1.492188 -0.546875 2.015625 -0.546875 C 2.242188 -0.546875 2.425781 -0.613281 2.5625 -0.75 C 2.707031 -0.882812 2.78125 -1.035156 2.78125 -1.203125 Z M 2.78125 -1.203125 "/></g></g></g><g fill="#292828" fill-opacity="1"><g transform="translate(57.020955, 14.175264)"><g><path d="M 0.203125 -3.21875 L 0.203125 -3.8125 L 1.484375 -3.8125 L 1.484375 -3.328125 C 1.617188 -3.515625 1.796875 -3.660156 2.015625 -3.765625 C 2.234375 -3.878906 2.46875 -3.9375 2.71875 -3.9375 C 3.101562 -3.9375 3.398438 -3.820312 3.609375 -3.59375 C 3.816406 -3.375 3.921875 -3.046875 3.921875 -2.609375 L 3.921875 -0.625 L 4.359375 -0.609375 L 4.359375 0 L 2.546875 0 L 2.546875 -0.578125 L 2.796875 -0.59375 C 2.878906 -0.601562 2.9375 -0.625 2.96875 -0.65625 C 3 -0.695312 3.015625 -0.757812 3.015625 -0.84375 L 3.015625 -2.421875 C 3.015625 -2.691406 2.972656 -2.894531 2.890625 -3.03125 C 2.804688 -3.164062 2.644531 -3.234375 2.40625 -3.234375 C 2.164062 -3.234375 1.972656 -3.15625 1.828125 -3 C 1.691406 -2.851562 1.625 -2.675781 1.625 -2.46875 L 1.625 -0.625 L 2.046875 -0.609375 L 2.046875 0 L 0.25 0 L 0.25 -0.578125 L 0.5 -0.59375 C 0.570312 -0.601562 0.625 -0.625 0.65625 -0.65625 C 0.695312 -0.695312 0.71875 -0.757812 0.71875 -0.84375 L 0.71875 -2.953125 C 0.71875 -3.109375 0.65625 -3.1875 0.53125 -3.1875 Z M 0.203125 -3.21875 "/></g></g></g><g fill="#292828" fill-opacity="1"><g transform="translate(61.573236, 14.175264)"><g><path d="M 2.15625 -3.9375 C 2.53125 -3.9375 2.828125 -3.84375 3.046875 -3.65625 C 3.273438 -3.46875 3.390625 -3.207031 3.390625 -2.875 C 3.390625 -2.65625 3.34375 -2.457031 3.25 -2.28125 C 3.15625 -2.113281 3.035156 -1.984375 2.890625 -1.890625 C 2.753906 -1.796875 2.582031 -1.71875 2.375 -1.65625 C 2.039062 -1.550781 1.660156 -1.5 1.234375 -1.5 C 1.242188 -1.226562 1.320312 -1.007812 1.46875 -0.84375 C 1.625 -0.6875 1.859375 -0.609375 2.171875 -0.609375 C 2.492188 -0.609375 2.8125 -0.71875 3.125 -0.9375 L 3.40625 -0.328125 C 3.300781 -0.234375 3.128906 -0.140625 2.890625 -0.046875 C 2.648438 0.046875 2.378906 0.09375 2.078125 0.09375 C 1.453125 0.09375 0.992188 -0.0703125 0.703125 -0.40625 C 0.421875 -0.75 0.28125 -1.21875 0.28125 -1.8125 C 0.28125 -2.414062 0.441406 -2.921875 0.765625 -3.328125 C 1.097656 -3.734375 1.5625 -3.9375 2.15625 -3.9375 Z M 1.8125 -2.203125 C 2 -2.234375 2.171875 -2.304688 2.328125 -2.421875 C 2.484375 -2.535156 2.5625 -2.671875 2.5625 -2.828125 C 2.5625 -3.128906 2.410156 -3.28125 2.109375 -3.28125 C 1.816406 -3.28125 1.59375 -3.164062 1.4375 -2.9375 C 1.289062 -2.71875 1.210938 -2.453125 1.203125 -2.140625 C 1.421875 -2.148438 1.625 -2.171875 1.8125 -2.203125 Z M 1.8125 -2.203125 "/></g></g></g><g fill="#292828" fill-opacity="1"><g transform="translate(65.245413, 14.175264)"><g/></g></g><g fill="#292828" fill-opacity="1"><g transform="translate(66.762843, 14.175264)"><g><path d="M 2.15625 -3.9375 C 2.375 -3.9375 2.582031 -3.90625 2.78125 -3.84375 L 2.78125 -4.609375 C 2.78125 -4.722656 2.710938 -4.785156 2.578125 -4.796875 L 2.25 -4.8125 L 2.25 -5.421875 L 3.671875 -5.421875 L 3.671875 -0.796875 C 3.671875 -0.679688 3.734375 -0.625 3.859375 -0.625 L 4.125 -0.609375 L 4.125 0 L 2.890625 0 L 2.890625 -0.453125 L 2.875 -0.453125 C 2.644531 -0.0859375 2.300781 0.09375 1.84375 0.09375 C 1.257812 0.09375 0.851562 -0.0976562 0.625 -0.484375 C 0.40625 -0.828125 0.296875 -1.253906 0.296875 -1.765625 C 0.296875 -2.421875 0.457031 -2.945312 0.78125 -3.34375 C 1.113281 -3.738281 1.570312 -3.9375 2.15625 -3.9375 Z M 2.78125 -1.1875 L 2.78125 -3.15625 C 2.59375 -3.226562 2.398438 -3.265625 2.203125 -3.265625 C 1.867188 -3.265625 1.625 -3.128906 1.46875 -2.859375 C 1.3125 -2.597656 1.234375 -2.257812 1.234375 -1.84375 C 1.234375 -0.988281 1.507812 -0.5625 2.0625 -0.5625 C 2.269531 -0.5625 2.441406 -0.617188 2.578125 -0.734375 C 2.710938 -0.859375 2.78125 -1.007812 2.78125 -1.1875 Z M 2.78125 -1.1875 "/></g></g></g><g fill="#292828" fill-opacity="1"><g transform="translate(71.072336, 14.175264)"><g><path d="M 2 -0.546875 C 2.550781 -0.546875 2.828125 -0.992188 2.828125 -1.890625 C 2.828125 -2.335938 2.765625 -2.675781 2.640625 -2.90625 C 2.515625 -3.144531 2.304688 -3.265625 2.015625 -3.265625 C 1.722656 -3.265625 1.507812 -3.148438 1.375 -2.921875 C 1.238281 -2.703125 1.171875 -2.398438 1.171875 -2.015625 C 1.171875 -1.304688 1.300781 -0.859375 1.5625 -0.671875 C 1.675781 -0.585938 1.820312 -0.546875 2 -0.546875 Z M 0.25 -1.90625 C 0.25 -2.28125 0.300781 -2.601562 0.40625 -2.875 C 0.519531 -3.15625 0.671875 -3.375 0.859375 -3.53125 C 1.222656 -3.800781 1.625 -3.9375 2.0625 -3.9375 C 2.363281 -3.9375 2.617188 -3.882812 2.828125 -3.78125 C 3.035156 -3.6875 3.195312 -3.570312 3.3125 -3.4375 C 3.4375 -3.3125 3.539062 -3.125 3.625 -2.875 C 3.707031 -2.632812 3.75 -2.347656 3.75 -2.015625 C 3.75 -1.316406 3.578125 -0.785156 3.234375 -0.421875 C 2.898438 -0.0664062 2.46875 0.109375 1.9375 0.109375 C 1.40625 0.109375 0.988281 -0.0546875 0.6875 -0.390625 C 0.394531 -0.734375 0.25 -1.238281 0.25 -1.90625 Z M 0.25 -1.90625 "/></g></g></g><g fill="#292828" fill-opacity="1"><g transform="translate(75.07835, 14.175264)"><g/></g></g><g fill="#292828" fill-opacity="1"><g transform="translate(76.59578, 14.175264)"><g><path d="M 1.53125 -4.140625 L 2.546875 -1.078125 L 2.578125 -1.078125 L 3.640625 -4.375 L 3.1875 -4.40625 L 3.1875 -5.046875 L 4.921875 -5.046875 L 4.921875 -4.4375 L 4.671875 -4.40625 C 4.609375 -4.40625 4.5625 -4.390625 4.53125 -4.359375 C 4.5 -4.328125 4.46875 -4.269531 4.4375 -4.1875 L 3 0 L 2.015625 0 L 0.46875 -4.375 L 0.03125 -4.40625 L 0.03125 -5.046875 L 2 -5.046875 L 2 -4.4375 L 1.75 -4.40625 C 1.59375 -4.394531 1.515625 -4.335938 1.515625 -4.234375 C 1.515625 -4.203125 1.519531 -4.171875 1.53125 -4.140625 Z M 1.53125 -4.140625 "/></g></g></g><g fill="#292828" fill-opacity="1"><g transform="translate(81.557773, 14.175264)"><g><path d="M 3.65625 -3.671875 L 3.65625 -0.84375 C 3.65625 -0.757812 3.671875 -0.703125 3.703125 -0.671875 C 3.734375 -0.640625 3.78125 -0.625 3.84375 -0.625 L 4.09375 -0.609375 L 4.09375 0 L 2.890625 0 L 2.890625 -0.4375 L 2.859375 -0.453125 C 2.609375 -0.0859375 2.265625 0.09375 1.828125 0.09375 C 1.304688 0.09375 0.921875 -0.0664062 0.671875 -0.390625 C 0.421875 -0.722656 0.296875 -1.175781 0.296875 -1.75 C 0.296875 -2.4375 0.460938 -2.972656 0.796875 -3.359375 C 1.140625 -3.742188 1.644531 -3.9375 2.3125 -3.9375 C 2.738281 -3.9375 3.1875 -3.847656 3.65625 -3.671875 Z M 2.78125 -1.203125 L 2.78125 -3.171875 C 2.632812 -3.234375 2.4375 -3.265625 2.1875 -3.265625 C 1.851562 -3.265625 1.609375 -3.128906 1.453125 -2.859375 C 1.304688 -2.585938 1.234375 -2.226562 1.234375 -1.78125 C 1.234375 -0.957031 1.492188 -0.546875 2.015625 -0.546875 C 2.242188 -0.546875 2.425781 -0.613281 2.5625 -0.75 C 2.707031 -0.882812 2.78125 -1.035156 2.78125 -1.203125 Z M 2.78125 -1.203125 "/></g></g></g><g fill="#292828" fill-opacity="1"><g transform="translate(85.859683, 14.175264)"><g><path d="M 1.609375 -5.421875 L 1.609375 -0.625 L 2.046875 -0.609375 L 2.046875 0 L 0.234375 0 L 0.234375 -0.578125 L 0.484375 -0.59375 C 0.628906 -0.613281 0.703125 -0.695312 0.703125 -0.84375 L 0.703125 -4.59375 C 0.703125 -4.695312 0.640625 -4.753906 0.515625 -4.765625 L 0.25 -4.78125 L 0.25 -5.421875 Z M 1.609375 -5.421875 "/></g></g></g><g fill="#292828" fill-opacity="1"><g transform="translate(88.120654, 14.175264)"><g><path d="M 2.15625 -3.9375 C 2.53125 -3.9375 2.828125 -3.84375 3.046875 -3.65625 C 3.273438 -3.46875 3.390625 -3.207031 3.390625 -2.875 C 3.390625 -2.65625 3.34375 -2.457031 3.25 -2.28125 C 3.15625 -2.113281 3.035156 -1.984375 2.890625 -1.890625 C 2.753906 -1.796875 2.582031 -1.71875 2.375 -1.65625 C 2.039062 -1.550781 1.660156 -1.5 1.234375 -1.5 C 1.242188 -1.226562 1.320312 -1.007812 1.46875 -0.84375 C 1.625 -0.6875 1.859375 -0.609375 2.171875 -0.609375 C 2.492188 -0.609375 2.8125 -0.71875 3.125 -0.9375 L 3.40625 -0.328125 C 3.300781 -0.234375 3.128906 -0.140625 2.890625 -0.046875 C 2.648438 0.046875 2.378906 0.09375 2.078125 0.09375 C 1.453125 0.09375 0.992188 -0.0703125 0.703125 -0.40625 C 0.421875 -0.75 0.28125 -1.21875 0.28125 -1.8125 C 0.28125 -2.414062 0.441406 -2.921875 0.765625 -3.328125 C 1.097656 -3.734375 1.5625 -3.9375 2.15625 -3.9375 Z M 1.8125 -2.203125 C 2 -2.234375 2.171875 -2.304688 2.328125 -2.421875 C 2.484375 -2.535156 2.5625 -2.671875 2.5625 -2.828125 C 2.5625 -3.128906 2.410156 -3.28125 2.109375 -3.28125 C 1.816406 -3.28125 1.59375 -3.164062 1.4375 -2.9375 C 1.289062 -2.71875 1.210938 -2.453125 1.203125 -2.140625 C 1.421875 -2.148438 1.625 -2.171875 1.8125 -2.203125 Z M 1.8125 -2.203125 "/></g></g></g><path fill="#292828" d="M 24.339844 18.808594 C 25.246094 18.808594 26.148438 18.464844 26.835938 17.777344 C 28.21875 16.394531 28.21875 14.160156 26.835938 12.777344 C 26.789062 12.730469 26.722656 12.703125 26.65625 12.703125 C 26.585938 12.703125 26.523438 12.730469 26.472656 12.777344 L 21.84375 17.40625 C 21.742188 17.507812 21.742188 17.675781 21.84375 17.777344 C 22.53125 18.464844 23.4375 18.808594 24.339844 18.808594 Z M 26.648438 13.335938 C 27.644531 14.519531 27.585938 16.296875 26.472656 17.40625 C 25.355469 18.523438 23.582031 18.582031 22.398438 17.585938 Z M 26.648438 13.335938 " fill-opacity="1" fill-rule="nonzero"/><path fill="#292828" d="M 25.582031 16.886719 C 25.632812 16.933594 25.699219 16.964844 25.765625 16.964844 C 25.832031 16.964844 25.898438 16.933594 25.945312 16.886719 C 26.050781 16.785156 26.050781 16.617188 25.945312 16.523438 L 25.5 16.074219 C 25.402344 15.972656 25.238281 15.972656 25.136719 16.074219 C 25.035156 16.171875 25.035156 16.339844 25.136719 16.441406 Z M 25.582031 16.886719 " fill-opacity="1" fill-rule="nonzero"/><path fill="#292828" d="M 24.539062 17.429688 L 24.539062 16.800781 C 24.539062 16.65625 24.421875 16.542969 24.28125 16.542969 C 24.136719 16.542969 24.019531 16.65625 24.019531 16.800781 L 24.019531 17.429688 C 24.019531 17.574219 24.136719 17.6875 24.28125 17.6875 C 24.421875 17.6875 24.539062 17.574219 24.539062 17.429688 Z M 24.539062 17.429688 " fill-opacity="1" fill-rule="nonzero"/><path fill="#292828" d="M 25.863281 15.472656 L 26.492188 15.472656 C 26.636719 15.472656 26.753906 15.359375 26.753906 15.214844 C 26.753906 15.074219 26.636719 14.957031 26.492188 14.957031 L 25.863281 14.957031 C 25.71875 14.957031 25.601562 15.074219 25.601562 15.214844 C 25.601562 15.359375 25.71875 15.472656 25.863281 15.472656 Z M 25.863281 15.472656 " fill-opacity="1" fill-rule="nonzero"/><path fill="#292828" d="M 18.828125 13.71875 C 19.515625 14.40625 20.421875 14.75 21.324219 14.75 C 22.230469 14.75 23.132812 14.40625 23.828125 13.71875 C 23.925781 13.617188 23.925781 13.453125 23.828125 13.351562 L 19.195312 8.71875 C 19.101562 8.621094 18.925781 8.621094 18.828125 8.71875 C 17.453125 10.097656 17.453125 12.339844 18.828125 13.71875 Z M 19.019531 9.277344 L 23.269531 13.527344 C 22.085938 14.523438 20.308594 14.464844 19.195312 13.351562 C 18.078125 12.234375 18.023438 10.464844 19.019531 9.277344 Z M 19.019531 9.277344 " fill-opacity="1" fill-rule="nonzero"/><path fill="#292828" d="M 19.71875 12.828125 C 19.765625 12.878906 19.835938 12.902344 19.902344 12.902344 C 19.964844 12.902344 20.035156 12.878906 20.082031 12.828125 L 20.527344 12.382812 C 20.628906 12.28125 20.628906 12.117188 20.527344 12.019531 C 20.425781 11.917969 20.265625 11.917969 20.164062 12.019531 L 19.71875 12.464844 C 19.617188 12.5625 19.617188 12.726562 19.71875 12.828125 Z M 19.71875 12.828125 " fill-opacity="1" fill-rule="nonzero"/><path fill="#292828" d="M 19.171875 11.417969 L 19.804688 11.417969 C 19.945312 11.417969 20.0625 11.300781 20.0625 11.160156 C 20.0625 11.015625 19.945312 10.902344 19.804688 10.902344 L 19.171875 10.902344 C 19.03125 10.902344 18.914062 11.015625 18.914062 11.160156 C 18.914062 11.300781 19.03125 11.417969 19.171875 11.417969 Z M 19.171875 11.417969 " fill-opacity="1" fill-rule="nonzero"/><path fill="#292828" d="M 21.386719 13.632812 C 21.53125 13.632812 21.644531 13.515625 21.644531 13.375 L 21.644531 12.742188 C 21.644531 12.601562 21.53125 12.484375 21.386719 12.484375 C 21.246094 12.484375 21.128906 12.601562 21.128906 12.742188 L 21.128906 13.375 C 21.128906 13.515625 21.246094 13.632812 21.386719 13.632812 Z M 21.386719 13.632812 " fill-opacity="1" fill-rule="nonzero"/><g clip-path="url(#40f6c7ac9b)"><path fill="#292828" d="M 33.019531 11.40625 C 32.296875 11.476562 31.726562 12.121094 31.726562 12.882812 L 31.726562 16.394531 C 31.46875 16.183594 31.148438 16.066406 30.808594 16.066406 C 30.421875 16.066406 30.0625 16.214844 29.792969 16.484375 L 26.671875 19.605469 C 26.398438 19.875 26.25 20.234375 26.25 20.617188 L 26.25 25.871094 C 26.25 26.011719 26.367188 26.128906 26.507812 26.128906 L 30.929688 26.128906 C 31.070312 26.128906 31.1875 26.011719 31.1875 25.871094 L 31.1875 23.433594 C 31.1875 23.214844 31.265625 23.003906 31.410156 22.839844 L 33.964844 19.890625 C 34.371094 19.417969 34.597656 18.8125 34.597656 18.1875 L 34.597656 12.835938 C 34.597656 12.429688 34.429688 12.042969 34.128906 11.769531 C 33.832031 11.5 33.425781 11.363281 33.019531 11.40625 Z M 34.082031 18.1875 C 34.082031 18.691406 33.898438 19.171875 33.574219 19.546875 L 31.019531 22.5 C 30.789062 22.757812 30.667969 23.089844 30.667969 23.433594 L 30.667969 25.609375 L 26.769531 25.609375 L 26.769531 20.617188 C 26.769531 20.371094 26.867188 20.144531 27.035156 19.96875 L 30.15625 16.855469 C 30.503906 16.503906 31.109375 16.503906 31.453125 16.855469 C 31.816406 17.210938 31.816406 17.792969 31.453125 18.152344 L 29.484375 20.125 C 29.382812 20.226562 29.382812 20.390625 29.484375 20.492188 C 29.585938 20.59375 29.75 20.59375 29.847656 20.492188 L 31.824219 18.515625 C 32.101562 18.238281 32.238281 17.875 32.242188 17.507812 C 32.242188 17.5 32.242188 17.492188 32.242188 17.484375 L 32.242188 12.882812 C 32.242188 12.390625 32.609375 11.964844 33.070312 11.921875 C 33.335938 11.894531 33.585938 11.976562 33.78125 12.15625 C 33.972656 12.328125 34.082031 12.578125 34.082031 12.835938 Z M 34.082031 18.1875 " fill-opacity="1" fill-rule="nonzero"/></g><g clip-path="url(#57dd06065a)"><path fill="#292828" d="M 13.878906 12.835938 L 13.878906 18.1875 C 13.878906 18.8125 14.105469 19.414062 14.515625 19.890625 L 17.070312 22.839844 C 17.214844 23.003906 17.289062 23.214844 17.289062 23.433594 L 17.289062 25.871094 C 17.289062 26.011719 17.410156 26.128906 17.550781 26.128906 L 21.96875 26.128906 C 22.109375 26.128906 22.226562 26.011719 22.226562 25.871094 L 22.226562 20.617188 C 22.226562 20.234375 22.078125 19.875 21.808594 19.605469 L 18.6875 16.484375 C 18.414062 16.214844 18.054688 16.066406 17.671875 16.066406 C 17.332031 16.066406 17.011719 16.183594 16.753906 16.394531 L 16.753906 12.882812 C 16.753906 12.121094 16.183594 11.476562 15.457031 11.40625 C 15.054688 11.363281 14.648438 11.5 14.347656 11.769531 C 14.050781 12.042969 13.878906 12.429688 13.878906 12.835938 Z M 14.398438 12.835938 C 14.398438 12.578125 14.507812 12.328125 14.695312 12.15625 C 14.890625 11.976562 15.140625 11.894531 15.410156 11.921875 C 15.871094 11.964844 16.234375 12.390625 16.234375 12.882812 L 16.234375 17.484375 C 16.234375 17.492188 16.234375 17.5 16.234375 17.507812 C 16.238281 17.875 16.375 18.238281 16.65625 18.515625 L 18.628906 20.492188 C 18.726562 20.59375 18.894531 20.59375 18.996094 20.492188 C 19.097656 20.390625 19.097656 20.226562 18.996094 20.125 L 17.023438 18.152344 C 16.664062 17.792969 16.664062 17.210938 17.023438 16.855469 C 17.371094 16.503906 17.976562 16.503906 18.324219 16.855469 L 21.441406 19.96875 C 21.613281 20.144531 21.710938 20.371094 21.710938 20.617188 L 21.710938 25.609375 L 17.808594 25.609375 L 17.808594 23.433594 C 17.808594 23.089844 17.6875 22.757812 17.460938 22.5 L 14.902344 19.546875 C 14.578125 19.171875 14.398438 18.691406 14.398438 18.1875 Z M 14.398438 12.835938 " fill-opacity="1" fill-rule="nonzero"/></g><g clip-path="url(#e8cad38d35)"><path fill="#292828" d="M 31.582031 8.886719 C 31.582031 7.113281 30.140625 5.671875 28.367188 5.671875 C 26.59375 5.671875 25.152344 7.113281 25.152344 8.886719 C 25.152344 10.652344 26.59375 12.09375 28.367188 12.09375 C 30.140625 12.09375 31.582031 10.652344 31.582031 8.886719 Z M 25.671875 8.886719 C 25.671875 7.394531 26.882812 6.191406 28.367188 6.191406 C 29.851562 6.191406 31.0625 7.394531 31.0625 8.886719 C 31.0625 10.371094 29.851562 11.578125 28.367188 11.578125 C 26.882812 11.578125 25.671875 10.371094 25.671875 8.886719 Z M 25.671875 8.886719 " fill-opacity="1" fill-rule="nonzero"/></g><path fill="#292828" d="M 29.945312 8.886719 C 29.945312 8.015625 29.238281 7.308594 28.367188 7.308594 C 27.496094 7.308594 26.789062 8.015625 26.789062 8.886719 C 26.789062 9.753906 27.496094 10.460938 28.367188 10.460938 C 29.238281 10.460938 29.945312 9.753906 29.945312 8.886719 Z M 27.308594 8.886719 C 27.308594 8.296875 27.785156 7.824219 28.367188 7.824219 C 28.949219 7.824219 29.425781 8.296875 29.425781 8.886719 C 29.425781 9.46875 28.949219 9.941406 28.367188 9.941406 C 27.785156 9.941406 27.308594 9.46875 27.308594 8.886719 Z M 27.308594 8.886719 " fill-opacity="1" fill-rule="nonzero"/><g clip-path="url(#e8bb88e582)"><path fill="#292828" d="M 24.027344 7.167969 C 24.027344 6.199219 23.234375 5.410156 22.265625 5.410156 C 21.292969 5.410156 20.503906 6.199219 20.503906 7.167969 C 20.503906 8.144531 21.292969 8.933594 22.265625 8.933594 C 23.234375 8.933594 24.027344 8.144531 24.027344 7.167969 Z M 21.023438 7.167969 C 21.023438 6.484375 21.582031 5.925781 22.265625 5.925781 C 22.953125 5.925781 23.511719 6.484375 23.511719 7.167969 C 23.511719 7.859375 22.953125 8.417969 22.265625 8.417969 C 21.582031 8.417969 21.023438 7.859375 21.023438 7.167969 Z M 21.023438 7.167969 " fill-opacity="1" fill-rule="nonzero"/></g><g clip-path="url(#2d40bb9195)"><path fill="#292828" d="M 19.117188 7.28125 L 19.117188 5.667969 C 19.117188 5.527344 19 5.410156 18.855469 5.410156 C 18.710938 5.410156 18.597656 5.527344 18.597656 5.667969 L 18.597656 7.28125 C 18.597656 7.425781 18.710938 7.542969 18.855469 7.542969 C 19 7.542969 19.117188 7.425781 19.117188 7.28125 Z M 19.117188 7.28125 " fill-opacity="1" fill-rule="nonzero"/></g><path fill="#292828" d="M 15.90625 6.679688 C 15.804688 6.78125 15.804688 6.941406 15.90625 7.042969 L 17.046875 8.183594 C 17.097656 8.238281 17.164062 8.261719 17.230469 8.261719 C 17.296875 8.261719 17.363281 8.238281 17.414062 8.183594 C 17.511719 8.085938 17.511719 7.921875 17.414062 7.820312 L 16.269531 6.679688 C 16.171875 6.578125 16.007812 6.578125 15.90625 6.679688 Z M 15.90625 6.679688 " fill-opacity="1" fill-rule="nonzero"/><g fill="#292828" fill-opacity="1"><g transform="translate(39.115298, 17.818538)"><g><path d="M 0.078125 0 L 0.078125 -0.1875 L 0.15625 -0.1875 C 0.195312 -0.195312 0.21875 -0.21875 0.21875 -0.25 L 0.21875 -1.3125 L 0.078125 -1.328125 L 0.078125 -1.515625 L 0.5 -1.515625 L 1.140625 -0.46875 L 1.140625 -1.3125 L 1 -1.328125 L 1 -1.515625 L 1.546875 -1.515625 L 1.546875 -1.328125 L 1.46875 -1.328125 C 1.4375 -1.328125 1.421875 -1.300781 1.421875 -1.25 L 1.421875 0 L 1.140625 0 L 0.484375 -1.0625 L 0.484375 -0.203125 L 0.625 -0.1875 L 0.625 0 Z M 0.078125 0 "/></g></g></g><g fill="#292828" fill-opacity="1"><g transform="translate(40.720621, 17.818538)"><g><path d="M 1.28125 -0.1875 L 1.28125 0 L 0.921875 0 L 0.921875 -0.140625 C 0.835938 -0.0234375 0.710938 0.03125 0.546875 0.03125 C 0.304688 0.03125 0.1875 -0.0976562 0.1875 -0.359375 L 0.1875 -0.890625 C 0.1875 -0.929688 0.171875 -0.953125 0.140625 -0.953125 L 0.0625 -0.953125 L 0.0625 -1.140625 L 0.46875 -1.140625 L 0.46875 -0.421875 C 0.46875 -0.335938 0.476562 -0.273438 0.5 -0.234375 C 0.519531 -0.203125 0.566406 -0.1875 0.640625 -0.1875 C 0.710938 -0.1875 0.769531 -0.207031 0.8125 -0.25 C 0.851562 -0.289062 0.875 -0.34375 0.875 -0.40625 L 0.875 -0.890625 C 0.875 -0.910156 0.867188 -0.925781 0.859375 -0.9375 C 0.847656 -0.945312 0.832031 -0.953125 0.8125 -0.953125 L 0.75 -0.953125 L 0.75 -1.140625 L 1.140625 -1.140625 L 1.140625 -0.25 C 1.140625 -0.226562 1.144531 -0.210938 1.15625 -0.203125 C 1.164062 -0.191406 1.179688 -0.1875 1.203125 -0.1875 Z M 1.28125 -0.1875 "/></g></g></g><g fill="#292828" fill-opacity="1"><g transform="translate(42.066362, 17.818538)"><g><path d="M 0.328125 -1.390625 L 0.484375 -1.390625 L 0.484375 -1.140625 L 0.78125 -1.140625 L 0.75 -0.953125 L 0.484375 -0.953125 L 0.484375 -0.359375 C 0.484375 -0.285156 0.492188 -0.234375 0.515625 -0.203125 C 0.535156 -0.179688 0.570312 -0.171875 0.625 -0.171875 C 0.675781 -0.171875 0.726562 -0.1875 0.78125 -0.21875 L 0.84375 -0.046875 C 0.769531 0.00390625 0.675781 0.03125 0.5625 0.03125 C 0.488281 0.03125 0.425781 0.0195312 0.375 0 C 0.332031 -0.0078125 0.300781 -0.0234375 0.28125 -0.046875 C 0.257812 -0.0664062 0.238281 -0.0976562 0.21875 -0.140625 C 0.207031 -0.179688 0.203125 -0.210938 0.203125 -0.234375 C 0.203125 -0.265625 0.203125 -0.300781 0.203125 -0.34375 L 0.203125 -0.953125 L 0.046875 -0.953125 L 0.0625 -1.125 C 0.132812 -1.125 0.1875 -1.144531 0.21875 -1.1875 C 0.257812 -1.238281 0.296875 -1.304688 0.328125 -1.390625 Z M 0.328125 -1.390625 "/></g></g></g><g fill="#292828" fill-opacity="1"><g transform="translate(42.924812, 17.818538)"><g><path d="M 0.21875 -0.25 L 0.21875 -0.890625 C 0.21875 -0.910156 0.210938 -0.925781 0.203125 -0.9375 C 0.191406 -0.945312 0.175781 -0.953125 0.15625 -0.953125 L 0.0625 -0.96875 L 0.0625 -1.140625 L 0.453125 -1.140625 L 0.453125 -0.96875 C 0.472656 -1.03125 0.507812 -1.082031 0.5625 -1.125 C 0.625 -1.164062 0.691406 -1.1875 0.765625 -1.1875 C 0.847656 -1.1875 0.925781 -1.164062 1 -1.125 L 1 -0.796875 L 0.78125 -0.78125 L 0.78125 -0.875 C 0.78125 -0.90625 0.769531 -0.925781 0.75 -0.9375 C 0.738281 -0.945312 0.722656 -0.953125 0.703125 -0.953125 C 0.640625 -0.953125 0.585938 -0.925781 0.546875 -0.875 C 0.503906 -0.832031 0.484375 -0.78125 0.484375 -0.71875 L 0.484375 -0.1875 L 0.6875 -0.1875 L 0.6875 0 L 0.078125 0 L 0.078125 -0.171875 L 0.15625 -0.1875 C 0.175781 -0.1875 0.191406 -0.191406 0.203125 -0.203125 C 0.210938 -0.210938 0.21875 -0.226562 0.21875 -0.25 Z M 0.21875 -0.25 "/></g></g></g><g fill="#292828" fill-opacity="1"><g transform="translate(43.976811, 17.818538)"><g><path d="M 0.484375 -1.140625 L 0.484375 -0.1875 L 0.625 -0.1875 L 0.625 0 L 0.078125 0 L 0.078125 -0.171875 L 0.15625 -0.1875 C 0.195312 -0.1875 0.21875 -0.207031 0.21875 -0.25 L 0.21875 -0.890625 C 0.21875 -0.910156 0.210938 -0.925781 0.203125 -0.9375 C 0.191406 -0.945312 0.175781 -0.953125 0.15625 -0.953125 L 0.078125 -0.953125 L 0.078125 -1.140625 Z M 0.203125 -1.34375 C 0.171875 -1.375 0.15625 -1.410156 0.15625 -1.453125 C 0.15625 -1.503906 0.171875 -1.546875 0.203125 -1.578125 C 0.234375 -1.617188 0.273438 -1.640625 0.328125 -1.640625 C 0.378906 -1.640625 0.421875 -1.617188 0.453125 -1.578125 C 0.484375 -1.546875 0.5 -1.503906 0.5 -1.453125 C 0.5 -1.410156 0.484375 -1.375 0.453125 -1.34375 C 0.421875 -1.3125 0.378906 -1.296875 0.328125 -1.296875 C 0.273438 -1.296875 0.234375 -1.3125 0.203125 -1.34375 Z M 0.203125 -1.34375 "/></g></g></g><g fill="#292828" fill-opacity="1"><g transform="translate(44.650821, 17.818538)"><g><path d="M 0.34375 -0.59375 C 0.34375 -0.457031 0.367188 -0.351562 0.421875 -0.28125 C 0.472656 -0.207031 0.539062 -0.171875 0.625 -0.171875 C 0.71875 -0.171875 0.8125 -0.207031 0.90625 -0.28125 L 1 -0.09375 C 0.894531 -0.0078125 0.757812 0.03125 0.59375 0.03125 C 0.4375 0.03125 0.3125 -0.0195312 0.21875 -0.125 C 0.125 -0.226562 0.078125 -0.378906 0.078125 -0.578125 C 0.078125 -0.773438 0.128906 -0.925781 0.234375 -1.03125 C 0.335938 -1.132812 0.457031 -1.1875 0.59375 -1.1875 C 0.726562 -1.1875 0.851562 -1.15625 0.96875 -1.09375 L 0.96875 -0.796875 L 0.765625 -0.78125 L 0.765625 -0.890625 C 0.765625 -0.929688 0.75 -0.953125 0.71875 -0.953125 C 0.6875 -0.960938 0.65625 -0.96875 0.625 -0.96875 C 0.4375 -0.96875 0.34375 -0.84375 0.34375 -0.59375 Z M 0.34375 -0.59375 "/></g></g></g><g fill="#292828" fill-opacity="1"><g transform="translate(45.723313, 17.818538)"><g><path d="M 0.484375 -1.140625 L 0.484375 -0.1875 L 0.625 -0.1875 L 0.625 0 L 0.078125 0 L 0.078125 -0.171875 L 0.15625 -0.1875 C 0.195312 -0.1875 0.21875 -0.207031 0.21875 -0.25 L 0.21875 -0.890625 C 0.21875 -0.910156 0.210938 -0.925781 0.203125 -0.9375 C 0.191406 -0.945312 0.175781 -0.953125 0.15625 -0.953125 L 0.078125 -0.953125 L 0.078125 -1.140625 Z M 0.203125 -1.34375 C 0.171875 -1.375 0.15625 -1.410156 0.15625 -1.453125 C 0.15625 -1.503906 0.171875 -1.546875 0.203125 -1.578125 C 0.234375 -1.617188 0.273438 -1.640625 0.328125 -1.640625 C 0.378906 -1.640625 0.421875 -1.617188 0.453125 -1.578125 C 0.484375 -1.546875 0.5 -1.503906 0.5 -1.453125 C 0.5 -1.410156 0.484375 -1.375 0.453125 -1.34375 C 0.421875 -1.3125 0.378906 -1.296875 0.328125 -1.296875 C 0.273438 -1.296875 0.234375 -1.3125 0.203125 -1.34375 Z M 0.203125 -1.34375 "/></g></g></g><g fill="#292828" fill-opacity="1"><g transform="translate(46.397323, 17.818538)"><g><path d="M 0.59375 -0.171875 C 0.757812 -0.171875 0.84375 -0.300781 0.84375 -0.5625 C 0.84375 -0.695312 0.820312 -0.800781 0.78125 -0.875 C 0.75 -0.945312 0.6875 -0.984375 0.59375 -0.984375 C 0.507812 -0.984375 0.445312 -0.945312 0.40625 -0.875 C 0.363281 -0.8125 0.34375 -0.722656 0.34375 -0.609375 C 0.34375 -0.390625 0.382812 -0.253906 0.46875 -0.203125 C 0.5 -0.179688 0.539062 -0.171875 0.59375 -0.171875 Z M 0.078125 -0.578125 C 0.078125 -0.691406 0.09375 -0.789062 0.125 -0.875 C 0.15625 -0.957031 0.203125 -1.019531 0.265625 -1.0625 C 0.367188 -1.144531 0.488281 -1.1875 0.625 -1.1875 C 0.707031 -1.1875 0.78125 -1.171875 0.84375 -1.140625 C 0.90625 -1.109375 0.953125 -1.070312 0.984375 -1.03125 C 1.023438 -0.988281 1.054688 -0.929688 1.078125 -0.859375 C 1.109375 -0.785156 1.125 -0.703125 1.125 -0.609375 C 1.125 -0.398438 1.070312 -0.238281 0.96875 -0.125 C 0.875 -0.0195312 0.742188 0.03125 0.578125 0.03125 C 0.421875 0.03125 0.296875 -0.0195312 0.203125 -0.125 C 0.117188 -0.226562 0.078125 -0.378906 0.078125 -0.578125 Z M 0.078125 -0.578125 "/></g></g></g><g fill="#292828" fill-opacity="1"><g transform="translate(47.599608, 17.818538)"><g><path d="M 0.0625 -0.96875 L 0.0625 -1.140625 L 0.453125 -1.140625 L 0.453125 -1 C 0.484375 -1.050781 0.53125 -1.09375 0.59375 -1.125 C 0.664062 -1.164062 0.738281 -1.1875 0.8125 -1.1875 C 0.925781 -1.1875 1.015625 -1.148438 1.078125 -1.078125 C 1.140625 -1.015625 1.171875 -0.914062 1.171875 -0.78125 L 1.171875 -0.1875 L 1.3125 -0.1875 L 1.3125 0 L 0.765625 0 L 0.765625 -0.171875 L 0.84375 -0.1875 C 0.863281 -0.1875 0.878906 -0.191406 0.890625 -0.203125 C 0.898438 -0.210938 0.90625 -0.226562 0.90625 -0.25 L 0.90625 -0.71875 C 0.90625 -0.800781 0.890625 -0.863281 0.859375 -0.90625 C 0.835938 -0.945312 0.789062 -0.96875 0.71875 -0.96875 C 0.644531 -0.96875 0.585938 -0.941406 0.546875 -0.890625 C 0.503906 -0.847656 0.484375 -0.796875 0.484375 -0.734375 L 0.484375 -0.1875 L 0.609375 -0.1875 L 0.609375 0 L 0.078125 0 L 0.078125 -0.171875 L 0.140625 -0.1875 C 0.171875 -0.1875 0.191406 -0.191406 0.203125 -0.203125 C 0.210938 -0.210938 0.21875 -0.226562 0.21875 -0.25 L 0.21875 -0.890625 C 0.21875 -0.929688 0.195312 -0.953125 0.15625 -0.953125 Z M 0.0625 -0.96875 "/></g></g></g><g fill="#292828" fill-opacity="1"><g transform="translate(48.965843, 17.818538)"><g><path d="M 0.484375 -1.140625 L 0.484375 -0.1875 L 0.625 -0.1875 L 0.625 0 L 0.078125 0 L 0.078125 -0.171875 L 0.15625 -0.1875 C 0.195312 -0.1875 0.21875 -0.207031 0.21875 -0.25 L 0.21875 -0.890625 C 0.21875 -0.910156 0.210938 -0.925781 0.203125 -0.9375 C 0.191406 -0.945312 0.175781 -0.953125 0.15625 -0.953125 L 0.078125 -0.953125 L 0.078125 -1.140625 Z M 0.203125 -1.34375 C 0.171875 -1.375 0.15625 -1.410156 0.15625 -1.453125 C 0.15625 -1.503906 0.171875 -1.546875 0.203125 -1.578125 C 0.234375 -1.617188 0.273438 -1.640625 0.328125 -1.640625 C 0.378906 -1.640625 0.421875 -1.617188 0.453125 -1.578125 C 0.484375 -1.546875 0.5 -1.503906 0.5 -1.453125 C 0.5 -1.410156 0.484375 -1.375 0.453125 -1.34375 C 0.421875 -1.3125 0.378906 -1.296875 0.328125 -1.296875 C 0.273438 -1.296875 0.234375 -1.3125 0.203125 -1.34375 Z M 0.203125 -1.34375 "/></g></g></g><g fill="#292828" fill-opacity="1"><g transform="translate(49.639853, 17.818538)"><g><path d="M 0.671875 -0.96875 C 0.640625 -0.988281 0.597656 -1 0.546875 -1 C 0.492188 -1 0.453125 -0.984375 0.421875 -0.953125 C 0.390625 -0.929688 0.375 -0.90625 0.375 -0.875 C 0.375 -0.84375 0.378906 -0.816406 0.390625 -0.796875 C 0.398438 -0.773438 0.414062 -0.757812 0.4375 -0.75 C 0.476562 -0.726562 0.523438 -0.707031 0.578125 -0.6875 C 0.628906 -0.675781 0.664062 -0.664062 0.6875 -0.65625 C 0.71875 -0.644531 0.75 -0.628906 0.78125 -0.609375 C 0.820312 -0.597656 0.851562 -0.578125 0.875 -0.546875 C 0.925781 -0.492188 0.953125 -0.421875 0.953125 -0.328125 C 0.953125 -0.222656 0.910156 -0.132812 0.828125 -0.0625 C 0.753906 0 0.648438 0.03125 0.515625 0.03125 C 0.328125 0.03125 0.1875 0.00390625 0.09375 -0.046875 L 0.09375 -0.359375 L 0.3125 -0.375 L 0.3125 -0.265625 C 0.3125 -0.203125 0.375 -0.171875 0.5 -0.171875 C 0.625 -0.171875 0.6875 -0.210938 0.6875 -0.296875 C 0.6875 -0.335938 0.675781 -0.367188 0.65625 -0.390625 C 0.632812 -0.410156 0.613281 -0.421875 0.59375 -0.421875 C 0.570312 -0.429688 0.546875 -0.441406 0.515625 -0.453125 C 0.484375 -0.460938 0.453125 -0.46875 0.421875 -0.46875 C 0.398438 -0.476562 0.367188 -0.488281 0.328125 -0.5 C 0.296875 -0.519531 0.265625 -0.539062 0.234375 -0.5625 C 0.148438 -0.613281 0.109375 -0.695312 0.109375 -0.8125 C 0.109375 -0.925781 0.148438 -1.015625 0.234375 -1.078125 C 0.316406 -1.148438 0.421875 -1.1875 0.546875 -1.1875 C 0.679688 -1.1875 0.8125 -1.15625 0.9375 -1.09375 L 0.9375 -0.8125 L 0.71875 -0.796875 L 0.71875 -0.890625 C 0.71875 -0.929688 0.703125 -0.957031 0.671875 -0.96875 Z M 0.671875 -0.96875 "/></g></g></g><g fill="#292828" fill-opacity="1"><g transform="translate(50.666804, 17.818538)"><g><path d="M 0.328125 -1.390625 L 0.484375 -1.390625 L 0.484375 -1.140625 L 0.78125 -1.140625 L 0.75 -0.953125 L 0.484375 -0.953125 L 0.484375 -0.359375 C 0.484375 -0.285156 0.492188 -0.234375 0.515625 -0.203125 C 0.535156 -0.179688 0.570312 -0.171875 0.625 -0.171875 C 0.675781 -0.171875 0.726562 -0.1875 0.78125 -0.21875 L 0.84375 -0.046875 C 0.769531 0.00390625 0.675781 0.03125 0.5625 0.03125 C 0.488281 0.03125 0.425781 0.0195312 0.375 0 C 0.332031 -0.0078125 0.300781 -0.0234375 0.28125 -0.046875 C 0.257812 -0.0664062 0.238281 -0.0976562 0.21875 -0.140625 C 0.207031 -0.179688 0.203125 -0.210938 0.203125 -0.234375 C 0.203125 -0.265625 0.203125 -0.300781 0.203125 -0.34375 L 0.203125 -0.953125 L 0.046875 -0.953125 L 0.0625 -1.125 C 0.132812 -1.125 0.1875 -1.144531 0.21875 -1.1875 C 0.257812 -1.238281 0.296875 -1.304688 0.328125 -1.390625 Z M 0.328125 -1.390625 "/></g></g></g><g fill="#292828" fill-opacity="1"><g transform="translate(51.525254, 17.818538)"><g><path d="M 1.09375 -1.109375 L 1.09375 -0.25 C 1.09375 -0.226562 1.097656 -0.210938 1.109375 -0.203125 C 1.117188 -0.191406 1.132812 -0.1875 1.15625 -0.1875 L 1.234375 -0.1875 L 1.234375 0 L 0.859375 0 L 0.859375 -0.140625 C 0.785156 -0.0234375 0.679688 0.03125 0.546875 0.03125 C 0.390625 0.03125 0.273438 -0.015625 0.203125 -0.109375 C 0.128906 -0.210938 0.09375 -0.351562 0.09375 -0.53125 C 0.09375 -0.726562 0.140625 -0.882812 0.234375 -1 C 0.335938 -1.125 0.488281 -1.1875 0.6875 -1.1875 C 0.820312 -1.1875 0.957031 -1.160156 1.09375 -1.109375 Z M 0.828125 -0.359375 L 0.828125 -0.953125 C 0.785156 -0.972656 0.726562 -0.984375 0.65625 -0.984375 C 0.550781 -0.984375 0.476562 -0.941406 0.4375 -0.859375 C 0.394531 -0.773438 0.375 -0.664062 0.375 -0.53125 C 0.375 -0.289062 0.453125 -0.171875 0.609375 -0.171875 C 0.671875 -0.171875 0.722656 -0.1875 0.765625 -0.21875 C 0.804688 -0.257812 0.828125 -0.304688 0.828125 -0.359375 Z M 0.828125 -0.359375 "/></g></g></g></svg>